<?xml version="1.0" encoding="UTF-8"?>
<svg width="20px" height="24px" viewBox="0 0 20 24" version="1.1" xmlns="http://www.w3.org/2000/svg" xmlns:xlink="http://www.w3.org/1999/xlink">
    <title>coin</title>
    <defs>
        <filter id="filter-1">
            <feColorMatrix in="SourceGraphic" type="matrix" values="0 0 0 0 0.000000 0 0 0 0 0.815686 0 0 0 0 0.666667 0 0 0 1.000000 0"></feColorMatrix>
        </filter>
    </defs>
    <g id="Page-1" stroke="none" stroke-width="1" fill="none" fill-rule="evenodd">
        <g id="coin" transform="translate(-496.000000, -3992.000000)" filter="url(#filter-1)">
            <g transform="translate(496.000000, 3992.000000)">
                <path d="M10,9 C15.345,9 20,6.985 20,4.5 C20,2.015 15.345,0 10,0 C4.656,0 0,2.015 0,4.5 C0,6.985 4.656,9 10,9 Z M10.187,4.981 C9.589,4.801 7.759,4.649 7.759,3.631 C7.759,3.063 8.427,2.557 9.676,2.444 L9.676,2 L10.318,2 L10.318,2.422 C10.786,2.433 11.307,2.484 11.887,2.602 L11.653,3.287 C11.212,3.186 10.72,3.088 10.237,3.088 L10.092,3.09 C9.13,3.13 9.051,3.664 9.719,3.889 C10.811,4.226 12.251,4.474 12.251,5.368 C12.251,6.082 11.384,6.465 10.317,6.56 L10.317,7 L9.675,7 L9.675,6.584 C9.016,6.578 8.322,6.471 7.75,6.28 L8.045,5.594 C8.533,5.719 9.147,5.847 9.7,5.847 C9.845,5.847 9.984,5.838 10.117,5.819 C10.854,5.713 11.001,5.217 10.187,4.981 L10.187,4.981 Z M7,2 L13,2 L13,7 L7,7 L7,2 Z M10,21 C13.783,21 17.708,20.031 20,18.197 L20,19.5 C20,21.985 15.345,24 10,24 C4.656,24 0,21.985 0,19.5 L0,18.196 C2.292,20.031 6.217,21 10,21 Z M10,11 C13.783,11 17.708,10.031 20,8.197 L20,9.5 C20,11.985 15.345,14 10,14 C4.656,14 0,11.985 0,9.5 L0,8.197 C2.292,10.031 6.217,11 10,11 Z M10,16 C13.783,16 17.708,15.031 20,13.197 L20,14.5 C20,16.985 15.345,19 10,19 C4.656,19 0,16.985 0,14.5 L0,13.196 C2.292,15.031 6.217,16 10,16 Z" id="Shape" fill="#000000" fill-rule="nonzero"></path>
                <rect id="Rectangle" stroke="#979797" fill="#D8D8D8" x="7.5" y="2.5" width="5" height="4"></rect>
            </g>
        </g>
    </g>
</svg>