<?xml version="1.0" encoding="UTF-8"?>
<svg width="80px" height="54px" viewBox="0 0 80 54" version="1.1" xmlns="http://www.w3.org/2000/svg" xmlns:xlink="http://www.w3.org/1999/xlink">
    <title>database</title>
    <defs>
        <filter id="filter-1">
            <feColorMatrix in="SourceGraphic" type="matrix" values="0 0 0 0 0.000000 0 0 0 0 0.811765 0 0 0 0 0.650980 0 0 0 1.000000 0"></feColorMatrix>
        </filter>
    </defs>
    <g id="Page-1" stroke="none" stroke-width="1" fill="none" fill-rule="evenodd" stroke-linecap="round" stroke-linejoin="round">
        <g id="database" transform="translate(-882.000000, -1040.000000)" filter="url(#filter-1)">
            <g transform="translate(883.000000, 1041.000000)">
                <path d="M56.0962,33.3587 C57.7432,33.5647 59.5002,33.6797 61.3242,33.6797 C61.7042,33.6797 62.0852,33.6707 62.4662,33.6607 C62.8442,33.6607 63.2152,33.6417 63.5882,33.6227 C63.8022,33.6127 64.0072,33.6037 64.2102,33.5837 C64.6292,33.5537 65.0402,33.5247 65.4402,33.4857 C65.7132,33.4567 65.9672,33.4267 66.2322,33.3967 C66.4242,33.3797 66.6202,33.3587 66.8052,33.3297 C66.8742,33.3207 66.9322,33.3087 66.9912,33.2997 C68.2882,33.1257 69.5172,32.8897 70.6392,32.5977 C70.9422,32.5197 71.2262,32.4417 71.5082,32.3547 C72.0742,32.1877 72.6002,32.0127 73.0972,31.8177 C73.3412,31.7297 73.5842,31.6317 73.8112,31.5237 L73.8282,31.5237 C74.0622,31.4177 74.2782,31.3197 74.4842,31.2127 C74.9122,31.0087 75.3112,30.7847 75.6642,30.5407 C77.0282,31.4467 77.8102,32.4817 77.8102,33.5917 C77.8102,34.7057 77.0282,35.7487 75.6642,36.6367 C75.3222,36.8617 74.9412,37.0757 74.5322,37.2897 C74.5222,37.2987 74.5012,37.3097 74.4842,37.3097 C74.2782,37.4167 74.0542,37.5137 73.8282,37.6217 L73.8112,37.6217 C73.5752,37.7287 73.3412,37.8157 73.0972,37.9137 C72.6002,38.1097 72.0742,38.2847 71.5082,38.4507 C71.2262,38.5387 70.9422,38.6177 70.6392,38.6947 C69.5172,38.9867 68.2882,39.2207 66.9912,39.3967 C66.9322,39.4067 66.8742,39.4177 66.8052,39.4257 C66.6202,39.4567 66.4242,39.4747 66.2322,39.4947 C65.9672,39.5327 65.7032,39.5527 65.4402,39.5827 C65.0402,39.6217 64.6292,39.6507 64.2102,39.6797 C64.0072,39.6997 63.8022,39.7097 63.5882,39.7187 C63.3322,39.7277 63.0712,39.7487 62.8062,39.7567 C62.5932,39.7567 62.3872,39.7667 62.1742,39.7667 C61.8902,39.7757 61.6082,39.7757 61.3242,39.7757 C58.4472,39.7757 55.7252,39.5047 53.3642,39.0047 C52.6942,39.4447 51.9322,39.8647 51.0742,40.2447 C54.3892,38.7427 56.3772,36.8117 56.3772,34.7057 C56.3772,34.2467 56.2812,33.7977 56.0962,33.3587 Z" id="Stroke-1" stroke="#000000" stroke-width="1.3"></path>
                <path d="M56.3774,26.1107 C56.3774,24.5507 55.2854,23.0887 53.3634,21.8197 C52.9924,22.0637 52.5844,22.3067 52.1454,22.5327 C53.0514,22.0527 53.8234,21.5367 54.4584,20.9807 L54.4654,20.9907 C56.5554,21.3517 58.8764,21.5477 61.3234,21.5477 C61.7144,21.5477 62.0954,21.5367 62.4744,21.5267 C62.8554,21.5167 63.2354,21.5067 63.6064,21.4877 C64.5324,21.4387 65.4324,21.3617 66.2974,21.2537 C66.5334,21.2347 66.7674,21.2047 66.9904,21.1667 C69.0094,20.8927 70.8454,20.4727 72.4064,19.9367 C72.6574,19.8497 72.9114,19.7617 73.1464,19.6647 C73.3714,19.5757 73.5954,19.4877 73.8004,19.3997 C74.2304,19.2157 74.6284,19.0207 74.9884,18.8147 C75.1364,18.7377 75.2734,18.6607 75.4074,18.5717 C75.5174,18.5127 75.6134,18.4447 75.7124,18.3777 C77.0584,19.2747 77.8104,20.2987 77.8104,21.3907 C77.8104,22.5017 77.0274,23.5367 75.6644,24.4337 C75.3114,24.6777 74.9124,24.9007 74.4834,25.1067 C74.2774,25.2147 74.0544,25.3127 73.8284,25.4197 L73.8114,25.4197 C73.5744,25.5257 73.3414,25.6237 73.0974,25.7117 C72.6004,25.9067 72.0734,26.0817 71.5084,26.2487 C71.2264,26.3357 70.9414,26.4147 70.6394,26.4917 C69.5174,26.7857 68.2884,27.0187 66.9904,27.1937 C66.9324,27.2047 66.8744,27.2147 66.8054,27.2237 C66.6204,27.2527 66.4244,27.2727 66.2324,27.2917 C65.9674,27.3317 65.7034,27.3507 65.4404,27.3797 C65.0304,27.4187 64.6214,27.4567 64.2024,27.4767 C64.0074,27.4967 63.7914,27.5067 63.5884,27.5157 C63.2154,27.5357 62.8444,27.5447 62.4664,27.5557 C62.0854,27.5647 61.7044,27.5747 61.3234,27.5747 C59.5214,27.5747 57.7944,27.4677 56.1744,27.2617 C56.3124,26.8917 56.3774,26.5027 56.3774,26.1107 Z" id="Stroke-3" stroke="#000000" stroke-width="1.3"></path>
                <path d="M12.8862,30.4427 C11.0022,31.7007 9.9202,33.1647 9.9202,34.7057 C9.9202,35.2207 10.0472,35.7387 10.2812,36.2357 C4.2532,35.3197 0.0002,33.0957 0.0002,30.5097 C0.0002,29.3987 0.7892,28.3747 2.1352,27.4567 L2.1462,27.4567 C2.2902,27.5557 2.4382,27.6427 2.5852,27.7307 C3.1992,28.0907 3.9102,28.4327 4.7202,28.7347 C4.9062,28.8037 5.0912,28.8727 5.2862,28.9407 C5.3722,28.9787 5.4722,29.0077 5.5782,29.0377 C5.7432,29.0967 5.9212,29.1537 6.0962,29.2037 C8.0362,29.7987 10.3602,30.2277 12.8862,30.4427 Z" id="Stroke-5" stroke="#000000" stroke-width="1.3"></path>
                <path d="M9.9487,17.888 C10.1057,19.4 11.3137,20.815 13.2847,22.034 C13.1677,21.966 13.0517,21.898 12.9447,21.82 C11.8807,22.522 11.0707,23.272 10.5627,24.082 L10.5547,24.082 C9.4027,23.916 8.3107,23.702 7.2957,23.439 C7.0337,23.371 6.7687,23.301 6.5147,23.234 C6.2517,23.156 5.9877,23.078 5.7357,22.99 C5.6167,22.951 5.4927,22.911 5.3727,22.873 C5.0807,22.776 4.7887,22.668 4.5077,22.551 C3.9787,22.347 3.4917,22.122 3.0527,21.887 C2.7297,21.722 2.4277,21.547 2.1457,21.362 C0.7797,20.463 0.0007,19.42 0.0007,18.308 C0.0007,17.205 0.7897,16.161 2.1457,15.264 C2.5857,15.547 3.0937,15.822 3.6487,16.083 C4.3317,16.406 5.0917,16.699 5.9287,16.952 C6.2307,17.059 6.5357,17.148 6.8577,17.215 C7.1577,17.313 7.4627,17.381 7.7717,17.449 C7.8607,17.469 7.9607,17.498 8.0567,17.519 C8.6607,17.655 9.2857,17.782 9.9407,17.888 L9.9487,17.888 Z" id="Stroke-7" stroke="#000000" stroke-width="1.3"></path>
                <path d="M0.0005,6.183 C0.0005,2.769 7.3845,0 16.4835,0 C17.2735,0 23.6745,0.457 24.7765,0.897 C16.0855,2.155 9.9205,5.325 9.9205,9.022 C9.9205,10.085 10.4285,11.109 11.3725,12.056 C10.9645,12.006 10.5635,11.948 10.1645,11.881 C9.7635,11.823 9.3745,11.754 8.9935,11.685 C8.2315,11.539 7.5005,11.363 6.8075,11.177 C6.1245,10.993 5.4725,10.787 4.8775,10.563 L4.8675,10.563 C4.5655,10.447 4.2805,10.329 4.0095,10.212 C3.7255,10.094 3.4615,9.967 3.2095,9.842 C3.0825,9.774 2.9555,9.715 2.8395,9.647 C2.7705,9.607 2.7015,9.568 2.6335,9.53 C2.5855,9.499 2.5345,9.471 2.4785,9.441 C0.9065,8.496 0.0005,7.374 0.0005,6.183 Z" id="Stroke-9" stroke="#000000" stroke-width="1.3"></path>
                <path d="M53.3637,39.0052 C55.7247,39.5042 58.4467,39.7762 61.3237,39.7762 C61.6077,39.7762 61.8897,39.7762 62.1747,39.7672 C62.3867,39.7672 62.6007,39.7572 62.8057,39.7572 C63.0707,39.7482 63.3327,39.7282 63.5887,39.7192 C63.8017,39.7092 64.0077,39.6992 64.2107,39.6802 C64.6297,39.6512 65.0407,39.6212 65.4397,39.5822 C65.7137,39.5532 65.9677,39.5242 66.2317,39.4942 C66.4247,39.4752 66.6207,39.4562 66.8047,39.4262 C66.8747,39.4172 66.9317,39.4062 66.9907,39.3972 C68.2887,39.2212 69.5167,38.9862 70.6387,38.6942 C70.9417,38.6172 71.2257,38.5382 71.5087,38.4502 C72.0737,38.2842 72.5997,38.1092 73.0967,37.9132 C73.3417,37.8262 73.5847,37.7292 73.8107,37.6212 L73.8287,37.6212 C74.0617,37.5242 74.2777,37.4162 74.4837,37.3102 C74.5017,37.3102 74.5217,37.2992 74.5317,37.2892 C74.9407,37.0842 75.3217,36.8702 75.6647,36.6372 C77.0277,37.5432 77.8097,38.5772 77.8097,39.6992 C77.8097,43.1132 70.4267,45.8732 61.3237,45.8732 C59.3257,45.8732 57.4137,45.7362 55.6387,45.4922 C56.1267,44.8002 56.3777,44.0602 56.3777,43.3082 C56.3777,41.7372 55.2857,40.2752 53.3637,39.0052 Z" id="Stroke-11" stroke="#000000" stroke-width="1.3"></path>
                <path d="M61.3237,33.68 C59.5007,33.68 57.7437,33.565 56.0957,33.359 C55.6667,32.295 54.7197,31.301 53.3637,30.404 C54.8077,29.457 55.7837,28.394 56.1747,27.262 C57.7947,27.468 59.5207,27.575 61.3237,27.575 C61.7047,27.575 62.0857,27.565 62.4667,27.556 C62.8447,27.556 63.2157,27.535 63.5887,27.516 C63.7917,27.506 63.9977,27.496 64.2027,27.477 C64.6217,27.456 65.0307,27.418 65.4397,27.379 C65.7137,27.351 65.9677,27.321 66.2317,27.291 C66.4247,27.273 66.6207,27.252 66.8047,27.224 C66.8747,27.214 66.9317,27.204 66.9907,27.194 C68.2887,27.019 69.5167,26.785 70.6387,26.492 C70.9417,26.414 71.2257,26.335 71.5087,26.248 C72.0737,26.081 72.5997,25.907 73.0967,25.711 C73.3417,25.623 73.5847,25.526 73.8107,25.419 L73.8287,25.419 C74.0617,25.313 74.2777,25.214 74.4837,25.107 C74.9127,24.901 75.3107,24.678 75.6647,24.434 C77.0277,25.34 77.8097,26.385 77.8097,27.496 C77.8097,28.61 77.0277,29.643 75.6647,30.54 C75.3107,30.784 74.9127,31.009 74.4837,31.213 C74.2777,31.32 74.0537,31.417 73.8287,31.524 L73.8107,31.524 C73.5747,31.632 73.3417,31.73 73.0967,31.818 C72.5997,32.013 72.0737,32.188 71.5087,32.355 C71.2257,32.442 70.9417,32.52 70.6387,32.598 C69.5167,32.89 68.2887,33.125 66.9907,33.3 C66.9317,33.309 66.8747,33.321 66.8047,33.329 C66.6207,33.359 66.4247,33.379 66.2317,33.397 C65.9677,33.436 65.7037,33.456 65.4397,33.486 C65.0407,33.525 64.6297,33.554 64.2107,33.583 C64.0077,33.604 63.8027,33.613 63.5887,33.622 C63.2157,33.642 62.8447,33.652 62.4667,33.66 C62.0857,33.671 61.7047,33.68 61.3237,33.68 Z" id="Stroke-13" stroke="#000000" stroke-width="1.3"></path>
                <path d="M61.3237,21.5472 C58.8767,21.5472 56.5547,21.3522 54.4657,20.9902 L54.4587,20.9812 C55.6947,19.9272 56.3777,18.7472 56.3777,17.5192 C56.3777,15.9782 55.3057,14.5322 53.4317,13.2652 C55.1317,12.1332 56.1647,10.8462 56.3497,9.4712 C57.9187,9.2852 59.5877,9.1792 61.3237,9.1792 C70.4267,9.1792 77.8097,11.9472 77.8097,15.3622 C77.8097,16.4542 77.0487,17.4882 75.7127,18.3772 C75.6137,18.4442 75.5167,18.5132 75.4077,18.5712 C75.2807,18.6502 75.1367,18.7372 74.9887,18.8152 C74.6287,19.0212 74.2297,19.2162 73.8007,19.4002 C73.5847,19.4982 73.3717,19.5872 73.1457,19.6642 C72.9117,19.7622 72.6577,19.8502 72.4067,19.9372 C70.8447,20.4732 69.0097,20.8932 66.9907,21.1662 C66.7667,21.2042 66.5337,21.2352 66.2977,21.2532 C65.4317,21.3612 64.5327,21.4392 63.6057,21.4872 C63.2247,21.5072 62.8547,21.5172 62.4737,21.5262 C62.0947,21.5362 61.7147,21.5472 61.3237,21.5472 Z" id="Stroke-15" stroke="#000000" stroke-width="1.3"></path>
                <path d="M9.9204,26.1107 C9.9204,27.6807 11.0224,29.1447 12.9444,30.4037 C12.9244,30.4137 12.9134,30.4227 12.8944,30.4427 L12.8864,30.4427 C10.3594,30.2277 8.0364,29.7987 6.0964,29.2037 C5.9214,29.1537 5.7434,29.0967 5.5784,29.0377 C5.4724,29.0077 5.3724,28.9787 5.2864,28.9407 C5.0914,28.8727 4.9054,28.8037 4.7204,28.7347 C3.9104,28.4327 3.1994,28.0907 2.5854,27.7307 C2.4384,27.6427 2.2824,27.5557 2.1464,27.4567 L2.1354,27.4567 C0.7794,26.5597 0.0004,25.5167 0.0004,24.4137 C0.0004,23.3007 0.7894,22.2577 2.1464,21.3617 C2.4274,21.5477 2.7304,21.7217 3.0524,21.8867 C3.4914,22.1227 3.9794,22.3467 4.5074,22.5507 C4.7784,22.6687 5.0704,22.7757 5.3724,22.8737 C5.4924,22.9117 5.6084,22.9517 5.7354,22.9897 C5.9874,23.0787 6.2514,23.1557 6.5154,23.2337 C6.7694,23.3007 7.0334,23.3717 7.2954,23.4387 C8.3114,23.7027 9.4024,23.9167 10.5554,24.0827 C10.1444,24.7257 9.9204,25.4087 9.9204,26.1107 Z" id="Stroke-17" stroke="#000000" stroke-width="1.3"></path>
                <path d="M12.8657,13.265 C10.9917,14.533 9.9207,15.978 9.9207,17.519 C9.9207,17.635 9.9277,17.762 9.9407,17.879 C9.2857,17.772 8.6607,17.645 8.0567,17.519 C7.9607,17.498 7.8607,17.469 7.7717,17.449 C7.4627,17.371 7.1577,17.303 6.8577,17.215 C6.5357,17.137 6.2227,17.04 5.9287,16.953 C5.0917,16.689 4.3317,16.397 3.6487,16.083 C3.0937,15.822 2.5857,15.547 2.1457,15.264 C0.7797,14.358 0.0007,13.314 0.0007,12.211 C0.0007,11.109 0.7617,10.094 2.0877,9.197 C2.2147,9.286 2.3417,9.364 2.4777,9.441 C2.5347,9.471 2.5857,9.499 2.6337,9.53 C2.7017,9.577 2.7697,9.618 2.8397,9.647 C2.9557,9.715 3.0827,9.783 3.2097,9.842 C3.4617,9.978 3.7247,10.105 4.0097,10.212 C4.2807,10.338 4.5657,10.456 4.8677,10.563 L4.8777,10.563 C5.4717,10.796 6.1167,11.002 6.8067,11.177 C7.4907,11.373 8.2217,11.539 8.9937,11.685 C9.3747,11.763 9.7627,11.831 10.1647,11.881 C10.5547,11.948 10.9647,12.006 11.3727,12.056 L11.3837,12.056 C11.5957,12.289 11.8407,12.504 12.1137,12.708 C12.2407,12.826 12.3787,12.933 12.5227,13.021 C12.6327,13.11 12.7487,13.187 12.8657,13.265 Z" id="Stroke-19" stroke="#000000" stroke-width="1.3"></path>
                <path d="M52.145,31.1253 C51.853,31.2803 51.561,31.4373 51.239,31.5733 C51.551,31.4283 51.863,31.2713 52.145,31.1253 Z" id="Stroke-21" stroke="#000000" stroke-width="1.3"></path>
                <path d="M50.2534,32.0033 C50.4284,31.9343 50.5934,31.8663 50.7614,31.7883 C50.5934,31.8663 50.4284,31.9343 50.2534,32.0033 Z" id="Stroke-23" stroke="#000000" stroke-width="1.3"></path>
                <path d="M49.7358,32.2084 C49.5708,32.2754 49.3848,32.3444 49.1998,32.4024 C49.3848,32.3444 49.5598,32.2754 49.7358,32.2084 Z" id="Stroke-25" stroke="#000000" stroke-width="1.3"></path>
                <path d="M42.2934,25.5257 C42.7424,25.4577 43.1824,25.3797 43.6104,25.2927 C43.1824,25.3797 42.7424,25.4577 42.2934,25.5257 Z" id="Stroke-27" stroke="#000000" stroke-width="1.3"></path>
                <path d="M42.2934,34.1195 C42.7424,34.0525 43.1824,33.9735 43.6104,33.8855 C43.1824,33.9735 42.7424,34.0525 42.2934,34.1195 Z" id="Stroke-29" stroke="#000000" stroke-width="1.3"></path>
                <path d="M42.2934,42.7142 C42.7424,42.6452 43.1824,42.5672 43.6104,42.4792 C43.1824,42.5672 42.7424,42.6452 42.2934,42.7142 Z" id="Stroke-31" stroke="#000000" stroke-width="1.3"></path>
                <path d="M42.352,17.0209 C42.771,16.9609 43.182,16.8839 43.581,16.8049 C43.182,16.8839 42.771,16.9529 42.352,17.0209 Z" id="Stroke-33" stroke="#000000" stroke-width="1.3"></path>
                <path d="M41.1333,17.2054 C41.5413,17.1474 41.9533,17.0884 42.3523,17.0204 C41.9533,17.0884 41.5413,17.1474 41.1333,17.2054 Z" id="Stroke-35" stroke="#000000" stroke-width="1.3"></path>
                <path d="M42.1967,34.139 C41.7677,34.206 41.3287,34.266 40.8887,34.324 C41.3387,34.266 41.7677,34.206 42.1967,34.139 Z" id="Stroke-37" stroke="#000000" stroke-width="1.3"></path>
                <path d="M42.1186,25.556 C41.7096,25.623 41.3076,25.683 40.8896,25.732 C41.3076,25.671 41.7196,25.615 42.1186,25.556 Z" id="Stroke-39" stroke="#000000" stroke-width="1.3"></path>
                <path d="M39.396,25.9066 C39.894,25.8586 40.381,25.8006 40.869,25.7316 C40.392,25.8006 39.894,25.8586 39.396,25.9066 Z" id="Stroke-41" stroke="#000000" stroke-width="1.3"></path>
                <path d="M39.396,34.5003 C39.894,34.4503 40.381,34.3923 40.869,34.3233 C40.392,34.3923 39.894,34.4503 39.396,34.5003 Z" id="Stroke-43" stroke="#000000" stroke-width="1.3"></path>
                <path d="M39.602,17.3919 C39.973,17.3529 40.333,17.3129 40.694,17.2649 C40.333,17.3129 39.973,17.3529 39.602,17.3919 Z" id="Stroke-45" stroke="#000000" stroke-width="1.3"></path>
                <path d="M39.396,43.0931 C39.767,43.0641 40.138,43.0151 40.5,42.9661 C40.138,43.0151 39.767,43.0541 39.396,43.0931 Z" id="Stroke-47" stroke="#000000" stroke-width="1.3"></path>
                <path d="M39.396,25.9066 C38.899,25.9656 38.393,26.0046 37.885,26.0436 C38.393,26.0046 38.899,25.9546 39.396,25.9066 Z" id="Stroke-49" stroke="#000000" stroke-width="1.3"></path>
                <path d="M39.396,34.5003 C38.899,34.5583 38.393,34.5983 37.885,34.6373 C38.393,34.5983 38.899,34.5493 39.396,34.5003 Z" id="Stroke-51" stroke="#000000" stroke-width="1.3"></path>
                <path d="M39.396,43.0931 C39.056,43.1331 38.713,43.1611 38.363,43.1901 C38.713,43.1611 39.056,43.1331 39.396,43.0931 Z" id="Stroke-53" stroke="#000000" stroke-width="1.3"></path>
                <path d="M39.3178,17.4193 C38.8498,17.4693 38.3928,17.5083 37.9138,17.5463 C38.3928,17.5083 38.8608,17.4693 39.3178,17.4193 Z" id="Stroke-55" stroke="#000000" stroke-width="1.3"></path>
                <path d="M37.8852,26.0433 C37.4852,26.0813 37.0852,26.1023 36.6852,26.1313 C37.0962,26.1023 37.4942,26.0813 37.8852,26.0433 Z" id="Stroke-57" stroke="#000000" stroke-width="1.3"></path>
                <path d="M37.8852,34.6371 C37.4852,34.6751 37.0852,34.6951 36.6852,34.7251 C37.0962,34.6951 37.4942,34.6751 37.8852,34.6371 Z" id="Stroke-59" stroke="#000000" stroke-width="1.3"></path>
                <path d="M33.145,0.3119 C45.98,0.3119 56.377,4.2129 56.377,9.0219 C56.377,9.1669 56.37,9.3239 56.35,9.4709 C56.165,10.8459 55.131,12.1329 53.432,13.2649 C53.113,13.4789 52.77,13.6949 52.399,13.8889 C52.254,13.9779 52.097,14.0659 51.932,14.1429 C51.832,14.2019 51.726,14.2499 51.62,14.2989 C51.444,14.3869 51.259,14.4739 51.074,14.5619 C50.837,14.6699 50.593,14.7769 50.342,14.8749 C50.342,14.8749 50.342,14.8839 50.332,14.8839 C50.085,14.9819 49.834,15.0809 49.571,15.1759 C49.306,15.2759 49.044,15.3729 48.76,15.4679 C48.489,15.5569 48.214,15.6549 47.922,15.7429 C47.064,16.0069 46.158,16.2499 45.191,16.4739 C44.672,16.5919 44.137,16.6989 43.581,16.8049 C43.182,16.8839 42.771,16.9609 42.352,17.0209 C41.954,17.0879 41.541,17.1479 41.133,17.2059 C40.989,17.2259 40.841,17.2449 40.694,17.2649 C40.333,17.3129 39.973,17.3529 39.602,17.3919 C39.503,17.4009 39.407,17.4109 39.318,17.4189 C38.861,17.4689 38.393,17.5079 37.914,17.5459 C37.466,17.5859 37.017,17.6159 36.558,17.6449 C36.217,17.6549 35.867,17.6749 35.524,17.6839 C34.745,17.7129 33.945,17.7339 33.145,17.7339 C32.345,17.7339 31.553,17.7129 30.774,17.6839 C30.414,17.6749 30.063,17.6549 29.709,17.6349 C29.263,17.6159 28.824,17.5859 28.384,17.5459 C27.907,17.5079 27.437,17.4689 26.98,17.4189 C26.891,17.4109 26.795,17.4009 26.707,17.3919 C26.288,17.3529 25.878,17.3029 25.477,17.2449 C25.371,17.2359 25.264,17.2149 25.165,17.2059 C24.756,17.1479 24.355,17.0879 23.957,17.0209 C23.517,16.9529 23.088,16.8739 22.669,16.7959 C22.133,16.6989 21.616,16.5919 21.108,16.4739 C20.785,16.3969 20.473,16.3179 20.161,16.2409 C19.889,16.1719 19.615,16.1029 19.343,16.0259 C19.312,16.0159 19.285,16.0069 19.254,15.9969 C18.962,15.9179 18.67,15.8309 18.375,15.7429 C18.299,15.7129 18.22,15.6949 18.152,15.6739 C17.936,15.6069 17.733,15.5389 17.538,15.4679 C17.266,15.3729 16.992,15.2759 16.728,15.1759 C16.202,14.9819 15.705,14.7769 15.227,14.5619 C14.991,14.4559 14.757,14.3489 14.544,14.2309 C14.534,14.2309 14.534,14.2309 14.524,14.2219 C14.308,14.1139 14.105,14.0059 13.899,13.8889 C13.569,13.7139 13.264,13.5289 12.972,13.3329 C12.934,13.3039 12.894,13.2849 12.866,13.2649 C12.749,13.1769 12.632,13.0999 12.523,13.0209 C12.388,12.9239 12.241,12.8169 12.114,12.7079 C11.84,12.4959 11.606,12.2809 11.383,12.0559 L11.373,12.0559 C10.428,11.1089 9.92,10.0849 9.92,9.0219 C9.92,5.3249 16.085,2.1549 24.777,0.8969 C27.369,0.5159 30.19,0.3119 33.145,0.3119 Z" id="Stroke-61" stroke="#000000" stroke-width="1.3"></path>
                <path d="M28.4048,26.0433 C28.8028,26.0813 29.2048,26.1023 29.6138,26.1313 C29.2048,26.1023 28.8028,26.0813 28.4048,26.0433 Z" id="Stroke-63" stroke="#000000" stroke-width="1.3"></path>
                <path d="M29.6137,34.725 C29.2047,34.695 28.8027,34.675 28.4047,34.637 C28.8027,34.675 29.2047,34.695 29.6137,34.725 Z" id="Stroke-65" stroke="#000000" stroke-width="1.3"></path>
                <path d="M26.9018,25.9066 C27.3988,25.9546 27.8968,26.0046 28.4048,26.0436 C27.8968,26.0046 27.3988,25.9656 26.9018,25.9066 Z" id="Stroke-67" stroke="#000000" stroke-width="1.3"></path>
                <path d="M26.9018,34.5003 C27.3988,34.5493 27.8968,34.5983 28.4048,34.6373 C27.8968,34.5983 27.3988,34.5583 26.9018,34.5003 Z" id="Stroke-69" stroke="#000000" stroke-width="1.3"></path>
                <path d="M26.9799,17.4193 C27.4369,17.4693 27.9069,17.5083 28.3839,17.5463 C27.9169,17.5083 27.4479,17.4693 26.9799,17.4193 Z" id="Stroke-71" stroke="#000000" stroke-width="1.3"></path>
                <path d="M26.9018,43.0931 C27.1658,43.1221 27.4368,43.1521 27.7218,43.1721 C27.4478,43.1521 27.1758,43.1221 26.9018,43.0931 Z" id="Stroke-73" stroke="#000000" stroke-width="1.3"></path>
                <path d="M25.4292,25.7318 C25.9162,25.7998 26.4042,25.8588 26.9022,25.9068 C26.4042,25.8588 25.9072,25.7998 25.4292,25.7318 Z" id="Stroke-75" stroke="#000000" stroke-width="1.3"></path>
                <path d="M25.4292,34.3236 C25.9162,34.3916 26.4042,34.4506 26.9022,34.5006 C26.4042,34.4506 25.9072,34.3916 25.4292,34.3236 Z" id="Stroke-77" stroke="#000000" stroke-width="1.3"></path>
                <path d="M25.7993,42.9662 C26.1603,43.0152 26.5303,43.0642 26.9023,43.0932 C26.5303,43.0542 26.1603,43.0152 25.7993,42.9662 Z" id="Stroke-79" stroke="#000000" stroke-width="1.3"></path>
                <path d="M25.477,17.2445 C25.878,17.3035 26.288,17.3525 26.706,17.3915 C26.288,17.3525 25.878,17.3035 25.477,17.2445 Z" id="Stroke-81" stroke="#000000" stroke-width="1.3"></path>
                <path d="M24.1899,25.556 C24.5989,25.615 25.0099,25.683 25.4289,25.732 C25.0099,25.683 24.5909,25.623 24.1899,25.556 Z" id="Stroke-83" stroke="#000000" stroke-width="1.3"></path>
                <path d="M24.1108,34.139 C24.5408,34.206 24.9798,34.266 25.4288,34.324 C24.9798,34.266 24.5408,34.206 24.1108,34.139 Z" id="Stroke-85" stroke="#000000" stroke-width="1.3"></path>
                <path d="M23.9565,17.0209 C24.3545,17.0879 24.7565,17.1479 25.1645,17.2059 C24.7565,17.1479 24.3475,17.0879 23.9565,17.0209 Z" id="Stroke-87" stroke="#000000" stroke-width="1.3"></path>
                <path d="M22.6382,25.2816 C23.0882,25.3706 23.5372,25.4486 24.0042,25.5256 C23.5372,25.4486 23.0882,25.3706 22.6382,25.2816 Z" id="Stroke-89" stroke="#000000" stroke-width="1.3"></path>
                <path d="M22.6382,33.8753 C23.0882,33.9633 23.5372,34.0413 24.0042,34.1193 C23.5372,34.0413 23.0882,33.9633 22.6382,33.8753 Z" id="Stroke-91" stroke="#000000" stroke-width="1.3"></path>
                <path d="M22.6382,42.4701 C23.0882,42.5581 23.5372,42.6451 24.0042,42.7141 C23.5372,42.6351 23.0882,42.5581 22.6382,42.4701 Z" id="Stroke-93" stroke="#000000" stroke-width="1.3"></path>
                <path d="M22.6694,16.7962 C23.0884,16.8732 23.5174,16.9522 23.9564,17.0212 C23.5174,16.9522 23.0884,16.8732 22.6694,16.7962 Z" id="Stroke-95" stroke="#000000" stroke-width="1.3"></path>
                <path d="M18.8149,32.9584 C19.0099,33.0174 19.2159,33.0764 19.4119,33.1344 C19.2059,33.0854 19.0099,33.0274 18.8149,32.9584 Z" id="Stroke-97" stroke="#000000" stroke-width="1.3"></path>
                <path d="M33.145,52.0179 C20.328,52.0179 9.92,48.1169 9.92,43.3079 C9.92,41.7379 11.022,40.2749 12.945,39.0049 C13.051,39.0839 13.167,39.1529 13.285,39.2209 C13.294,39.2319 13.315,39.2319 13.323,39.2489 C13.508,39.3569 13.694,39.4649 13.889,39.5719 C14.308,39.8049 14.748,40.0319 15.227,40.2449 C15.928,40.5669 16.69,40.8699 17.509,41.1419 C17.809,41.2499 18.131,41.3479 18.464,41.4549 C18.718,41.5339 18.982,41.6109 19.254,41.6789 C19.546,41.7669 19.858,41.8439 20.161,41.9229 C20.953,42.1269 21.781,42.3129 22.638,42.4699 C23.088,42.5579 23.538,42.6349 24.004,42.7139 C24.591,42.8099 25.185,42.8889 25.799,42.9659 C26.161,43.0149 26.531,43.0539 26.902,43.0929 C27.176,43.1219 27.448,43.1519 27.722,43.1719 C28.374,43.2289 29.04,43.2789 29.709,43.3179 C30.063,43.3369 30.414,43.3579 30.774,43.3669 C31.553,43.3959 32.345,43.4149 33.145,43.4149 C34.94,43.4149 36.685,43.3369 38.363,43.1899 C38.713,43.1619 39.056,43.1329 39.396,43.0929 C39.767,43.0539 40.138,43.0149 40.5,42.9659 C41.103,42.8979 41.709,42.8099 42.293,42.7139 C42.743,42.6449 43.182,42.5669 43.611,42.4789 C44.206,42.3719 44.782,42.2459 45.348,42.1189 C46.254,41.9129 47.113,41.6789 47.922,41.4249 C48.214,41.3369 48.497,41.2399 48.771,41.1529 C49.59,40.8789 50.36,40.5779 51.074,40.2449 C51.932,39.8649 52.694,39.4449 53.364,39.0049 C55.286,40.2749 56.377,41.7379 56.377,43.3079 C56.377,44.0599 56.126,44.7999 55.639,45.4929 C53.051,49.2479 43.961,52.0179 33.145,52.0179 Z" id="Stroke-99" stroke="#000000" stroke-width="1.3"></path>
                <path d="M17.1089,32.4027 C16.5629,32.2167 16.0369,32.0127 15.5469,31.7887 C16.0449,32.0037 16.5629,32.2087 17.1089,32.4027 Z" id="Stroke-101" stroke="#000000" stroke-width="1.3"></path>
                <path d="M15.0698,31.5736 C15.2268,31.6526 15.3918,31.7196 15.5478,31.7886 C15.3818,31.7296 15.2268,31.6526 15.0698,31.5736 Z" id="Stroke-103" stroke="#000000" stroke-width="1.3"></path>
                <path d="M14.1635,31.1253 C14.4445,31.2713 14.7575,31.4283 15.0695,31.5733 C14.7575,31.4373 14.4555,31.2923 14.1635,31.1253 Z" id="Stroke-105" stroke="#000000" stroke-width="1.3"></path>
                <path d="M13.7339,30.891 C13.8689,30.969 14.0159,31.047 14.1639,31.125 C14.0159,31.057 13.8689,30.98 13.7339,30.891 Z" id="Stroke-107" stroke="#000000" stroke-width="1.3"></path>
                <path d="M53.3637,21.8197 C55.2857,23.0887 56.3777,24.5507 56.3777,26.1107 C56.3777,26.5027 56.3117,26.8917 56.1747,27.2617 C55.7837,28.3937 54.8077,29.4577 53.3637,30.4037 C52.9927,30.6577 52.5847,30.9007 52.1447,31.1257 C51.8627,31.2717 51.5517,31.4277 51.2387,31.5737 C51.0837,31.6527 50.9257,31.7197 50.7607,31.7887 C50.5927,31.8667 50.4277,31.9337 50.2537,32.0037 C50.0857,32.0817 49.9107,32.1497 49.7357,32.2087 C49.5597,32.2757 49.3847,32.3437 49.1997,32.4027 C47.5517,32.9987 45.6707,33.5047 43.6107,33.8847 C43.1817,33.9727 42.7427,34.0517 42.2937,34.1197 C42.2557,34.1297 42.2247,34.1297 42.1967,34.1387 C41.7677,34.2067 41.3387,34.2657 40.8887,34.3237 L40.8687,34.3237 C40.3817,34.3917 39.8937,34.4507 39.3957,34.5007 C38.8987,34.5487 38.3927,34.5977 37.8847,34.6367 C37.4947,34.6747 37.0957,34.6947 36.6847,34.7247 C35.5347,34.7837 34.3427,34.8227 33.1447,34.8227 C32.3447,34.8227 31.5527,34.8017 30.7737,34.7727 C30.4327,34.7627 30.1007,34.7457 29.7707,34.7337 C29.7097,34.7247 29.6617,34.7247 29.6137,34.7247 C29.2047,34.6947 28.8027,34.6747 28.4047,34.6367 C27.8967,34.5977 27.3987,34.5487 26.9017,34.5007 C26.4037,34.4507 25.9167,34.3917 25.4287,34.3237 C24.9797,34.2657 24.5407,34.2067 24.1107,34.1387 C24.0727,34.1297 24.0327,34.1297 24.0047,34.1197 C23.5377,34.0417 23.0887,33.9637 22.6377,33.8757 C21.4987,33.6607 20.4247,33.4177 19.4117,33.1337 C19.2167,33.0767 19.0097,33.0167 18.8147,32.9587 C18.2197,32.7937 17.6437,32.6067 17.1087,32.4027 C16.5627,32.2087 16.0447,32.0037 15.5477,31.7887 C15.3917,31.7197 15.2267,31.6527 15.0697,31.5737 C14.7577,31.4277 14.4447,31.2717 14.1637,31.1257 C14.0157,31.0477 13.8687,30.9687 13.7337,30.8907 C13.4497,30.7347 13.1877,30.5787 12.9447,30.4037 C11.0217,29.1447 9.9207,27.6807 9.9207,26.1107 C9.9207,25.4087 10.1437,24.7257 10.5547,24.0827 L10.5627,24.0827 C11.0707,23.2717 11.8807,22.5217 12.9447,21.8197 C13.0507,21.8977 13.1677,21.9657 13.2847,22.0347 C13.2947,22.0437 13.3147,22.0437 13.3227,22.0637 C13.5087,22.1707 13.6937,22.2787 13.8887,22.3857 C13.9777,22.4337 14.0747,22.4827 14.1637,22.5327 C14.4957,22.7167 14.8557,22.8817 15.2267,23.0577 C15.4507,23.1657 15.6937,23.2627 15.9377,23.3607 C16.9437,23.7797 18.0547,24.1607 19.2547,24.4927 C19.5467,24.5817 19.8577,24.6577 20.1607,24.7357 C20.9527,24.9407 21.7807,25.1277 22.6377,25.2817 C23.0887,25.3707 23.5377,25.4487 24.0047,25.5257 C24.0627,25.5357 24.1217,25.5467 24.1897,25.5557 C24.5917,25.6237 25.0097,25.6827 25.4287,25.7317 C25.9067,25.7997 26.4037,25.8587 26.9017,25.9067 C27.3987,25.9657 27.8967,26.0047 28.4047,26.0437 C28.8027,26.0817 29.2047,26.1017 29.6137,26.1317 C29.6617,26.1317 29.7097,26.1317 29.7707,26.1397 C30.1007,26.1507 30.4327,26.1707 30.7737,26.1787 C31.5527,26.2107 32.3447,26.2287 33.1447,26.2287 C34.3427,26.2287 35.5347,26.1897 36.6847,26.1317 C37.0857,26.1017 37.4847,26.0817 37.8847,26.0437 C38.3927,26.0047 38.8987,25.9657 39.3957,25.9067 C39.8937,25.8587 40.3917,25.7997 40.8687,25.7317 L40.8887,25.7317 C41.3077,25.6827 41.7097,25.6237 42.1187,25.5557 C42.1757,25.5467 42.2347,25.5357 42.2937,25.5257 C42.7427,25.4577 43.1817,25.3797 43.6107,25.2927 C44.2057,25.1837 44.7817,25.0567 45.3477,24.9317 C45.9317,24.7947 46.4987,24.6487 47.0447,24.4927 C48.2447,24.1607 49.3467,23.7907 50.3427,23.3717 C50.5927,23.2717 50.8377,23.1657 51.0737,23.0577 C51.4517,22.8927 51.8047,22.7167 52.1447,22.5327 C52.5847,22.3067 52.9927,22.0637 53.3637,21.8197 Z" id="Stroke-109" stroke="#000000" stroke-width="1.3"></path>
                <path d="M9.9204,17.5189 C9.9204,15.9779 10.9914,14.5329 12.8654,13.2649 C12.8944,13.2849 12.9344,13.3039 12.9724,13.3329 C13.2644,13.5289 13.5684,13.7139 13.8994,13.8889 C14.1054,14.0059 14.3084,14.1139 14.5244,14.2219 C14.5334,14.2309 14.5334,14.2309 14.5444,14.2309 C14.7674,14.3489 14.9904,14.4559 15.2274,14.5619 C15.7044,14.7769 16.2014,14.9819 16.7284,15.1759 C16.9914,15.2849 17.2664,15.3819 17.5374,15.4679 C17.7434,15.5469 17.9484,15.6069 18.1514,15.6739 C18.2204,15.6949 18.2994,15.7129 18.3754,15.7429 C18.6594,15.8309 18.9514,15.9179 19.2544,15.9969 C19.2844,16.0069 19.3124,16.0159 19.3434,16.0259 C19.6044,16.1029 19.8784,16.1719 20.1604,16.2409 C20.4734,16.3279 20.7844,16.4059 21.1084,16.4739 C21.6154,16.5919 22.1334,16.6989 22.6694,16.7959 C23.0884,16.8729 23.5174,16.9529 23.9564,17.0209 C24.3474,17.0879 24.7564,17.1479 25.1644,17.2059 C25.2644,17.2149 25.3704,17.2359 25.4774,17.2449 C25.8784,17.3029 26.2874,17.3529 26.7064,17.3919 C26.7954,17.4009 26.8914,17.4109 26.9804,17.4189 C27.4474,17.4689 27.9174,17.5079 28.3844,17.5459 C28.8234,17.5859 29.2634,17.6159 29.7094,17.6349 C30.0634,17.6549 30.4134,17.6749 30.7744,17.6839 C31.5534,17.7129 32.3454,17.7339 33.1454,17.7339 C33.9444,17.7339 34.7444,17.7129 35.5244,17.6839 C35.8744,17.6749 36.2174,17.6549 36.5584,17.6449 C37.0174,17.6159 37.4664,17.5859 37.9134,17.5459 C38.3934,17.5079 38.8504,17.4689 39.3174,17.4189 C39.4064,17.4109 39.5034,17.4009 39.6024,17.3919 C39.9734,17.3529 40.3334,17.3129 40.6934,17.2649 C40.8414,17.2449 40.9884,17.2259 41.1334,17.2059 C41.5414,17.1479 41.9534,17.0879 42.3524,17.0209 C42.7714,16.9529 43.1824,16.8839 43.5804,16.8049 C44.1374,16.6989 44.6724,16.5919 45.1914,16.4739 C46.1454,16.2609 47.0644,16.0159 47.9224,15.7429 C48.2044,15.6649 48.4884,15.5679 48.7604,15.4679 C49.0444,15.3819 49.3064,15.2849 49.5704,15.1759 C49.8344,15.0889 50.0854,14.9929 50.3324,14.8839 L50.3424,14.8739 C50.5934,14.7769 50.8374,14.6699 51.0734,14.5619 C51.2594,14.4739 51.4434,14.3869 51.6194,14.2989 C51.7264,14.2489 51.8324,14.2019 51.9324,14.1429 C52.0974,14.0659 52.2544,13.9779 52.3994,13.8889 C52.7704,13.6949 53.1124,13.4789 53.4324,13.2649 C55.3064,14.5329 56.3774,15.9779 56.3774,17.5189 C56.3774,18.7479 55.6944,19.9269 54.4584,20.9809 C53.8234,21.5369 53.0514,22.0529 52.1454,22.5329 C51.8054,22.7069 51.4434,22.8819 51.0734,23.0579 C50.8374,23.1649 50.5934,23.2719 50.3424,23.3719 C49.3474,23.7899 48.2444,24.1609 47.0444,24.4929 C46.4984,24.6489 45.9324,24.7939 45.3484,24.9319 C44.7814,25.0569 44.2054,25.1839 43.6104,25.2919 C43.1824,25.3789 42.7424,25.4569 42.2934,25.5259 C42.2344,25.5359 42.1764,25.5459 42.1184,25.5559 C41.7194,25.6149 41.3084,25.6709 40.8894,25.7319 L40.8684,25.7319 C40.3814,25.7999 39.8944,25.8589 39.3964,25.9069 C38.8994,25.9549 38.3934,26.0039 37.8854,26.0429 C37.4944,26.0819 37.0964,26.1019 36.6854,26.1309 C35.5344,26.1899 34.3434,26.2289 33.1454,26.2289 C32.3454,26.2289 31.5534,26.2099 30.7744,26.1789 C30.4334,26.1699 30.1014,26.1509 29.7714,26.1399 C29.7094,26.1309 29.6614,26.1309 29.6134,26.1309 C29.2044,26.1019 28.8034,26.0819 28.4044,26.0429 C27.8974,26.0039 27.3994,25.9549 26.9014,25.9069 C26.4034,25.8589 25.9164,25.7999 25.4294,25.7319 C25.0104,25.6829 24.5994,25.6149 24.1904,25.5559 C24.1214,25.5459 24.0634,25.5359 24.0044,25.5259 C23.5374,25.4489 23.0884,25.3709 22.6384,25.2819 C21.7804,25.1269 20.9524,24.9409 20.1604,24.7359 C19.8584,24.6579 19.5564,24.5809 19.2544,24.4929 C18.0554,24.1609 16.9434,23.7799 15.9384,23.3609 C15.6934,23.2629 15.4604,23.1559 15.2274,23.0579 C14.8564,22.8929 14.4954,22.7169 14.1634,22.5329 C14.0744,22.4829 13.9784,22.4339 13.8894,22.3859 C13.6934,22.2789 13.5084,22.1699 13.3224,22.0639 C13.3154,22.0429 13.2944,22.0429 13.2844,22.0349 C11.3144,20.8149 10.1064,19.3999 9.9484,17.8879 L9.9414,17.8879 L9.9414,17.8789 C9.9284,17.7619 9.9204,17.6349 9.9204,17.5189 Z" id="Stroke-111" stroke="#000000" stroke-width="1.3"></path>
                <path d="M9.9204,34.7054 C9.9204,33.1644 11.0024,31.7004 12.8864,30.4424 L12.8944,30.4424 C12.9134,30.4224 12.9244,30.4134 12.9444,30.4034 C13.1884,30.5784 13.4494,30.7344 13.7334,30.8914 C13.8684,30.9794 14.0164,31.0574 14.1634,31.1254 C14.4554,31.2924 14.7574,31.4364 15.0694,31.5734 C15.2274,31.6524 15.3824,31.7294 15.5474,31.7884 C16.0364,32.0134 16.5634,32.2174 17.1084,32.4024 C17.6444,32.6064 18.2204,32.7934 18.8154,32.9584 C19.0104,33.0274 19.2054,33.0854 19.4114,33.1344 C20.4244,33.4174 21.4984,33.6604 22.6384,33.8754 C23.0884,33.9634 23.5374,34.0414 24.0044,34.1194 C24.0324,34.1294 24.0724,34.1294 24.1104,34.1394 C24.5404,34.2064 24.9804,34.2664 25.4294,34.3234 C25.9064,34.3924 26.4034,34.4504 26.9014,34.5004 C27.3994,34.5584 27.8974,34.5984 28.4044,34.6374 C28.8034,34.6754 29.2044,34.6944 29.6134,34.7254 C29.6614,34.7254 29.7094,34.7254 29.7714,34.7334 C30.1014,34.7454 30.4334,34.7634 30.7744,34.7724 C31.5534,34.8024 32.3454,34.8224 33.1454,34.8224 C34.3434,34.8224 35.5344,34.7834 36.6854,34.7254 C37.0854,34.6944 37.4844,34.6754 37.8854,34.6374 C38.3934,34.5984 38.8994,34.5584 39.3964,34.5004 C39.8944,34.4504 40.3924,34.3924 40.8684,34.3234 L40.8894,34.3234 C41.3284,34.2664 41.7684,34.2064 42.1964,34.1394 C42.2254,34.1294 42.2554,34.1294 42.2934,34.1194 C42.7424,34.0524 43.1824,33.9734 43.6104,33.8854 C45.6704,33.5044 47.5524,32.9984 49.1994,32.4024 C49.3854,32.3444 49.5704,32.2754 49.7354,32.2084 C49.9104,32.1494 50.0854,32.0814 50.2534,32.0034 C50.4284,31.9344 50.5934,31.8664 50.7614,31.7884 C50.9264,31.7204 51.0834,31.6524 51.2384,31.5734 C51.5614,31.4364 51.8534,31.2804 52.1454,31.1254 C52.5844,30.9004 52.9924,30.6574 53.3634,30.4034 C54.7194,31.3014 55.6664,32.2954 56.0964,33.3584 C56.2804,33.7984 56.3774,34.2464 56.3774,34.7054 C56.3774,36.8114 54.3894,38.7424 51.0734,40.2444 C50.3704,40.5664 49.5984,40.8694 48.7714,41.1524 C48.4964,41.2394 48.2144,41.3374 47.9224,41.4254 C47.1124,41.6794 46.2444,41.9124 45.3484,42.1184 C44.7814,42.2454 44.2054,42.3714 43.6104,42.4784 C43.1824,42.5664 42.7424,42.6444 42.2934,42.7144 C41.7094,42.8104 41.1034,42.8974 40.5004,42.9664 C40.1384,43.0154 39.7674,43.0634 39.3964,43.0934 C39.0564,43.1334 38.7134,43.1614 38.3624,43.1894 C36.6854,43.3374 34.9404,43.4154 33.1454,43.4154 C32.3454,43.4154 31.5534,43.3954 30.7744,43.3664 C30.4134,43.3574 30.0634,43.3374 29.7094,43.3174 C29.0394,43.2784 28.3744,43.2284 27.7224,43.1724 C27.4374,43.1514 27.1654,43.1224 26.9014,43.0934 C26.5304,43.0634 26.1604,43.0154 25.7994,42.9664 C25.1854,42.8894 24.5914,42.8104 24.0044,42.7144 C23.5374,42.6444 23.0884,42.5584 22.6384,42.4704 C21.7804,42.3124 20.9524,42.1274 20.1604,41.9234 C19.8584,41.8444 19.5564,41.7674 19.2544,41.6794 C18.9894,41.6104 18.7284,41.5334 18.4644,41.4554 C18.1314,41.3484 17.8094,41.2504 17.5094,41.1424 C16.6904,40.8584 15.9284,40.5664 15.2274,40.2444 C14.7574,40.0314 14.3084,39.8054 13.8894,39.5714 C13.6934,39.4654 13.5084,39.3564 13.3224,39.2494 C13.3154,39.2314 13.2944,39.2314 13.2844,39.2214 C11.8214,38.3234 10.7864,37.3104 10.2804,36.2354 C10.0474,35.7384 9.9204,35.2214 9.9204,34.7054 Z" id="Stroke-113" stroke="#000000" stroke-width="1.3"></path>
                <path d="M12.5229,13.0209 C12.6319,13.0999 12.7489,13.1769 12.8659,13.2649 C12.7489,13.1869 12.6319,13.1099 12.5229,13.0209 Z" id="Stroke-115" stroke="#000000" stroke-width="1.3"></path>
                <path d="M12.1137,12.7084 C12.2407,12.8164 12.3877,12.9244 12.5227,13.0204 C12.3787,12.9334 12.2407,12.8254 12.1137,12.7084 Z" id="Stroke-117" stroke="#000000" stroke-width="1.3"></path>
                <path d="M11.3833,12.056 C11.6063,12.281 11.8403,12.495 12.1133,12.708 C11.8403,12.504 11.5963,12.289 11.3833,12.056 Z" id="Stroke-119" stroke="#000000" stroke-width="1.3"></path>
                <path d="M48.771,41.1527 C49.59,40.8797 50.36,40.5777 51.074,40.2447 C51.932,39.8647 52.694,39.4447 53.364,39.0057 C55.286,40.2747 56.377,41.7377 56.377,43.3077 C56.377,44.0597 56.126,44.7997 55.639,45.4927 C53.051,49.2487 43.961,52.0177 33.145,52.0177 C20.328,52.0177 9.92,48.1167 9.92,43.3077 C9.92,41.7377 11.022,40.2747 12.945,39.0057 C13.051,39.0847 13.167,39.1527 13.285,39.2207" id="Stroke-121" stroke="#000000" stroke-width="1.3"></path>
                <path d="M45.3481,42.1185 C46.2541,41.9125 47.1131,41.6795 47.9221,41.4255" id="Stroke-123" stroke="#000000" stroke-width="1.3"></path>
                <path d="M29.7094,43.3177 C30.0634,43.3377 30.4134,43.3577 30.7734,43.3667" id="Stroke-125" stroke="#000000" stroke-width="1.3"></path>
                <path d="M18.4643,41.4554 C18.7183,41.5334 18.9823,41.6104 19.2543,41.6794 C19.5463,41.7674 19.8583,41.8444 20.1603,41.9234" id="Stroke-127" stroke="#000000" stroke-width="1.3"></path>
                <path d="M13.3227,39.2494 C13.5087,39.3564 13.6937,39.4654 13.8887,39.5714 C14.3077,39.8054 14.7477,40.0314 15.2267,40.2444 C15.9277,40.5664 16.6897,40.8694 17.5097,41.1424" id="Stroke-129" stroke="#000000" stroke-width="1.3"></path>
                <path d="M29.771,34.7337 C30.101,34.7457 30.433,34.7627 30.774,34.7727" id="Stroke-131" stroke="#000000" stroke-width="1.3"></path>
                <path d="M12.894,30.4427 C12.914,30.4217 12.924,30.4137 12.945,30.4037" id="Stroke-133" stroke="#000000" stroke-width="1.3"></path>
                <path d="M53.3637,30.4037 C54.7187,31.3007 55.6667,32.2957 56.0957,33.3587 C56.2807,33.7987 56.3777,34.2467 56.3777,34.7057 C56.3777,36.8117 54.3887,38.7427 51.0737,40.2447 C50.3707,40.5667 49.5977,40.8697 48.7707,41.1527 C48.4967,41.2397 48.2147,41.3377 47.9227,41.4247 C47.1127,41.6787 46.2447,41.9127 45.3477,42.1187 C44.7817,42.2457 44.2057,42.3717 43.6107,42.4787 C43.1817,42.5667 42.7427,42.6447 42.2937,42.7147 C41.7097,42.8097 41.1027,42.8977 40.5007,42.9667 C40.1377,43.0147 39.7667,43.0537 39.3957,43.0927 C39.0557,43.1337 38.7137,43.1617 38.3627,43.1897 C36.6847,43.3377 34.9397,43.4157 33.1447,43.4157 C32.3447,43.4157 31.5527,43.3957 30.7737,43.3667 C30.4137,43.3577 30.0627,43.3377 29.7097,43.3177 C29.0397,43.2787 28.3747,43.2287 27.7217,43.1727 C27.4477,43.1517 27.1767,43.1227 26.9017,43.0927 C26.5307,43.0537 26.1607,43.0147 25.7997,42.9667 C25.1847,42.8887 24.5917,42.8097 24.0047,42.7147 C23.5377,42.6347 23.0887,42.5577 22.6377,42.4697 C21.7807,42.3127 20.9527,42.1277 20.1607,41.9237 C19.8577,41.8437 19.5557,41.7667 19.2547,41.6787 C18.9897,41.6107 18.7277,41.5337 18.4647,41.4557 C18.1317,41.3477 17.8087,41.2507 17.5097,41.1417 C16.6897,40.8587 15.9277,40.5667 15.2267,40.2447 C14.7577,40.0317 14.3077,39.8047 13.8887,39.5717 C13.6937,39.4657 13.5087,39.3567 13.3227,39.2497 C13.3147,39.2317 13.2947,39.2317 13.2847,39.2207 C11.8217,38.3237 10.7867,37.3097 10.2807,36.2357 C10.0477,35.7387 9.9207,35.2207 9.9207,34.7057 C9.9207,33.1647 11.0027,31.7007 12.8857,30.4427" id="Stroke-135" stroke="#000000" stroke-width="1.3"></path>
                <path d="M50.3423,23.3714 C50.5933,23.2714 50.8373,23.1654 51.0733,23.0584 C51.4513,22.8924 51.8053,22.7174 52.1453,22.5324 C52.5843,22.3074 52.9923,22.0634 53.3633,21.8194 C55.2853,23.0884 56.3773,24.5514 56.3773,26.1104 C56.3773,26.5024 56.3123,26.8924 56.1743,27.2624 C55.7833,28.3934 54.8083,29.4574 53.3633,30.4034 C52.9923,30.6574 52.5843,30.9004 52.1453,31.1254 C51.8533,31.2804 51.5613,31.4364 51.2383,31.5734 C51.0833,31.6524 50.9263,31.7204 50.7613,31.7884 C50.5933,31.8664 50.4283,31.9344 50.2533,32.0034 C50.0853,32.0814 49.9103,32.1494 49.7363,32.2084 C49.5713,32.2754 49.3853,32.3444 49.1993,32.4024 C47.5523,32.9984 45.6703,33.5044 43.6113,33.8854 C43.1823,33.9734 42.7423,34.0524 42.2933,34.1194 C42.2553,34.1294 42.2253,34.1294 42.1963,34.1394 C41.7683,34.2064 41.3283,34.2664 40.8893,34.3234 L40.8683,34.3234 C40.3923,34.3924 39.8943,34.4504 39.3963,34.5004 C38.8993,34.5584 38.3933,34.5984 37.8853,34.6374 C37.4853,34.6754 37.0853,34.6944 36.6853,34.7254 C35.5343,34.7834 34.3433,34.8224 33.1453,34.8224 C32.3453,34.8224 31.5533,34.8024 30.7743,34.7724 C30.4333,34.7634 30.1013,34.7454 29.7713,34.7334 C29.7093,34.7254 29.6613,34.7254 29.6133,34.7254 C29.2043,34.6944 28.8033,34.6754 28.4053,34.6374 C27.8973,34.5984 27.3993,34.5584 26.9023,34.5004 C26.4043,34.4504 25.9063,34.3924 25.4293,34.3234 C24.9803,34.2664 24.5403,34.2064 24.1113,34.1394 C24.0723,34.1294 24.0323,34.1294 24.0043,34.1194 C23.5373,34.0414 23.0883,33.9634 22.6383,33.8754 C21.4983,33.6604 20.4243,33.4174 19.4113,33.1344 C19.2053,33.0854 19.0103,33.0274 18.8153,32.9584 C18.2203,32.7934 17.6443,32.6064 17.1093,32.4024 C16.5633,32.2174 16.0363,32.0134 15.5473,31.7884 C15.3823,31.7294 15.2273,31.6524 15.0703,31.5734 C14.7573,31.4364 14.4553,31.2924 14.1633,31.1254 C14.0163,31.0574 13.8683,30.9794 13.7343,30.8914 C13.4493,30.7344 13.1883,30.5784 12.9453,30.4034 C11.0223,29.1444 9.9203,27.6814 9.9203,26.1104 C9.9203,25.4084 10.1443,24.7254 10.5553,24.0824" id="Stroke-137" stroke="#000000" stroke-width="1.3"></path>
                <path d="M45.3481,24.932 C45.9321,24.794 46.4981,24.649 47.0441,24.493" id="Stroke-139" stroke="#000000" stroke-width="1.3"></path>
                <path d="M29.771,26.14 C30.101,26.151 30.433,26.17 30.774,26.179" id="Stroke-141" stroke="#000000" stroke-width="1.3"></path>
                <path d="M19.2544,24.4925 C19.5464,24.5815 19.8584,24.6575 20.1604,24.7355" id="Stroke-143" stroke="#000000" stroke-width="1.3"></path>
                <path d="M14.1635,22.5326 C14.4955,22.7176 14.8555,22.8826 15.2265,23.0576 C15.4505,23.1656 15.6935,23.2626 15.9375,23.3606" id="Stroke-145" stroke="#000000" stroke-width="1.3"></path>
                <path d="M13.3227,22.0638 C13.5087,22.1698 13.6937,22.2788 13.8887,22.3858" id="Stroke-147" stroke="#000000" stroke-width="1.3"></path>
                <path d="M10.563,24.0824 C11.071,23.2714 11.88,22.5214 12.945,21.8194 C13.051,21.8974 13.167,21.9664 13.285,22.0344" id="Stroke-149" stroke="#000000" stroke-width="1.3"></path>
                <path d="M51.9321,14.1429 C52.0971,14.0659 52.2541,13.9779 52.3991,13.8889" id="Stroke-151" stroke="#000000" stroke-width="1.3"></path>
                <path d="M51.0737,14.5619 C51.2597,14.4739 51.4437,14.3869 51.6197,14.2989" id="Stroke-153" stroke="#000000" stroke-width="1.3"></path>
                <path d="M45.1909,16.474 C46.1449,16.261 47.0639,16.016 47.9219,15.743 C48.2049,15.664 48.4889,15.568 48.7599,15.468 C49.0449,15.382 49.3059,15.285 49.5709,15.176 C49.8349,15.089 50.0859,14.993 50.3329,14.884 L50.3419,14.874" id="Stroke-155" stroke="#000000" stroke-width="1.3"></path>
                <path d="M35.5239,17.6839 C35.8749,17.6749 36.2169,17.6549 36.5579,17.6449" id="Stroke-157" stroke="#000000" stroke-width="1.3"></path>
                <path d="M29.7094,17.6351 C30.0634,17.6551 30.4134,17.6751 30.7734,17.6841" id="Stroke-159" stroke="#000000" stroke-width="1.3"></path>
                <path d="M19.3432,16.0257 C19.6042,16.1027 19.8782,16.1717 20.1602,16.2407 C20.4732,16.3277 20.7842,16.4057 21.1082,16.4737" id="Stroke-161" stroke="#000000" stroke-width="1.3"></path>
                <path d="M18.3755,15.7425 C18.6595,15.8305 18.9515,15.9185 19.2545,15.9965" id="Stroke-163" stroke="#000000" stroke-width="1.3"></path>
                <path d="M16.728,15.1761 C16.992,15.2841 17.266,15.3821 17.538,15.4681 C17.744,15.5471 17.949,15.6071 18.152,15.6741" id="Stroke-165" stroke="#000000" stroke-width="1.3"></path>
                <path d="M14.5444,14.2308 C14.7674,14.3488 14.9904,14.4558 15.2274,14.5618" id="Stroke-167" stroke="#000000" stroke-width="1.3"></path>
                <path d="M13.8989,13.889 C14.1049,14.006 14.3079,14.114 14.5239,14.222" id="Stroke-169" stroke="#000000" stroke-width="1.3"></path>
                <path d="M9.9409,17.888 L9.9409,17.879 C9.9279,17.762 9.9199,17.635 9.9199,17.519 C9.9199,15.978 10.9919,14.533 12.8659,13.265" id="Stroke-171" stroke="#000000" stroke-width="1.3"></path>
                <path d="M53.4321,13.265 C55.3061,14.533 56.3771,15.978 56.3771,17.519 C56.3771,18.747 55.6951,19.927 54.4581,20.981 C53.8241,21.536 53.0511,22.053 52.1451,22.533 C51.8051,22.707 51.4441,22.882 51.0741,23.058 C50.8371,23.165 50.5931,23.272 50.3421,23.371 C49.3471,23.79 48.2451,24.161 47.0441,24.493 C46.4981,24.649 45.9321,24.794 45.3481,24.932 C44.7821,25.057 44.2051,25.184 43.6111,25.292 C43.1821,25.379 42.7431,25.457 42.2931,25.526 C42.2351,25.536 42.1761,25.546 42.1191,25.556 C41.7091,25.623 41.3081,25.683 40.8891,25.732 L40.8691,25.732 C40.3921,25.8 39.8941,25.859 39.3961,25.907 C38.8991,25.965 38.3931,26.004 37.8851,26.043 C37.4851,26.081 37.0851,26.102 36.6851,26.131 C35.5351,26.19 34.3431,26.229 33.1451,26.229 C32.3451,26.229 31.5531,26.21 30.7741,26.179 C30.4331,26.17 30.1011,26.151 29.7711,26.14 C29.7091,26.131 29.6611,26.131 29.6141,26.131 C29.2041,26.102 28.8031,26.081 28.4051,26.043 C27.8971,26.004 27.3991,25.965 26.9021,25.907 C26.4041,25.859 25.9071,25.8 25.4291,25.732 C25.0101,25.683 24.5911,25.623 24.1901,25.556 C24.1211,25.546 24.0631,25.536 24.0041,25.526 C23.5371,25.449 23.0881,25.37 22.6381,25.282 C21.7811,25.127 20.9531,24.941 20.1611,24.736 C19.8581,24.658 19.5561,24.581 19.2541,24.493 C18.0551,24.161 16.9441,23.78 15.9381,23.361 C15.6941,23.263 15.4601,23.156 15.2271,23.058 C14.8561,22.893 14.4951,22.717 14.1631,22.533 C14.0751,22.483 13.9781,22.434 13.8891,22.386 C13.6941,22.279 13.5081,22.17 13.3231,22.064 C13.3151,22.043 13.2941,22.043 13.2851,22.035 C11.3141,20.815 10.1061,19.4 9.9491,17.888" id="Stroke-173" stroke="#000000" stroke-width="1.3"></path>
                <path d="M11.3725,12.056 C10.4285,11.109 9.9205,10.085 9.9205,9.022 C9.9205,5.325 16.0855,2.155 24.7765,0.897 C27.3685,0.516 30.1895,0.312 33.1445,0.312 C45.9795,0.312 56.3775,4.213 56.3775,9.022 C56.3775,9.167 56.3695,9.324 56.3505,9.471 C56.1645,10.846 55.1315,12.133 53.4325,13.265 C53.1125,13.479 52.7695,13.695 52.3985,13.889 C52.2545,13.978 52.0975,14.066 51.9325,14.143 C51.8325,14.202 51.7265,14.249 51.6195,14.299 C51.4435,14.387 51.2595,14.474 51.0735,14.562 C50.8375,14.67 50.5935,14.777 50.3425,14.874 C50.3425,14.874 50.3425,14.884 50.3325,14.884 C50.0855,14.982 49.8345,15.08 49.5705,15.176 C49.3065,15.276 49.0445,15.372 48.7605,15.468 C48.4885,15.557 48.2145,15.655 47.9225,15.743 C47.0635,16.007 46.1575,16.25 45.1905,16.474 C44.6725,16.592 44.1375,16.699 43.5805,16.805 C43.1825,16.884 42.7705,16.952 42.3515,17.021 C41.9535,17.088 41.5415,17.148 41.1335,17.205 C40.9885,17.226 40.8415,17.244 40.6935,17.265 C40.3335,17.313 39.9735,17.353 39.6015,17.392 C39.5035,17.401 39.4065,17.41 39.3175,17.419 C38.8505,17.469 38.3935,17.508 37.9135,17.546 C37.4665,17.586 37.0175,17.616 36.5585,17.645 C36.2175,17.655 35.8665,17.675 35.5235,17.684 C34.7445,17.713 33.9445,17.734 33.1445,17.734 C32.3455,17.734 31.5535,17.713 30.7735,17.684 C30.4135,17.675 30.0625,17.655 29.7095,17.635 C29.2635,17.616 28.8235,17.586 28.3845,17.546 C27.9175,17.508 27.4475,17.469 26.9795,17.419 C26.8915,17.41 26.7955,17.401 26.7065,17.392 C26.2875,17.353 25.8785,17.303 25.4765,17.244 C25.3705,17.236 25.2645,17.215 25.1645,17.205 C24.7565,17.148 24.3475,17.088 23.9565,17.021 C23.5175,16.952 23.0885,16.873 22.6695,16.796 C22.1335,16.699 21.6155,16.592 21.1075,16.474 C20.7845,16.397 20.4735,16.318 20.1605,16.241 C19.8895,16.172 19.6145,16.103 19.3435,16.026 C19.3115,16.016 19.2845,16.007 19.2545,15.996 C18.9625,15.918 18.6705,15.83 18.3755,15.743 C18.2995,15.713 18.2205,15.695 18.1515,15.674 C17.9355,15.607 17.7325,15.538 17.5375,15.468 C17.2665,15.372 16.9915,15.276 16.7275,15.176 C16.2015,14.982 15.7045,14.777 15.2265,14.562 C14.9905,14.455 14.7575,14.349 14.5445,14.231 C14.5335,14.231 14.5335,14.231 14.5235,14.222 C14.3085,14.114 14.1045,14.006 13.8985,13.889 C13.5685,13.714 13.2645,13.529 12.9725,13.333" id="Stroke-175" stroke="#000000" stroke-width="1.3"></path>
                <path d="M12.8657,13.265 C12.7487,13.187 12.6327,13.11 12.5227,13.021 C12.3787,12.933 12.2407,12.826 12.1137,12.708 C11.8407,12.504 11.5957,12.289 11.3837,12.056" id="Stroke-177" stroke="#000000" stroke-width="1.3"></path>
                <path d="M74.5317,37.2894 C74.9407,37.0754 75.3217,36.8614 75.6647,36.6374 C77.0277,37.5434 77.8097,38.5774 77.8097,39.6994 C77.8097,43.1134 70.4267,45.8734 61.3237,45.8734 C59.3257,45.8734 57.4137,45.7364 55.6387,45.4924" id="Stroke-179" stroke="#000000" stroke-width="1.3"></path>
                <path d="M73.8286,37.6215 C74.0546,37.5145 74.2776,37.4165 74.4836,37.3095" id="Stroke-181" stroke="#000000" stroke-width="1.3"></path>
                <path d="M73.0971,37.9134 C73.3411,37.8154 73.5751,37.7284 73.8111,37.6214" id="Stroke-183" stroke="#000000" stroke-width="1.3"></path>
                <path d="M70.6391,38.6947 C70.9421,38.6177 71.2261,38.5387 71.5081,38.4507" id="Stroke-185" stroke="#000000" stroke-width="1.3"></path>
                <path d="M66.8052,39.4261 C66.8742,39.4171 66.9322,39.4061 66.9912,39.3971" id="Stroke-187" stroke="#000000" stroke-width="1.3"></path>
                <path d="M65.4399,39.5824 C65.7129,39.5534 65.9669,39.5234 66.2319,39.4944" id="Stroke-189" stroke="#000000" stroke-width="1.3"></path>
                <path d="M63.5884,39.7191 C63.8024,39.7091 64.0074,39.6991 64.2104,39.6801" id="Stroke-191" stroke="#000000" stroke-width="1.3"></path>
                <path d="M62.1743,39.767 C62.3873,39.767 62.6013,39.757 62.8063,39.757" id="Stroke-193" stroke="#000000" stroke-width="1.3"></path>
                <path d="M75.6645,30.5404 C77.0275,31.4464 77.8105,32.4814 77.8105,33.5924 C77.8105,34.7054 77.0275,35.7484 75.6645,36.6374 C75.3215,36.8704 74.9405,37.0844 74.5315,37.2894 C74.5215,37.2994 74.5015,37.3104 74.4835,37.3104 C74.2775,37.4164 74.0615,37.5234 73.8285,37.6214 L73.8105,37.6214 C73.5845,37.7284 73.3415,37.8264 73.0975,37.9134 C72.6005,38.1094 72.0735,38.2844 71.5085,38.4504 C71.2265,38.5384 70.9415,38.6174 70.6395,38.6944 C69.5175,38.9864 68.2885,39.2214 66.9905,39.3964 C66.9325,39.4064 66.8745,39.4174 66.8055,39.4264 C66.6205,39.4564 66.4245,39.4754 66.2315,39.4944 C65.9675,39.5324 65.7035,39.5534 65.4395,39.5824 C65.0405,39.6214 64.6295,39.6504 64.2105,39.6804 C64.0075,39.6994 63.8025,39.7094 63.5885,39.7194 C63.3325,39.7284 63.0705,39.7484 62.8065,39.7574 C62.5935,39.7574 62.3875,39.7674 62.1745,39.7674 C61.8905,39.7754 61.6075,39.7754 61.3235,39.7754 C58.4465,39.7754 55.7255,39.5044 53.3635,39.0054" id="Stroke-195" stroke="#000000" stroke-width="1.3"></path>
                <path d="M73.8286,31.5238 C74.0546,31.4178 74.2776,31.3198 74.4836,31.2128" id="Stroke-197" stroke="#000000" stroke-width="1.3"></path>
                <path d="M73.0971,31.8177 C73.3411,31.7297 73.5751,31.6317 73.8111,31.5237" id="Stroke-199" stroke="#000000" stroke-width="1.3"></path>
                <path d="M70.6391,32.598 C70.9421,32.52 71.2261,32.442 71.5081,32.355" id="Stroke-201" stroke="#000000" stroke-width="1.3"></path>
                <path d="M66.8052,33.3294 C66.8742,33.3204 66.9322,33.3084 66.9912,33.3004" id="Stroke-203" stroke="#000000" stroke-width="1.3"></path>
                <path d="M65.4399,33.4857 C65.7129,33.4567 65.9669,33.4267 66.2319,33.3967" id="Stroke-205" stroke="#000000" stroke-width="1.3"></path>
                <path d="M62.4663,33.6605 C62.8443,33.6515 63.2153,33.6415 63.5883,33.6225 C63.8023,33.6125 64.0073,33.6035 64.2103,33.5835" id="Stroke-207" stroke="#000000" stroke-width="1.3"></path>
                <path d="M75.6645,24.4339 C77.0275,25.3399 77.8105,26.3849 77.8105,27.4969 C77.8105,28.6099 77.0275,29.6429 75.6645,30.5399 C75.3105,30.7849 74.9125,31.0089 74.4835,31.2129 C74.2775,31.3199 74.0615,31.4169 73.8285,31.5239 L73.8105,31.5239 C73.5845,31.6319 73.3415,31.7299 73.0975,31.8179 C72.6005,32.0129 72.0735,32.1879 71.5085,32.3549 C71.2265,32.4419 70.9415,32.5199 70.6395,32.5979 C69.5175,32.8899 68.2885,33.1249 66.9905,33.2999 C66.9325,33.3089 66.8745,33.3209 66.8055,33.3299 C66.6205,33.3589 66.4245,33.3789 66.2315,33.3969 C65.9675,33.4359 65.7035,33.4559 65.4395,33.4859 C65.0405,33.5249 64.6295,33.5539 64.2105,33.5829 C64.0075,33.6039 63.8025,33.6129 63.5885,33.6219 C63.2155,33.6419 62.8445,33.6609 62.4665,33.6609 C62.0855,33.6709 61.7045,33.6799 61.3235,33.6799 C59.5005,33.6799 57.7435,33.5649 56.0965,33.3589" id="Stroke-209" stroke="#000000" stroke-width="1.3"></path>
                <path d="M73.8286,25.4193 C74.0546,25.3133 74.2776,25.2143 74.4836,25.1073" id="Stroke-211" stroke="#000000" stroke-width="1.3"></path>
                <path d="M73.0971,25.7113 C73.3411,25.6233 73.5751,25.5253 73.8111,25.4193" id="Stroke-213" stroke="#000000" stroke-width="1.3"></path>
                <path d="M70.6391,26.4916 C70.9421,26.4146 71.2261,26.3356 71.5081,26.2486" id="Stroke-215" stroke="#000000" stroke-width="1.3"></path>
                <path d="M66.8052,27.224 C66.8742,27.214 66.9322,27.204 66.9912,27.194" id="Stroke-217" stroke="#000000" stroke-width="1.3"></path>
                <path d="M65.4399,27.3792 C65.7129,27.3512 65.9669,27.3202 66.2319,27.2912" id="Stroke-219" stroke="#000000" stroke-width="1.3"></path>
                <path d="M62.4663,27.556 C62.8443,27.544 63.2153,27.535 63.5883,27.516 C63.7913,27.506 64.0073,27.496 64.2023,27.477" id="Stroke-221" stroke="#000000" stroke-width="1.3"></path>
                <path d="M75.7124,18.3773 C77.0584,19.2743 77.8104,20.2983 77.8104,21.3913 C77.8104,22.5013 77.0274,23.5363 75.6644,24.4343 C75.3114,24.6783 74.9124,24.9003 74.4834,25.1063 C74.2774,25.2143 74.0624,25.3133 73.8284,25.4193 L73.8114,25.4193 C73.5844,25.5253 73.3414,25.6233 73.0974,25.7113 C72.6004,25.9063 72.0734,26.0813 71.5084,26.2483 C71.2264,26.3353 70.9414,26.4143 70.6394,26.4913 C69.5174,26.7853 68.2884,27.0193 66.9904,27.1933 C66.9324,27.2043 66.8744,27.2143 66.8054,27.2243 C66.6204,27.2523 66.4244,27.2733 66.2324,27.2913 C65.9674,27.3313 65.7034,27.3513 65.4404,27.3793 C65.0304,27.4183 64.6214,27.4563 64.2024,27.4773 C63.9974,27.4963 63.7914,27.5063 63.5884,27.5163 C63.2154,27.5353 62.8444,27.5563 62.4664,27.5563 C62.0854,27.5653 61.7044,27.5743 61.3234,27.5743 C59.5214,27.5743 57.7944,27.4683 56.1744,27.2623" id="Stroke-223" stroke="#000000" stroke-width="1.3"></path>
                <path d="M74.9888,18.8148 C75.1358,18.7378 75.2728,18.6608 75.4078,18.5718" id="Stroke-225" stroke="#000000" stroke-width="1.3"></path>
                <path d="M72.4067,19.9369 C72.6577,19.8499 72.9117,19.7619 73.1457,19.6649 C73.3717,19.5869 73.5847,19.4989 73.8007,19.3999" id="Stroke-227" stroke="#000000" stroke-width="1.3"></path>
                <path d="M66.2973,21.2533 C66.5333,21.2343 66.7673,21.2043 66.9903,21.1663" id="Stroke-229" stroke="#000000" stroke-width="1.3"></path>
                <path d="M62.4741,21.5267 C62.8551,21.5167 63.2251,21.5067 63.6061,21.4877" id="Stroke-231" stroke="#000000" stroke-width="1.3"></path>
                <path d="M56.3501,9.471 C57.9181,9.285 59.5871,9.179 61.3241,9.179 C70.4261,9.179 77.8101,11.948 77.8101,15.363 C77.8101,16.454 77.0481,17.489 75.7121,18.377 C75.6141,18.445 75.5171,18.513 75.4081,18.572 C75.2811,18.65 75.1361,18.738 74.9891,18.815 C74.6281,19.021 74.2301,19.216 73.8001,19.4 C73.5951,19.488 73.3711,19.575 73.1461,19.664 C72.9121,19.762 72.6581,19.85 72.4071,19.937 C70.8451,20.473 69.0091,20.893 66.9911,21.166 C66.7671,21.204 66.5341,21.235 66.2971,21.253 C65.4321,21.362 64.5331,21.439 63.6061,21.488 C63.2361,21.507 62.8551,21.517 62.4741,21.527 C62.0951,21.536 61.7141,21.547 61.3241,21.547 C58.8761,21.547 56.5551,21.352 54.4651,20.991" id="Stroke-233" stroke="#000000" stroke-width="1.3"></path>
                <path d="M2.1352,27.4564 C0.7892,28.3744 0.0002,29.3984 0.0002,30.5104 C0.0002,33.0964 4.2532,35.3194 10.2812,36.2354" id="Stroke-235" stroke="#000000" stroke-width="1.3"></path>
                <path d="M2.5854,27.7308 C2.4384,27.6428 2.2824,27.5558 2.1464,27.4568" id="Stroke-237" stroke="#000000" stroke-width="1.3"></path>
                <path d="M5.2866,28.9408 C5.0916,28.8728 4.9056,28.8038 4.7206,28.7348" id="Stroke-239" stroke="#000000" stroke-width="1.3"></path>
                <path d="M6.0962,29.2035 C5.9212,29.1535 5.7432,29.0975 5.5782,29.0375" id="Stroke-241" stroke="#000000" stroke-width="1.3"></path>
                <path d="M2.146,21.3617 C0.79,22.2577 8.8817842e-16,23.3007 8.8817842e-16,24.4137 C8.8817842e-16,25.5167 0.78,26.5597 2.135,27.4567 L2.146,27.4567 C2.291,27.5557 2.438,27.6427 2.585,27.7307 C3.2,28.0907 3.911,28.4327 4.72,28.7347 C4.906,28.8037 5.091,28.8727 5.287,28.9407 C5.373,28.9787 5.472,29.0077 5.579,29.0377 C5.744,29.0967 5.921,29.1537 6.096,29.2037 C8.037,29.7997 10.36,30.2277 12.886,30.4427 L12.894,30.4427" id="Stroke-243" stroke="#000000" stroke-width="1.3"></path>
                <path d="M5.7358,22.9896 C5.6088,22.9516 5.4928,22.9116 5.3728,22.8736 C5.0708,22.7756 4.7788,22.6686 4.5068,22.5516 C3.9788,22.3466 3.4918,22.1226 3.0518,21.8866" id="Stroke-245" stroke="#000000" stroke-width="1.3"></path>
                <path d="M7.2954,23.4388 C7.0334,23.3718 6.7694,23.3008 6.5154,23.2338" id="Stroke-247" stroke="#000000" stroke-width="1.3"></path>
                <path d="M2.146,15.264 C0.79,16.161 8.8817842e-16,17.205 8.8817842e-16,18.308 C8.8817842e-16,19.42 0.78,20.463 2.146,21.362 C2.427,21.547 2.73,21.722 3.052,21.887 C3.492,22.122 3.979,22.347 4.507,22.551 C4.789,22.668 5.081,22.776 5.373,22.873 C5.493,22.911 5.617,22.951 5.736,22.99 C5.988,23.078 6.251,23.156 6.515,23.234 C6.769,23.301 7.034,23.371 7.295,23.439 C8.311,23.702 9.403,23.916 10.555,24.082 L10.563,24.082" id="Stroke-249" stroke="#000000" stroke-width="1.3"></path>
                <path d="M7.7719,17.4486 C7.4619,17.3816 7.1579,17.3126 6.8579,17.2156 C6.5359,17.1476 6.2309,17.0586 5.9289,16.9526 C5.0909,16.6986 4.3319,16.4056 3.6489,16.0836" id="Stroke-251" stroke="#000000" stroke-width="1.3"></path>
                <path d="M9.9487,17.888 L9.9407,17.888 C9.2857,17.782 8.6607,17.655 8.0567,17.519" id="Stroke-253" stroke="#000000" stroke-width="1.3"></path>
                <path d="M2.478,9.4408 C2.341,9.3638 2.214,9.2858 2.087,9.1968 C0.762,10.0938 4.4408921e-16,11.1088 4.4408921e-16,12.2118 C4.4408921e-16,13.3138 0.78,14.3578 2.146,15.2638 C2.585,15.5468 3.093,15.8218 3.649,16.0838 C4.332,16.3968 5.091,16.6888 5.929,16.9528 C6.223,17.0408 6.536,17.1368 6.858,17.2148 C7.158,17.3028 7.462,17.3718 7.772,17.4488 C7.861,17.4688 7.96,17.4988 8.057,17.5188 C8.661,17.6448 9.286,17.7718 9.941,17.8788 L9.949,17.8788" id="Stroke-255" stroke="#000000" stroke-width="1.3"></path>
                <path d="M4.8676,10.5628 C4.5656,10.4568 4.2806,10.3378 4.0096,10.2118 C3.7246,10.1048 3.4616,9.9778 3.2096,9.8418 C3.0826,9.7828 2.9556,9.7148 2.8396,9.6468 C2.7696,9.6178 2.7016,9.5778 2.6336,9.5298" id="Stroke-257" stroke="#000000" stroke-width="1.3"></path>
                <path d="M11.3725,12.056 C10.9645,12.006 10.5555,11.948 10.1645,11.881 C9.7635,11.831 9.3745,11.763 8.9935,11.685 C8.2225,11.539 7.4905,11.373 6.8075,11.177 C6.1165,11.002 5.4725,10.796 4.8775,10.563" id="Stroke-259" stroke="#000000" stroke-width="1.3"></path>
                <path d="M12.9721,13.3334 C12.9341,13.3044 12.8941,13.2844 12.8661,13.2654 C12.7481,13.1774 12.6321,13.1004 12.5231,13.0214 C12.3881,12.9244 12.2411,12.8164 12.1141,12.7084 C11.8401,12.4954 11.6061,12.2804 11.3831,12.0564" id="Stroke-261" stroke="#000000" stroke-width="1.3"></path>
                <path d="M24.9311,0.9945 C24.9101,0.9645 24.8631,0.9265 24.7771,0.8965 C23.6741,0.4575 17.2741,0.0005 16.4841,0.0005 C7.3841,0.0005 0.0001,2.7685 0.0001,6.1825 C0.0001,7.3745 0.9071,8.4965 2.4781,9.4405 C2.5351,9.4715 2.5851,9.4995 2.6331,9.5295 C2.7021,9.5675 2.7701,9.6065 2.8391,9.6465 C2.9551,9.7155 3.0821,9.7735 3.2091,9.8425 C3.4611,9.9675 3.7251,10.0945 4.0091,10.2125 C4.2811,10.3295 4.5661,10.4465 4.8681,10.5625 L4.8771,10.5625 C5.4721,10.7875 6.1241,10.9925 6.8071,11.1775 C7.5001,11.3625 8.2321,11.5395 8.9931,11.6845 C9.3741,11.7545 9.7631,11.8225 10.1641,11.8815 C10.5631,11.9475 10.9641,12.0065 11.3721,12.0565 L11.3831,12.0565" id="Stroke-263" stroke="#000000" stroke-width="1.3"></path>
            </g>
        </g>
    </g>
</svg>