<?xml version="1.0" encoding="UTF-8"?>
<svg width="43px" height="43px" viewBox="0 0 43 43" version="1.1" xmlns="http://www.w3.org/2000/svg" xmlns:xlink="http://www.w3.org/1999/xlink">
    <title>experience</title>
    <defs>
        <filter id="filter-1">
            <feColorMatrix in="SourceGraphic" type="matrix" values="0 0 0 0 0.000000 0 0 0 0 0.827451 0 0 0 0 0.658824 0 0 0 1.000000 0"></feColorMatrix>
        </filter>
    </defs>
    <g id="Page-1" stroke="none" stroke-width="1" fill="none" fill-rule="evenodd">
        <g filter="url(#filter-1)" id="experience">
            <g transform="translate(0.000000, 0.000000)">
                <path d="M1.717,22.894 L9.205,22.891 C9.367,25.755 9.981,28.533 11.033,31.155 C9.322,31.911 7.701,32.849 6.209,33.949 C3.578,30.788 2.029,26.977 1.717,22.894 L1.717,22.894 Z M5.586,9.562 C7.145,10.79 8.834,11.834 10.613,12.67 C9.658,15.412 9.168,18.291 9.154,21.237 L1.653,21.242 C1.678,16.994 3.035,12.963 5.586,9.562 L5.586,9.562 Z M17.785,1.969 C14.94,4.517 12.686,7.66 11.215,11.125 C9.59,10.353 8.051,9.398 6.631,8.283 C9.565,4.977 13.483,2.764 17.785,1.969 L17.785,1.969 Z M20.551,1.836 L20.551,13.456 C17.858,13.332 15.231,12.77 12.733,11.785 C14.387,7.872 17.08,4.444 20.551,1.836 L20.551,1.836 Z M22.203,30.574 C24.67,30.623 27.094,31.035 29.42,31.797 C27.791,35.256 25.309,38.324 22.203,40.71 L22.203,30.574 Z M22.203,22.883 L31.67,22.878 C31.518,25.435 30.979,27.919 30.067,30.272 C27.535,29.427 24.893,28.973 22.203,28.922 L22.203,22.883 Z M22.203,15.132 C25.033,15.077 27.815,14.565 30.481,13.608 C31.291,16.061 31.707,18.622 31.721,21.225 L22.203,21.231 L22.203,15.132 Z M22.203,2.01 C25.649,4.66 28.303,8.118 29.912,12.057 C27.434,12.945 24.844,13.422 22.203,13.477 L22.203,2.01 Z M36.375,8.563 C34.846,9.716 33.192,10.684 31.449,11.447 C29.973,7.827 27.651,4.555 24.688,1.918 C29.238,2.688 33.348,5.02 36.375,8.563 L36.375,8.563 Z M37.395,9.864 C39.793,13.195 41.072,17.112 41.102,21.221 L33.373,21.225 C33.36,18.411 32.906,15.645 32.022,12.999 C33.926,12.176 35.733,11.122 37.395,9.864 L37.395,9.864 Z M36.778,33.672 C35.182,32.538 33.447,31.589 31.617,30.846 C32.596,28.312 33.17,25.635 33.324,22.877 L41.041,22.873 C40.738,26.84 39.27,30.561 36.778,33.672 L36.778,33.672 Z M24.69,40.801 C27.381,38.415 29.494,35.582 30.981,32.37 C32.645,33.045 34.225,33.903 35.684,34.922 C32.738,38.03 28.877,40.089 24.69,40.801 L24.69,40.801 Z M20.551,21.231 L10.807,21.237 C10.821,18.522 11.268,15.864 12.139,13.329 C14.822,14.387 17.651,14.985 20.551,15.112 L20.551,21.231 Z M20.551,28.942 C17.805,29.059 15.121,29.594 12.567,30.535 C11.592,28.108 11.02,25.54 10.86,22.889 L20.551,22.885 L20.551,28.942 Z M20.551,40.883 C17.424,38.535 14.905,35.492 13.235,32.048 C15.58,31.197 18.037,30.708 20.551,30.594 L20.551,40.883 Z M7.324,35.18 C8.68,34.196 10.147,33.352 11.696,32.667 C13.166,35.742 15.209,38.454 17.783,40.75 C13.834,40.017 10.164,38.067 7.324,35.18 L7.324,35.18 Z M20.235,42.707 L22.287,42.713 C33.774,42.231 42.754,32.87 42.754,21.36 C42.754,9.851 33.772,0.492 22.285,0.007 L20.252,0 C20.244,0.004 20.24,0.009 20.233,0.014 C8.879,0.617 0,9.974 0,21.36 C0,32.747 8.879,42.106 20.235,42.707 L20.235,42.707 Z" id="Fill-1" fill="#007CCE" fill-rule="nonzero"></path>
            </g>
        </g>
    </g>
</svg>