<svg xmlns="http://www.w3.org/2000/svg" xmlns:xlink="http://www.w3.org/1999/xlink" width="70px" height="53px" viewBox="0 0 70 53" version="1.1">
    <title>iconmonstr-quote-8</title>
    <g id="Page-1" stroke="none" stroke-width="1" fill="none" fill-rule="evenodd">
        <g id="quote" transform="translate(-299.000000, -23.000000)" fill="#00BA94" fill-rule="nonzero">
            <g id="iconmonstr-quote-8" transform="translate(299.000000, 23.000000)">
                <path d="M14.315,41.2329167 C18.7016667,34.4954167 19.50375,28.25375 19.2179167,24.6429167 C1.33291667,24.9375 2.60458333,5.83333333 15.16375,5.83333333 C20.50125,5.83333333 26.25,9.73583333 26.25,18.3020833 C26.25,26.2470833 22.1316667,35.35 14.315,41.2329167 Z M52.2316667,41.2329167 C56.6183333,34.4954167 57.4204167,28.25375 57.1345833,24.6429167 C39.2495833,24.9375 40.52125,5.83333333 53.0804167,5.83333333 C58.4179167,5.83333333 64.1666667,9.73583333 64.1666667,18.3020833 C64.1666667,26.2470833 60.0483333,35.35 52.2316667,41.2329167 Z M2.91666667,52.5 C20.7316667,48.9825 32.0833333,33.2966667 32.0833333,18.3020833 C32.0833333,6.72291667 23.9575,0 15.16375,0 C7.53666667,0 0,5.24125 0,14.5220833 C0,22.1083333 5.55625,28.3966667 12.8216667,29.54 C12.18875,35.385 6.50708333,43.86375 0.0466666667,46.2991667 L2.91666667,52.5 L2.91666667,52.5 Z M40.8333333,52.5 C58.6483333,48.9825 70,33.2966667 70,18.3020833 C70,6.72291667 61.8741667,0 53.0804167,0 C45.4533333,0 37.9166667,5.24125 37.9166667,14.5220833 C37.9166667,22.1083333 43.4729167,28.3966667 50.7383333,29.54 C50.1054167,35.385 44.42375,43.86375 37.9633333,46.2991667 L40.8333333,52.5 L40.8333333,52.5 Z" id="Shape"/>
            </g>
        </g>
    </g>
</svg>