<?xml version="1.0" encoding="UTF-8"?>
<svg width="25px" height="24px" viewBox="0 0 25 24" version="1.1" xmlns="http://www.w3.org/2000/svg" xmlns:xlink="http://www.w3.org/1999/xlink">
    <title>icon-salary</title>
    <defs>
        <filter id="filter-1">
            <feColorMatrix in="SourceGraphic" type="matrix" values="0 0 0 0 0.000000 0 0 0 0 0.827451 0 0 0 0 0.658824 0 0 0 1.000000 0"></feColorMatrix>
        </filter>
    </defs>
    <g id="Page-1" stroke="none" stroke-width="1" fill="none" fill-rule="evenodd">
        <g filter="url(#filter-1)" id="icon-salary">
            <g transform="translate(-0.000000, 0.000000)">
                <path d="M4.94,19.407 C1.974,17.55 -8.8817842e-16,14.254 -8.8817842e-16,10.5 C-8.8817842e-16,4.705 4.705,0 10.5,0 C14.105,0 17.289,1.821 19.18,4.593 C22.146,6.45 24.12,9.746 24.12,13.5 C24.12,19.295 19.415,24 13.62,24 C10.021,24 6.842,22.185 4.95,19.421 L4.94,19.407 Z M13.62,4 C18.863,4 23.12,8.257 23.12,13.5 C23.12,18.743 18.863,23 13.62,23 C8.377,23 4.12,18.743 4.12,13.5 C4.12,8.257 8.377,4 13.62,4 Z M14.12,19 L13.099,19 L13.099,18.129 C10.756,17.827 10.5,15.95 10.5,15.385 L11.591,15.385 C11.616,15.79 11.748,17.159 13.773,17.159 C14.372,17.159 14.861,17.018 15.226,16.74 C15.587,16.464 15.762,16.128 15.762,15.711 C15.762,14.918 15.249,14.344 13.692,13.993 C11.324,13.457 10.769,12.595 10.769,11.46 C10.769,9.951 11.992,9.244 13.099,9.054 L13.099,8 L14.12,8 L14.12,9.015 C16.611,9.21 16.815,11.23 16.815,11.786 L15.717,11.786 C15.717,10.625 14.799,10.02 13.721,10.02 C12.644,10.02 11.867,10.552 11.867,11.428 C11.867,12.209 12.306,12.593 13.861,12.982 C15.74,13.455 16.86,14.083 16.86,15.663 C16.86,17.407 15.351,18.056 14.12,18.156 L14.12,19 L14.12,19 Z M16.97,3.547 C15.274,1.967 12.999,1 10.5,1 C5.257,1 1,5.257 1,10.5 C1,13.133 2.073,15.517 3.806,17.239 L3.802,17.229 C3.362,16.07 3.12,14.813 3.12,13.5 C3.12,7.705 7.825,3 13.62,3 C14.791,3 15.918,3.192 16.97,3.547 L16.97,3.547 Z" id="Shape" fill="#000000"></path>
            </g>
        </g>
    </g>
</svg>