<?xml version="1.0" encoding="UTF-8"?>
<svg width="16px" height="24px" viewBox="0 0 16 24" version="1.1" xmlns="http://www.w3.org/2000/svg" xmlns:xlink="http://www.w3.org/1999/xlink">
    <title>icon-phone</title>
    <g id="Page-1" stroke="none" stroke-width="1" fill="none" fill-rule="evenodd">
        <g id="icon-phone" fill="#00BA94">
            <path d="M4.20263238,1.289 L2.7338241,2.061 C-2.70658917,5.081 5.36152587,23.005 11.4771777,23.005 C11.9091802,23.005 12.3261564,22.911 12.7140195,22.721 L14.1621668,21.966 L11.4405514,16.372 L9.99428241,17.126 C9.82429884,17.213 9.63365429,17.26 9.43361838,17.26 C7.02849178,17.26 3.00899087,9.056 5.45074376,7.664 L6.9026476,6.901 L4.20263238,1.289 L4.20263238,1.289 Z M11.4771777,24 C6.14288679,24 0,12.886 0,6.168 C0,3.749 0.782300061,2.022 2.30745648,1.176 L4.54447778,0 L8.16672428,7.347 L5.87805052,8.548 C4.52663421,9.32 8.14042848,16.972 9.59327145,16.228 L11.8462581,15.049 L15.43,22.409 C15.43,22.409 13.2136397,23.571 13.1046999,23.624 C12.5909927,23.875 12.0444157,24 11.4771777,24" id="Shape"></path>
        </g>
    </g>
</svg>