<?xml version="1.0" encoding="UTF-8"?>
<svg width="80px" height="69px" viewBox="0 0 80 69" version="1.1" xmlns="http://www.w3.org/2000/svg" xmlns:xlink="http://www.w3.org/1999/xlink">
    <title>icon-usp3</title>
    <defs>
        <filter id="filter-1">
            <feColorMatrix in="SourceGraphic" type="matrix" values="0 0 0 0 0.000000 0 0 0 0 0.729412 0 0 0 0 0.580392 0 0 0 1.000000 0"></feColorMatrix>
        </filter>
    </defs>
    <g id="Page-1" stroke="none" stroke-width="1" fill="none" fill-rule="evenodd" stroke-linecap="round" stroke-linejoin="round">
        <g filter="url(#filter-1)" id="icon-usp3">
            <g transform="translate(1.000000, 1.000000)">
                <path d="M35.133,31.5207 C33.648,31.4037 32.234,31.3337 30.954,31.3337 L30.954,27.6547 L35.144,27.6547 L35.144,31.4607 L35.133,31.5207 Z" id="Stroke-1" stroke="#000000" stroke-width="1.3"></path>
                <path d="M41.9474,32.4856 C40.5714,32.2046 39.1754,31.9796 37.7894,31.8036 L37.7994,31.7446 L37.7994,22.3606 L41.9784,22.3606 L41.9784,32.3606 L41.9474,32.4856 Z" id="Stroke-3" stroke="#000000" stroke-width="1.3"></path>
                <path d="M48.8234,17.2932 L48.8234,34.1082 L48.6664,34.4802 C47.4474,33.9512 46.0794,33.5012 44.6444,33.1112 L44.6444,17.2932 L48.8234,17.2932 Z" id="Stroke-5" stroke="#000000" stroke-width="1.3"></path>
                <path d="M58.3244,38.7668 L58.3244,9.9208 L62.5214,9.9208 L62.5214,36.5878 L62.5904,36.7538 C61.1174,37.3688 59.6604,38.0528 58.3244,38.7668 Z" id="Stroke-7" stroke="#000000" stroke-width="1.3"></path>
                <path d="M55.6691,13.6701 L55.6691,40.1031 L55.7661,40.2591 C55.0821,40.6981 54.4651,41.1391 53.9301,41.5681 C54.1631,41.0211 54.2321,40.3571 54.1051,39.5561 C53.8811,38.1211 52.8461,36.8921 51.2941,35.8651 L51.2941,35.8561 L51.4891,35.5931 L51.4891,13.6701 L55.6691,13.6701 Z" id="Stroke-9" stroke="#000000" stroke-width="1.3"></path>
                <path d="M44.6447,17.2932 L44.6447,33.1112 C43.7657,32.8772 42.8677,32.6732 41.9477,32.4852 L41.9787,32.3602 L41.9787,22.3602 L37.7987,22.3602 L37.7987,31.7442 L37.7897,31.8042 C36.8897,31.6872 36.0007,31.5972 35.1327,31.5212 L35.1437,31.4612 L35.1437,27.6542 L30.9547,27.6542 L30.9547,31.3342 C29.1657,31.3252 27.6637,31.4332 26.6197,31.6372 C26.0507,31.7552 25.4467,31.9112 24.8117,32.1062 C24.0497,29.8012 23.7077,27.3212 23.7077,24.7732 C23.7077,11.0832 34.8107,0.0002 48.4917,0.0002 C62.1717,0.0002 73.2647,11.0832 73.2647,24.7732 C73.2647,28.0732 72.6197,31.2182 71.4567,34.0882 C71.4187,34.0882 71.3887,34.0882 71.3497,34.0992 C68.9007,34.4392 65.6957,35.4452 62.5897,36.7542 L62.5217,36.5882 L62.5217,9.9212 L58.3247,9.9212 L58.3247,38.7672 C57.4057,39.2542 56.5467,39.7512 55.7657,40.2592 L55.6687,40.1032 L55.6687,13.6702 L51.4897,13.6702 L51.4897,35.5932 L51.2937,35.8552 C50.5297,35.3492 49.6437,34.8892 48.6657,34.4802 L48.8237,34.1082 L48.8237,17.2932 L44.6447,17.2932 Z" id="Stroke-11" stroke="#000000" stroke-width="1.3"></path>
                <path d="M2.3234,66.8586 L0.0004,42.2226 L10.8084,38.8826 L20.4654,54.4866 L20.9824,58.4796 L2.3234,66.8586 Z M11.9414,53.2166 C10.9054,53.3346 10.1644,54.2616 10.2804,55.2966 C10.4004,56.3316 11.3274,57.0746 12.3624,56.9576 C13.4064,56.8386 14.1394,55.9126 14.0204,54.8786 C13.9044,53.8326 12.9774,53.1006 11.9414,53.2166 Z" id="Stroke-13" stroke="#000000" stroke-width="1.3"></path>
                <path d="M48.7834,55.6389 C37.1544,56.5079 34.8014,48.8919 20.4654,54.4869 L10.8084,38.8829 C14.3364,36.8519 20.3094,33.5219 24.8114,32.1069 C25.4464,31.9109 26.0514,31.7549 26.6194,31.6369 C27.6634,31.4329 29.1664,31.3259 30.9544,31.3339 C32.2334,31.3339 33.6474,31.4039 35.1334,31.5209 C36.0014,31.5969 36.8894,31.6869 37.7894,31.8039 C39.1754,31.9799 40.5714,32.2039 41.9474,32.4859 C42.8674,32.6729 43.7654,32.8769 44.6444,33.1119 C46.0794,33.5009 47.4474,33.9519 48.6664,34.4799 C49.6434,34.8889 50.5294,35.3489 51.2944,35.8559 L51.2944,35.8659 C52.8454,36.8919 53.8814,38.1209 54.1044,39.5559 C54.2314,40.3569 54.1634,41.0209 53.9294,41.5689 C54.4654,41.1389 55.0824,40.6989 55.7654,40.2589 C56.5474,39.7509 57.4054,39.2539 58.3244,38.7669 C59.6604,38.0529 61.1174,37.3679 62.5904,36.7539 C65.6954,35.4459 68.9004,34.4399 71.3494,34.0989 C71.3884,34.0879 71.4194,34.0879 71.4574,34.0879 C73.9284,33.7659 77.5704,33.9909 77.8044,37.1639 C78.1854,42.2809 55.5704,55.1409 48.7834,55.6389 Z" id="Stroke-15" stroke="#000000" stroke-width="1.3"></path>
                <path d="M10.8087,38.883 C14.3357,36.852 20.3097,33.522 24.8117,32.107 C25.4467,31.911 26.0507,31.755 26.6197,31.637 C27.6627,31.433 29.1657,31.325 30.9547,31.334 C32.2337,31.334 33.6477,31.404 35.1327,31.521 C36.0007,31.597 36.8897,31.687 37.7887,31.804 C39.1747,31.98 40.5717,32.204 41.9477,32.486 C42.8677,32.673 43.7657,32.877 44.6447,33.112 C46.0797,33.501 47.4477,33.951 48.6657,34.48 C49.6437,34.889 50.5297,35.349 51.2937,35.856 L51.2937,35.865 C52.8457,36.892 53.8807,38.121 54.1047,39.556 C54.2317,40.357 54.1627,41.021 53.9297,41.569 C52.0157,46.089 39.0177,42.251 36.3717,41.558" id="Stroke-17" stroke="#000000" stroke-width="1.3"></path>
                <path d="M20.465,54.4866 C34.801,48.8916 37.154,56.5076 48.783,55.6386 C55.57,55.1406 78.186,42.2806 77.805,37.1646 C77.57,33.9906 73.928,33.7656 71.457,34.0886 C71.419,34.0886 71.389,34.0886 71.35,34.0986 C68.901,34.4396 65.695,35.4456 62.59,36.7546 C61.117,37.3686 59.66,38.0526 58.324,38.7666 C57.405,39.2546 56.547,39.7516 55.766,40.2586 C55.082,40.6986 54.465,41.1386 53.93,41.5686" id="Stroke-19" stroke="#000000" stroke-width="1.3"></path>
                <polygon id="Stroke-21" stroke="#000000" stroke-width="1.3" points="20.465 54.4866 20.983 58.4796 2.323 66.8586 0 42.2226 10.809 38.8826"></polygon>
                <path d="M11.9416,53.217 C12.9776,53.101 13.9046,53.832 14.0206,54.878 C14.1396,55.912 13.4066,56.839 12.3626,56.957 C11.3276,57.074 10.4006,56.331 10.2806,55.297 C10.1646,54.262 10.9056,53.334 11.9416,53.217 Z" id="Stroke-23" stroke="#000000" stroke-width="1.3"></path>
                <polyline id="Stroke-25" stroke="#000000" stroke-width="1.3" points="58.3244 38.7668 58.3244 9.9208 62.5214 9.9208 62.5214 36.5878"></polyline>
                <polyline id="Stroke-27" stroke="#000000" stroke-width="1.3" points="51.4894 35.593 51.4894 13.67 55.6694 13.67 55.6694 40.103"></polyline>
                <polyline id="Stroke-29" stroke="#000000" stroke-width="1.3" points="44.6447 33.1408 44.6447 33.1118 44.6447 17.2928 48.8237 17.2928 48.8237 34.1088"></polyline>
                <polyline id="Stroke-31" stroke="#000000" stroke-width="1.3" points="37.799 31.7444 37.799 22.3604 41.979 22.3604 41.979 32.3604"></polyline>
                <polyline id="Stroke-33" stroke="#000000" stroke-width="1.3" points="30.9543 31.4035 30.9543 31.3345 30.9543 27.6545 35.1433 27.6545 35.1433 31.4615"></polyline>
                <path d="M24.8322,32.175 C24.8222,32.154 24.8112,32.125 24.8112,32.107 C24.0502,29.801 23.7072,27.321 23.7072,24.774 C23.7072,11.083 34.8112,0 48.4912,0 C62.1722,0 73.2652,11.083 73.2652,24.774 C73.2652,28.073 72.6192,31.218 71.4572,34.088 C71.4572,34.099 71.4462,34.099 71.4462,34.109" id="Stroke-35" stroke="#000000" stroke-width="1.3"></path>
            </g>
        </g>
    </g>
</svg>