<?xml version="1.0" encoding="UTF-8"?>
<svg width="64px" height="80px" viewBox="0 0 64 80" version="1.1" xmlns="http://www.w3.org/2000/svg" xmlns:xlink="http://www.w3.org/1999/xlink">
    <title>icon-usp1</title>
    <defs>
        <filter id="filter-1">
            <feColorMatrix in="SourceGraphic" type="matrix" values="0 0 0 0 0.000000 0 0 0 0 0.729412 0 0 0 0 0.580392 0 0 0 1.000000 0"></feColorMatrix>
        </filter>
        <polygon id="path-2" points="0 79.109 63.591 79.109 63.591 0 0 0"></polygon>
    </defs>
    <g id="Page-1" stroke="none" stroke-width="1" fill="none" fill-rule="evenodd">
        <g filter="url(#filter-1)" id="icon-usp1">
            <g transform="translate(0.000000, 0.000000)">
                <path d="M16.0161,35.6305 L47.5741,35.6305 L47.5741,24.6395 L37.0601,20.5115 L32.0391,25.0045 C31.7871,25.2305 31.4011,25.2245 31.1561,24.9885 L26.5041,20.5175 L16.0161,24.6395 L16.0161,35.6305 Z M48.2241,36.9305 L15.3661,36.9305 C15.0071,36.9305 14.7161,36.6395 14.7161,36.2805 L14.7161,24.1965 C14.7161,23.9295 14.8801,23.6895 15.1281,23.5915 L26.4171,19.1545 C26.6531,19.0625 26.9221,19.1155 27.1051,19.2915 L31.6211,23.6335 L36.4921,19.2755 C36.6741,19.1115 36.9331,19.0645 37.1621,19.1545 L48.4611,23.5915 C48.7101,23.6895 48.8741,23.9295 48.8741,24.1965 L48.8741,36.2805 C48.8741,36.6395 48.5831,36.9305 48.2241,36.9305 L48.2241,36.9305 Z" id="Fill-1" fill="#000000"></path>
                <path d="M42.689,36.9049 L20.901,36.9049 C20.542,36.9049 20.251,36.6139 20.251,36.2549 L20.251,28.6779 C20.251,28.3189 20.542,28.0279 20.901,28.0279 C21.26,28.0279 21.551,28.3189 21.551,28.6779 L21.551,35.6049 L42.039,35.6049 L42.039,28.6779 C42.039,28.3189 42.33,28.0279 42.689,28.0279 C43.048,28.0279 43.339,28.3189 43.339,28.6779 L43.339,36.2549 C43.339,36.6139 43.048,36.9049 42.689,36.9049" id="Fill-3" fill="#000000"></path>
                <path d="M37.23,26.2076 L26.358,26.2076 C25.999,26.2076 25.708,25.9166 25.708,25.5576 L25.708,19.7596 C25.708,19.4006 25.999,19.1096 26.358,19.1096 C26.717,19.1096 27.008,19.4006 27.008,19.7596 L27.008,24.9076 L36.58,24.9076 L36.58,19.7596 C36.58,19.4006 36.871,19.1096 37.23,19.1096 C37.589,19.1096 37.88,19.4006 37.88,19.7596 L37.88,25.5576 C37.88,25.9166 37.589,26.2076 37.23,26.2076" id="Fill-5" fill="#000000"></path>
                <mask id="mask-3" fill="white">
                    <use xlink:href="#path-2"></use>
                </mask>
                <g id="Clip-8"></g>
                <path d="M30.812,28.691 L32.779,28.691 L32.779,26.208 L30.812,26.208 L30.812,28.691 Z M33.429,29.991 L30.162,29.991 C29.802,29.991 29.511,29.7 29.511,29.341 L29.511,25.558 C29.511,25.199 29.802,24.908 30.162,24.908 L33.429,24.908 C33.789,24.908 34.08,25.199 34.08,25.558 L34.08,29.341 C34.08,29.7 33.789,29.991 33.429,29.991 L33.429,29.991 Z" id="Fill-7" fill="#000000" mask="url(#mask-3)"></path>
                <path d="M29.3111,35.6305 L33.9751,35.6305 L32.8921,29.9905 L30.6731,29.9905 L29.3111,35.6305 Z M34.7621,36.9305 L28.4861,36.9305 C28.2871,36.9305 28.0981,36.8385 27.9751,36.6825 C27.8521,36.5265 27.8071,36.3215 27.8541,36.1285 L29.5301,29.1885 C29.6001,28.8965 29.8621,28.6915 30.1621,28.6915 L33.4291,28.6915 C33.7411,28.6915 34.0081,28.9125 34.0681,29.2185 L35.4011,36.1575 C35.4371,36.3485 35.3871,36.5455 35.2631,36.6945 C35.1401,36.8435 34.9571,36.9305 34.7621,36.9305 L34.7621,36.9305 Z" id="Fill-9" fill="#000000" mask="url(#mask-3)"></path>
                <path d="M31.939,1.2994 C27.807,1.2994 24.446,4.6604 24.446,8.7924 C24.446,12.9234 27.807,16.2844 31.939,16.2844 C36.076,16.2844 39.441,12.9234 39.441,8.7924 C39.441,4.6604 36.076,1.2994 31.939,1.2994 M31.939,17.5844 C27.09,17.5844 23.145,13.6404 23.145,8.7924 C23.145,3.9444 27.09,-0.0006 31.939,-0.0006 C36.793,-0.0006 40.742,3.9444 40.742,8.7924 C40.742,13.6404 36.793,17.5844 31.939,17.5844" id="Fill-10" fill="#000000" mask="url(#mask-3)"></path>
                <path d="M38.1187,7.5758 C35.9297,7.5758 33.8907,6.9338 32.3797,5.7678 C32.0957,5.5488 32.0427,5.1398 32.2627,4.8558 C32.4817,4.5718 32.8887,4.5198 33.1747,4.7388 C34.8057,5.9968 37.3707,6.5478 39.7257,6.1378 C40.0817,6.0808 40.4167,6.3128 40.4777,6.6668 C40.5397,7.0208 40.3027,7.3578 39.9487,7.4188 C39.3487,7.5228 38.7327,7.5758 38.1187,7.5758" id="Fill-11" fill="#000000" mask="url(#mask-3)"></path>
                <path d="M27.6499,7.4196 C26.3519,7.4196 25.1239,7.1996 23.9989,6.7656 C23.6639,6.6366 23.4979,6.2606 23.6269,5.9256 C23.7559,5.5896 24.1309,5.4226 24.4669,5.5526 C25.4419,5.9286 26.5119,6.1196 27.6499,6.1196 C31.2999,6.1196 34.2689,4.0806 34.2689,1.5736 C34.2689,1.2146 34.5599,0.9236 34.9199,0.9236 C35.2789,0.9236 35.5699,1.2146 35.5699,1.5736 C35.5699,4.7966 32.0169,7.4196 27.6499,7.4196" id="Fill-12" fill="#000000" mask="url(#mask-3)"></path>
                <path d="M5.1734,62.6613 C5.4234,62.7103 5.6774,62.7353 5.9414,62.7353 C7.2154,62.7353 8.3814,62.1503 9.1424,61.1313 C9.2484,60.9893 9.4064,60.8973 9.5824,60.8743 C9.7584,60.8513 9.9334,60.9033 10.0714,61.0133 C10.8134,61.6103 11.7384,61.9163 12.6724,61.8973 C12.0244,60.5583 10.6494,59.6333 9.0614,59.6333 C7.1864,59.6333 5.6084,60.9243 5.1734,62.6613 M5.0694,63.9633 C5.2394,66.0163 6.9654,67.6353 9.0614,67.6353 C11.2714,67.6353 13.0684,65.8373 13.0684,63.6283 C13.0684,63.4763 13.0594,63.3263 13.0434,63.1793 C11.9304,63.2763 10.7434,63.0043 9.7744,62.3953 C8.7794,63.4443 7.4144,64.0353 5.9414,64.0353 C5.6434,64.0353 5.3534,64.0113 5.0694,63.9633 M9.0614,68.9353 C6.1354,68.9353 3.7554,66.5543 3.7554,63.6283 C3.7554,60.7083 6.1354,58.3333 9.0614,58.3333 C11.9874,58.3333 14.3684,60.7083 14.3684,63.6283 C14.3684,66.5543 11.9874,68.9353 9.0614,68.9353 M26.9074,62.6613 C27.1554,62.7103 27.4124,62.7353 27.6754,62.7353 C28.9304,62.7353 30.1274,62.1353 30.8774,61.1313 C30.9834,60.9893 31.1424,60.8963 31.3184,60.8743 C31.4934,60.8553 31.6714,60.9043 31.8084,61.0153 C32.5314,61.6033 33.4874,61.9183 34.4064,61.8973 C33.7584,60.5583 32.3844,59.6333 30.7964,59.6333 C28.9214,59.6333 27.3424,60.9243 26.9074,62.6613 M26.8034,63.9643 C26.9744,66.0163 28.6994,67.6353 30.7964,67.6353 C33.0054,67.6353 34.8024,65.8373 34.8024,63.6283 C34.8024,63.4763 34.7944,63.3263 34.7774,63.1793 C33.6704,63.2733 32.4714,62.9973 31.5074,62.3953 C30.3134,63.6423 28.4804,64.2393 26.8034,63.9643 M30.7964,68.9353 C27.8694,68.9353 25.4884,66.5543 25.4884,63.6283 C25.4884,60.7083 27.8694,58.3333 30.7964,58.3333 C33.7224,58.3333 36.1034,60.7083 36.1034,63.6283 C36.1034,66.5543 33.7224,68.9353 30.7964,68.9353 M50.3864,62.6623 C50.6324,62.7103 50.8864,62.7353 51.1444,62.7353 C52.4154,62.7353 53.5864,62.1493 54.3584,61.1283 C54.4644,60.9873 54.6234,60.8953 54.7994,60.8743 C54.9734,60.8543 55.1504,60.9053 55.2874,61.0163 C56.0064,61.6023 56.9664,61.9113 57.8834,61.8973 C57.2364,60.5583 55.8614,59.6333 54.2754,59.6333 C52.3994,59.6333 50.8204,60.9243 50.3864,62.6623 M50.2814,63.9643 C50.4524,66.0173 52.1784,67.6353 54.2754,67.6353 C56.4834,67.6353 58.2784,65.8373 58.2784,63.6283 C58.2784,63.4763 58.2714,63.3263 58.2544,63.1793 C57.1264,63.2743 55.9444,62.9963 54.9844,62.3953 C53.7824,63.6523 51.9844,64.2503 50.2814,63.9643 M54.2754,68.9353 C51.3484,68.9353 48.9674,66.5543 48.9674,63.6283 C48.9674,60.7083 51.3484,58.3333 54.2754,58.3333 C57.1994,58.3333 59.5794,60.7083 59.5794,63.6283 C59.5794,66.5543 57.1994,68.9353 54.2754,68.9353 M17.7274,79.1093 C17.3684,79.1093 17.0774,78.8183 17.0774,78.4593 L17.0774,75.4163 C17.0774,73.0443 15.1444,71.1143 12.7684,71.1143 L5.6084,71.1143 C3.2334,71.1143 1.2994,73.0443 1.2994,75.4163 L1.2994,78.4593 C1.2994,78.8183 1.0084,79.1093 0.6504,79.1093 C0.2914,79.1093 0.0004,78.8183 0.0004,78.4593 L0.0004,75.4163 C0.0004,72.3273 2.5154,69.8143 5.6084,69.8143 L12.7684,69.8143 C15.8614,69.8143 18.3774,72.3273 18.3774,75.4163 L18.3774,78.4593 C18.3774,78.8183 18.0864,79.1093 17.7274,79.1093 M39.4614,79.1093 C39.1024,79.1093 38.8114,78.8183 38.8114,78.4593 L38.8114,75.4163 C38.8114,73.0443 36.8784,71.1143 34.5034,71.1143 L27.3434,71.1143 C24.9674,71.1143 23.0344,73.0443 23.0344,75.4163 L23.0344,78.4593 C23.0344,78.8183 22.7434,79.1093 22.3844,79.1093 C22.0254,79.1093 21.7344,78.8183 21.7344,78.4593 L21.7344,75.4163 C21.7344,72.3273 24.2504,69.8143 27.3434,69.8143 L34.5034,69.8143 C37.5954,69.8143 40.1114,72.3273 40.1114,75.4163 L40.1114,78.4593 C40.1114,78.8183 39.8204,79.1093 39.4614,79.1093 M62.9414,79.1093 C62.5814,79.1093 62.2904,78.8183 62.2904,78.4593 L62.2904,75.4163 C62.2904,73.0443 60.3574,71.1143 57.9794,71.1143 L50.8214,71.1143 C48.4444,71.1143 46.5104,73.0443 46.5104,75.4163 L46.5104,78.4593 C46.5104,78.8183 46.2194,79.1093 45.8604,79.1093 C45.5004,79.1093 45.2094,78.8183 45.2094,78.4593 L45.2094,75.4163 C45.2094,72.3273 47.7274,69.8143 50.8214,69.8143 L57.9794,69.8143 C61.0734,69.8143 63.5914,72.3273 63.5914,75.4163 L63.5914,78.4593 C63.5914,78.8183 63.3004,79.1093 62.9414,79.1093" id="Fill-13" fill="#000000" mask="url(#mask-3)"></path>
                <path d="M54.562,57.0875 C54.203,57.0875 53.912,56.7965 53.912,56.4375 L53.912,47.4985 L9.679,47.0065 L9.679,56.2265 C9.679,56.5855 9.388,56.8765 9.029,56.8765 C8.67,56.8765 8.379,56.5855 8.379,56.2265 L8.379,46.3495 C8.379,46.1755 8.448,46.0095 8.572,45.8875 C8.695,45.7655 8.872,45.7125 9.036,45.6995 L54.569,46.2055 C54.925,46.2095 55.212,46.4995 55.212,46.8555 L55.212,56.4375 C55.212,56.7965 54.921,57.0875 54.562,57.0875" id="Fill-14" fill="#000000" mask="url(#mask-3)"></path>
                <path d="M31.6236,52.0387 C31.2646,52.0387 30.9736,51.7477 30.9736,51.3887 L30.9736,36.2807 C30.9736,35.9217 31.2646,35.6307 31.6236,35.6307 C31.9826,35.6307 32.2736,35.9217 32.2736,36.2807 L32.2736,51.3887 C32.2736,51.7477 31.9826,52.0387 31.6236,52.0387" id="Fill-15" fill="#000000" mask="url(#mask-3)"></path>
            </g>
        </g>
    </g>
</svg>