<?xml version="1.0" encoding="UTF-8"?>
<svg width="46px" height="50px" viewBox="0 0 46 50" version="1.1" xmlns="http://www.w3.org/2000/svg" xmlns:xlink="http://www.w3.org/1999/xlink">
    <title>icon kontakty</title>
    <defs>
        <filter id="filter-1">
            <feColorMatrix in="SourceGraphic" type="matrix" values="0 0 0 0 0.000000 0 0 0 0 0.486275 0 0 0 0 0.807843 0 0 0 1.000000 0"></feColorMatrix>
        </filter>
        <polygon id="path-2" points="7.10542736e-15 0 16.4695279 0 16.4695279 9.9502337 7.10542736e-15 9.9502337"></polygon>
    </defs>
    <g id="Page-1" stroke="none" stroke-width="1" fill="none" fill-rule="evenodd">
        <g id="Homepage---light" transform="translate(-1021.000000, -2111.000000)">
            <g id="Intro" transform="translate(88.500000, 787.000000)">
                <g id="row" transform="translate(187.000000, 1315.000000)">
                    <g id="icon-kontakty" transform="translate(654.000000, 9.000000)" filter="url(#filter-1)">
                        <g transform="translate(91.500000, 0.000000)">
                            <path d="M27.5958279,16.4024 L22.9838279,19.7984 L18.3728279,16.4024 C18.1618279,16.1934 17.8228279,16.1934 17.6128279,16.4024 C17.4028279,16.6124 17.4028279,16.9534 17.6128279,17.1644 L22.4348279,20.8104 L22.4348279,24.4144 C22.4348279,24.7124 22.6758279,24.9504 22.9728279,24.9504 C23.2678279,24.9504 23.5098279,24.7124 23.5098279,24.4144 L23.5098279,20.8264 L28.3548279,17.1644 C28.5668279,16.9534 28.5668279,16.6124 28.3548279,16.4024 C28.1458279,16.1934 27.8058279,16.1934 27.5958279,16.4024" id="Fill-1" fill="#FFFFFF"></path>
                            <path d="M13.0147294,6.5 C13.0157279,7.773 12.5177279,8.973 11.6137279,9.878 C10.7087279,10.781 9.51072787,11.28 8.23672787,11.28 L8.23472787,11.28 C5.59972787,11.28 3.45572787,9.137 3.45472787,6.503 C3.45472787,5.229 3.95172787,4.027 4.85772787,3.123 C5.75972787,2.219 6.96072787,1.721 8.23472787,1.721 C10.8687279,1.721 13.0137279,3.864 13.0147294,6.5 M3.63872787,1.907 C2.41072787,3.137 1.73472787,4.769 1.73472787,6.503 C1.73672787,10.087 4.65272787,13 8.23472787,13 L8.23672787,13 C9.97072787,13 11.6017279,12.322 12.8297279,11.094 C14.0587279,9.864 14.7357279,8.232 14.7347279,6.498 C14.7327279,2.916 11.8167279,0 8.23472787,0 C6.49972787,0.001 4.86772787,0.678 3.63872787,1.907" id="Fill-3" fill="#FFFFFF"></path>
                            <path d="M4.20812787,14.9981 C7.31112787,17.0591 10.6391279,16.0821 12.4711279,14.9801 C14.2191279,16.9621 14.6291279,19.8281 14.7231279,21.2271 L1.76112787,21.2301 C2.02512787,17.9491 3.45012787,15.8821 4.20812787,14.9981 M0.859127872,22.9501 L0.859127872,22.9501 L15.6071279,22.9471 C16.0711279,22.9471 16.4521279,22.5791 16.4671279,22.1151 C16.4751279,21.8841 16.6151279,16.3951 13.1641279,13.2341 C12.8551279,12.9511 12.3901279,12.9321 12.0591279,13.1861 C12.0201279,13.2151 8.20312787,16.0831 4.65412787,13.1931 C4.33012787,12.9301 3.86312787,12.9361 3.54712787,13.2121 C3.40612787,13.3351 0.0841278723,16.2871 -4.4907654e-16,22.0781 C-0.00387212773,22.3091 0.0861278723,22.5301 0.248127872,22.6941 C0.408127872,22.8571 0.629127872,22.9501 0.859127872,22.9501" id="Fill-5" fill="#FFFFFF"></path>
                            <path d="M33.9532279,3.1231 C34.8572279,2.2191 36.0572279,1.7211 37.3322279,1.7211 C39.9672279,1.7211 42.1102279,3.8641 42.1112279,6.5001 C42.1112279,7.7731 41.6142279,8.9731 40.7092279,9.8781 C39.8072279,10.7821 38.6072279,11.2801 37.3342279,11.2801 L37.3322279,11.2801 C34.6972279,11.2801 32.5532279,9.1371 32.5512279,6.5031 C32.5512279,5.2281 33.0492279,4.0271 33.9532279,3.1231 M37.3322279,13.0001 L37.3342279,13.0001 C39.0672279,13.0001 40.6992279,12.3221 41.9262279,11.0941 C43.1552279,9.8641 43.8322279,8.2321 43.8322279,6.4981 C43.8302279,2.9161 40.9142279,0.0001 37.3322279,0.0001 C35.5982279,0.0011 33.9652279,0.6781 32.7362279,1.9071 C31.5082279,3.1371 30.8322279,4.7691 30.8322279,6.5031 C30.8342279,10.0871 33.7502279,13.0001 37.3322279,13.0001" id="Fill-7" fill="#FFFFFF"></path>
                            <g id="Group-11" transform="translate(29.097400, 13.000266)">
                                <mask id="mask-3" fill="white">
                                    <use xlink:href="#path-2"></use>
                                </mask>
                                <g id="Clip-10"></g>
                                <path d="M1.76012788,8.2302337 C2.02412788,4.9492337 3.44912788,2.8812337 4.20712788,1.9982337 C7.31012788,4.0582337 10.6391279,3.0822337 12.4701279,1.9802337 C14.2191279,3.9612337 14.6291279,6.8282337 14.7211279,8.2272337 L1.76012788,8.2302337 Z M16.4671279,9.1152337 C16.4741279,8.8832337 16.6141279,3.3952337 13.1621279,0.234233704 C12.8551279,-0.0487662964 12.3891279,-0.0687662964 12.0581279,0.186233704 C12.0201279,0.214233704 8.20212788,3.0832337 4.65512788,0.193233704 C4.33012788,-0.0707662964 3.86212788,-0.0637662964 3.54712788,0.211233704 C3.40512788,0.334233704 0.082127882,3.2872337 7.10542736e-15,9.0782337 C-0.00387211803,9.3082337 0.086127882,9.5302337 0.247127882,9.6942337 C0.408127882,9.8572337 0.629127882,9.9502337 0.860127882,9.9502337 L15.6081279,9.9472337 C16.0711279,9.9472337 16.4511279,9.5792337 16.4671279,9.1152337 L16.4671279,9.1152337 Z" id="Fill-9" fill="#FFFFFF" mask="url(#mask-3)"></path>
                            </g>
                            <path d="M26.3614279,36.6817 C25.4574279,37.5867 24.2574279,38.0847 22.9844279,38.0847 L22.9824279,38.0847 C20.3474279,38.0847 18.2054279,35.9407 18.2034279,33.3067 C18.2034279,32.0317 18.7004279,30.8317 19.6044279,29.9277 C20.5074279,29.0237 21.7084279,28.5257 22.9824279,28.5247 C25.6174279,28.5247 27.7614279,30.6687 27.7634279,33.3027 C27.7634279,34.5767 27.2654279,35.7777 26.3614279,36.6817 M22.9824279,26.8047 C21.2484279,26.8047 19.6164279,27.4827 18.3864279,28.7117 C17.1604279,29.9407 16.4824279,31.5727 16.4834268,33.3077 C16.4844279,36.8887 19.4004279,39.8037 22.9824279,39.8037 L22.9844279,39.8037 C24.7184279,39.8037 26.3494279,39.1277 27.5784279,37.8977 C28.8064279,36.6687 29.4844279,35.0357 29.4834268,33.3017 C29.4804279,29.7187 26.5644279,26.8047 22.9824279,26.8047" id="Fill-12" fill="#FFFFFF"></path>
                            <path d="M18.9571279,41.8028 C22.0591279,43.8638 25.3891279,42.8858 27.2191279,41.7838 C28.9681279,43.7638 29.3771279,46.6308 29.4711279,48.0318 L16.5101279,48.0328 C16.7731279,44.7538 18.1991279,42.6858 18.9571279,41.8028 M15.6071279,49.7538 L15.6071279,49.7538 L30.3571279,49.7528 C30.8201279,49.7528 31.2001279,49.3828 31.2171279,48.9198 C31.2231279,48.6878 31.3631279,43.1988 27.9121279,40.0368 C27.6031279,39.7558 27.1381279,39.7368 26.8071279,39.9908 C26.7691279,40.0198 22.9511279,42.8868 19.4021279,39.9968 C19.0781279,39.7328 18.6111279,39.7398 18.2951279,40.0138 C18.1541279,40.1368 14.8321279,43.0898 14.748,48.8818 C14.7441279,49.1118 14.8341279,49.3348 14.9961279,49.4978 C15.1561279,49.6618 15.3771279,49.7538 15.6071279,49.7538" id="Fill-14" fill="#FFFFFF"></path>
                        </g>
                    </g>
                </g>
            </g>
        </g>
    </g>
</svg>