<?xml version="1.0" encoding="UTF-8"?>
<svg width="21px" height="24px" viewBox="0 0 21 24" version="1.1" xmlns="http://www.w3.org/2000/svg" xmlns:xlink="http://www.w3.org/1999/xlink">
    <title>icon-contract</title>
    <defs>
        <filter id="filter-1">
            <feColorMatrix in="SourceGraphic" type="matrix" values="0 0 0 0 0.000000 0 0 0 0 0.827451 0 0 0 0 0.658824 0 0 0 1.000000 0"></feColorMatrix>
        </filter>
    </defs>
    <g id="Page-1" stroke="none" stroke-width="1" fill="none" fill-rule="evenodd">
        <g filter="url(#filter-1)" id="icon-contract">
            <g transform="translate(0.120000, 0.000000)">
                <path d="M20,24 L0,24 L0,0 L14,0 L20,6 L20,24 Z M13,1 L1,1 L1,23 L19,23 L19,7 L13,7 L13,1 Z M16,16 L16,17 L4,17 L4,16 L16,16 Z M16,13 L16,14 L4,14 L4,13 L16,13 Z M16,10 L16,11 L4,11 L4,10 L16,10 Z M14,6 L18.586,6 L14,1.414 L14,6 L14,6 Z" id="Shape" fill="#000000"></path>
            </g>
        </g>
    </g>
</svg>