<?xml version="1.0" encoding="UTF-8"?>
<svg width="25px" height="24px" viewBox="0 0 25 24" version="1.1" xmlns="http://www.w3.org/2000/svg" xmlns:xlink="http://www.w3.org/1999/xlink">
    <title>icon-date</title>
    <defs>
        <filter id="filter-1">
            <feColorMatrix in="SourceGraphic" type="matrix" values="0 0 0 0 0.000000 0 0 0 0 0.827451 0 0 0 0 0.658824 0 0 0 1.000000 0"></feColorMatrix>
        </filter>
    </defs>
    <g id="Page-1" stroke="none" stroke-width="1" fill="none" fill-rule="evenodd">
        <g filter="url(#filter-1)" id="icon-date">
            <g transform="translate(0.120000, 0.000000)">
                <path d="M17,3 L17,1 C17,0.448 17.447,0 18,0 C18.553,0 19,0.448 19,1 L19,3 C19,3.552 18.553,4 18,4 C17.447,4 17,3.552 17,3 Z M5,4 C5.553,4 6,3.552 6,3 L6,1 C6,0.448 5.553,0 5,0 C4.447,0 4,0.448 4,1 L4,3 C4,3.552 4.447,4 5,4 Z M18,17 L18,14 L17,14 L17,18 L20,18 L20,17 L18,17 Z M13,17.5 C13,19.981 15.019,22 17.5,22 C19.981,22 22,19.981 22,17.5 C22,15.019 19.981,13 17.5,13 C15.019,13 13,15.019 13,17.5 Z M24,17.5 C24,21.09 21.09,24 17.5,24 C13.91,24 11,21.09 11,17.5 C11,13.91 13.91,11 17.5,11 C21.09,11 24,13.91 24,17.5 Z M9.763,21 L2,21 L2,8 L21,8 L21,9.763 C21.727,10.093 22.399,10.52 23,11.031 L23,2 L20,2 L20,3 C20,4.316 18.722,5.339 17.342,4.894 C16.511,4.626 16,3.783 16,2.91 L16,2 L7,2 L7,3 C7,4.316 5.722,5.339 4.342,4.894 C3.511,4.626 3,3.783 3,2.91 L3,2 L-1.33226763e-15,2 L-1.33226763e-15,23 L11.031,23 C10.52,22.399 10.093,21.727 9.763,21 Z" id="Shape" fill="#000000" fill-rule="nonzero"></path>
            </g>
        </g>
    </g>
</svg>