<?xml version="1.0" encoding="UTF-8"?>
<svg width="24px" height="24px" viewBox="0 0 24 24" version="1.1" xmlns="http://www.w3.org/2000/svg" xmlns:xlink="http://www.w3.org/1999/xlink">
    <title>icon-company</title>
    <defs>
        <filter id="filter-1">
            <feColorMatrix in="SourceGraphic" type="matrix" values="0 0 0 0 0.000000 0 0 0 0 0.827451 0 0 0 0 0.658824 0 0 0 1.000000 0"></feColorMatrix>
        </filter>
    </defs>
    <g id="Page-1" stroke="none" stroke-width="1" fill="none" fill-rule="evenodd">
        <g filter="url(#filter-1)" id="icon-company">
            <g transform="translate(0.120000, 0.000000)">
                <path d="M5,7 L5,0 L18,0 L18,10 L23,10 L23,24 L0,24 L0,7 L5,7 Z M5,23 L5,19 L4,19 L4,23 L5,23 Z M13,19 L10,19 L10,23 L13,23 L13,19 Z M19,19 L18,19 L18,23 L19,23 L19,19 Z M21,12 L18,12 L18,18 L20,18 L20,22 L21,22 L21,12 Z M16,2 L7,2 L7,22 L8,22 L8,17 L15,17 L15,22 L16,22 L16,2 Z M3,22 L3,18 L5,18 L5,9 L2,9 L2,22 L3,22 Z M20,16 L19,16 L19,14 L20,14 L20,16 Z M3,14 L4,14 L4,16 L3,16 L3,14 Z M11,15 L9,15 L9,13 L11,13 L11,15 Z M14,15 L12,15 L12,13 L14,13 L14,15 Z M4,11 L4,13 L3,13 L3,11 L4,11 Z M11,12 L9,12 L9,10 L11,10 L11,12 Z M14,12 L12,12 L12,10 L14,10 L14,12 Z M11,9 L9,9 L9,7 L11,7 L11,9 Z M14,9 L12,9 L12,7 L14,7 L14,9 Z M11,6 L9,6 L9,4 L11,4 L11,6 Z M14,6 L12,6 L12,4 L14,4 L14,6 Z" id="Shape" fill="#000000"></path>
            </g>
        </g>
    </g>
</svg>