<?xml version="1.0" encoding="UTF-8"?>
<svg width="42px" height="40px" viewBox="0 0 42 40" version="1.1" xmlns="http://www.w3.org/2000/svg" xmlns:xlink="http://www.w3.org/1999/xlink">
    <title>icon flexibilita</title>
    <defs>
        <filter id="filter-1">
            <feColorMatrix in="SourceGraphic" type="matrix" values="0 0 0 0 0.000000 0 0 0 0 0.486275 0 0 0 0 0.807843 0 0 0 1.000000 0"></feColorMatrix>
        </filter>
        <polygon id="path-2" points="0 0 19 0 19 19 0 19"></polygon>
        <polygon id="path-4" points="0 40 42 40 42 0 0 0"></polygon>
    </defs>
    <g id="Page-1" stroke="none" stroke-width="1" fill="none" fill-rule="evenodd">
        <g id="Homepage---light" transform="translate(-510.000000, -2351.000000)">
            <g id="Intro" transform="translate(88.500000, 787.000000)">
                <g id="row" transform="translate(187.000000, 1315.000000)">
                    <g id="item" transform="translate(148.500000, 249.000000)">
                        <g id="icon-flexibilita" transform="translate(86.000000, 0.000000)">
                            <g filter="url(#filter-1)" id="Group-3">
                                <g>
                                    <mask id="mask-3" fill="white">
                                        <use xlink:href="#path-2"></use>
                                    </mask>
                                    <g id="Clip-2"></g>
                                    <path d="M17.2701875,8.21019264 L17.2701875,10.7892254 L11.6581914,10.7892254 C11.1809215,10.7892254 10.7921211,11.1756148 10.7921211,11.6539463 L10.7921211,17.2693945 L8.2136993,17.2693945 L8.2136993,11.6539463 C8.2136993,11.1756148 7.82606298,10.7892254 7.34762897,10.7892254 L1.72864845,10.7892254 L1.72864845,8.21019264 L7.34762897,8.21019264 C7.82606298,8.21019264 8.2136993,7.82263943 8.2136993,7.34430798 L8.2136993,1.73002358 L10.7921211,1.73002358 L10.7921211,7.34430798 C10.7921211,7.82263943 11.1809215,8.21019264 11.6581914,8.21019264 L17.2701875,8.21019264 Z M11.2239922,-0.000581911733 L7.78415635,-0.000581911733 C7.06592329,-0.000581911733 6.48272271,0.582493645 6.48272271,1.2994089 L6.48272271,6.48075097 L1.29794143,6.48075097 C0.582036515,6.48075097 0,7.06266271 0,7.77841414 L0,11.2198401 C0,11.9355916 0.580872442,12.5175033 1.29677736,12.5175033 L6.48272271,12.5175033 L6.48272271,17.6988454 C6.48272271,18.4180883 7.06592329,19 7.78415635,19 L11.2239922,19 C11.9398971,19 12.5219336,18.4180883 12.5219336,17.6988454 L12.5219336,12.5175033 L17.7020586,12.5175033 C18.4167994,12.5175033 19,11.9355916 19,11.2198401 L19,7.77841414 C19,7.06266271 18.4167994,6.48075097 17.7020586,6.48075097 L12.5219336,6.48075097 L12.5219336,1.2994089 C12.5219336,0.582493645 11.9398971,-0.000581911733 11.2239922,-0.000581911733 L11.2239922,-0.000581911733 Z" id="Fill-1" fill="#FFFFFF" mask="url(#mask-3)"></path>
                                </g>
                            </g>
                            <mask id="mask-5" fill="white">
                                <use xlink:href="#path-4"></use>
                            </mask>
                            <g id="Clip-5"></g>
                            <path d="M24.7296006,31.2802621 L40.2703994,31.2802621 L40.2703994,28.7174248 L24.7296006,28.7174248 L24.7296006,31.2802621 Z M23,28.2895143 L23,31.7081727 C23,32.420586 23.5819652,33 24.2989463,33 L40.6998897,33 C41.4180348,33 42,32.420586 42,31.7081727 L42,28.2895143 C42,27.5782575 41.4180348,27 40.6998897,27 L24.2989463,27 C23.5819652,27 23,27.5782575 23,28.2895143 L23,28.2895143 Z" id="Fill-4" fill="#007CCE" mask="url(#mask-5)"></path>
                            <path d="M24.7296006,10.2810873 L40.2703994,10.2810873 L40.2703994,7.71775593 L24.7296006,7.71775593 L24.7296006,10.2810873 Z M42,10.7090804 L42,7.28860613 C42,6.578369 41.4180348,6 40.7022176,6 L24.2989463,6 C23.5842931,6 23,6.578369 23,7.29091961 L23,10.7090804 C23,11.421631 23.5842931,12 24.2989463,12 L40.7022176,12 C41.4180348,12 42,11.421631 42,10.7090804 L42,10.7090804 Z" id="Fill-6" fill="#007CCE" mask="url(#mask-5)"></path>
                            <path d="M33.2810873,22.9751684 L33.2810873,23.0271415 C33.2810873,23.7212705 32.7165992,24.2860443 31.9786003,24.2860443 C31.2834008,24.2860443 30.7189127,23.7201155 30.7189127,23.0271415 L30.7189127,22.9751684 C30.7189127,22.2798845 31.2834008,21.7162656 31.9786003,21.7162656 L32.0213997,21.7162656 C32.7165992,21.7162656 33.2810873,22.2798845 33.2810873,22.9751684 L33.2810873,22.9751684 Z M31.9786003,20 C30.3348757,20 29,21.333975 29,22.9751684 L29,23.0271415 C29,24.66718 30.3348757,26 32.0213997,26 C33.6639676,26 35,24.66718 35,23.0271415 L35,22.9751684 C35,21.333975 33.6639676,20 32.0213997,20 L31.9786003,20 Z" id="Fill-7" fill="#007CCE" mask="url(#mask-5)"></path>
                            <path d="M33.2810873,36.9751684 L33.2810873,37.0259865 C33.2810873,37.7201155 32.7165992,38.2860443 31.9786003,38.2860443 C31.2834008,38.2860443 30.7189127,37.7201155 30.7189127,37.0259865 L30.7189127,36.9751684 C30.7189127,36.2798845 31.2834008,35.7162656 31.9786003,35.7162656 L32.0213997,35.7162656 C32.7165992,35.7162656 33.2810873,36.2798845 33.2810873,36.9751684 L33.2810873,36.9751684 Z M31.9786003,34 C30.3348757,34 29,35.3351299 29,36.9751684 L29,37.0259865 C29,38.66718 30.3348757,40 32.0213997,40 C33.6639676,40 35,38.66718 35,37.0259865 L35,36.9751684 C35,35.3351299 33.6639676,34 32.0213997,34 L31.9786003,34 Z" id="Fill-8" fill="#007CCE" mask="url(#mask-5)"></path>
                            <path d="M3.19936048,34.4457167 L7.00751731,30.7815072 C7.17531422,30.621198 7.26813804,30.4070708 7.26813804,30.1792027 C7.26813804,29.9536248 7.17531422,29.7383525 7.00751731,29.5780434 L2.94945019,25.6710799 L4.81306694,23.8779074 L8.8747042,27.7837258 C9.22100846,28.1169398 9.7803315,28.1169398 10.1242557,27.7837258 L14.1811327,23.8790525 L16.0447495,25.6733701 L11.9890625,29.5768983 C11.6427582,29.9089673 11.6427582,30.4482931 11.9890625,30.7803621 L16.0483196,34.6873256 L14.5179166,36.1621699 C14.3477396,36.3247692 14.0192861,36.3247692 13.8514892,36.1621699 L10.1242557,32.5746797 C9.79223199,32.2563515 9.20434778,32.2563515 8.87232411,32.5746797 L5.14390056,36.16446 C4.99395439,36.3075932 4.77855552,36.3362199 4.55601635,36.2377442 L3.27790372,35.0079439 C3.12795754,34.8636656 3.10058641,34.6575539 3.19936048,34.4457167 M3.69561092,37.7274744 C4.05976591,37.9106849 4.4429617,38 4.81663708,38 C5.3997611,38 5.95908413,37.7847277 6.39464207,37.3679239 L9.49947993,34.3793029 L12.6019377,37.3656337 C13.459963,38.1912259 14.9094427,38.1912259 15.7674681,37.3656337 L17.6096639,35.5896372 C17.8595742,35.3480283 18,35.0285551 18,34.6861805 C18,34.3438059 17.8595742,34.0243326 17.6096639,33.7838689 L13.8633896,30.1780577 L17.6072838,26.5768267 C17.8595742,26.3352179 17.9976199,26.0145996 17.9976199,25.6733701 C17.9976199,25.3321406 17.8595742,25.0115222 17.6072838,24.7699134 L15.1248416,22.3801617 C14.8749313,22.1374079 14.5405275,22.0034352 14.1847029,22.0034352 L14.1823228,22.0034352 C13.8276882,22.0034352 13.4920944,22.1362628 13.2421841,22.3767265 L9.49947993,25.9779575 L5.75320565,22.3744364 C5.50448541,22.1328276 5.16889159,22 4.81306694,22 C4.45843233,22 4.12283851,22.1339727 3.87649837,22.3744364 L1.38572579,24.7699134 C0.870434572,25.2680169 0.871624621,26.0775782 1.38810589,26.5745366 L5.13319012,30.1792027 L1.92719809,33.2640092 C1.81414344,33.3716453 1.72250966,33.4907321 1.65229677,33.6189795 C1.17627717,34.4960996 1.32741339,35.5381092 2.02954231,36.2114077 L3.33621612,37.4709797 C3.44927077,37.5774708 3.57184582,37.6656409 3.69561092,37.7274744" id="Fill-9" fill="#007CCE" mask="url(#mask-5)"></path>
                        </g>
                    </g>
                </g>
            </g>
        </g>
    </g>
</svg>