<?xml version="1.0" encoding="UTF-8"?>
<svg width="39px" height="43px" viewBox="0 0 39 43" version="1.1" xmlns="http://www.w3.org/2000/svg" xmlns:xlink="http://www.w3.org/1999/xlink">
    <title>icon naklady</title>
    <defs>
        <filter id="filter-1">
            <feColorMatrix in="SourceGraphic" type="matrix" values="0 0 0 0 0.000000 0 0 0 0 0.486275 0 0 0 0 0.807843 0 0 0 1.000000 0"></feColorMatrix>
        </filter>
        <polygon id="path-2" points="1.77635684e-15 0 38.3516 0 38.3516 29.882 1.77635684e-15 29.882"></polygon>
    </defs>
    <g id="Page-1" stroke="none" stroke-width="1" fill="none" fill-rule="evenodd">
        <g id="Homepage---light" transform="translate(-349.000000, -2102.000000)">
            <g id="Intro" transform="translate(88.500000, 787.000000)">
                <g id="icon-naklady" transform="translate(187.000000, 1315.000000)" filter="url(#filter-1)">
                    <g transform="translate(73.500000, 0.000000)">
                        <g id="Group-3" transform="translate(0.000000, 12.591700)">
                            <mask id="mask-3" fill="white">
                                <use xlink:href="#path-2"></use>
                            </mask>
                            <g id="Clip-2"></g>
                            <path d="M12.523,1.486 L25.828,1.486 C31.927,3.998 36.866,12.422 36.866,20.349 C36.866,23.05 36.263,24.955 35.022,26.173 C32.714,28.435 28.145,28.345 22.855,28.24 C21.667,28.216 20.438,28.193 19.176,28.193 C17.544,28.193 15.977,28.248 14.46,28.302 C9.58,28.476 5.365,28.629 3.236,26.576 C2.058,25.439 1.485,23.607 1.485,20.976 C1.485,12.011 7.168,3.709 12.523,1.486 M1.77635684e-15,20.976 C1.77635684e-15,24.033 0.72,26.213 2.205,27.644 C4.123,29.496 7.102,29.882 10.648,29.882 C11.876,29.882 13.172,29.836 14.513,29.787 C16.016,29.734 17.57,29.677 19.176,29.677 C20.424,29.677 21.645,29.703 22.826,29.726 C28.451,29.836 33.309,29.933 36.062,27.234 C37.603,25.722 38.352,23.47 38.352,20.349 C38.352,12.9 33.725,3.023 26.248,0.052 C26.16,0.017 26.068,0 25.974,0 L12.377,0 C12.284,0 12.191,0.017 12.104,0.052 C4.865,2.929 1.77635684e-15,13.193 1.77635684e-15,20.976" id="Fill-1" fill="#FFFFFF" mask="url(#mask-3)"></path>
                        </g>
                        <path d="M27.4137,1.484 C27.2467,4.209 26.2027,7.832 24.5877,9.757 L13.6087,9.757 C11.9947,7.832 10.9497,4.209 10.7807,1.484 L27.4137,1.484 Z M13.2757,11.244 L24.9217,11.244 C25.1277,11.244 25.3227,11.158 25.4637,11.007 C27.6287,8.693 28.9247,3.97 28.9247,0.742 C28.9247,0.332 28.5927,0 28.1817,0 L10.0157,0 C9.6047,0 9.2717,0.332 9.2717,0.742 C9.2717,3.97 10.5667,8.695 12.7327,11.009 C12.8737,11.158 13.0697,11.244 13.2757,11.244 L13.2757,11.244 Z" id="Fill-4" fill="#FFFFFF"></path>
                        <path d="M15.4166,31.2828 C15.8496,31.4608 16.4196,31.6598 17.0336,31.7848 C18.5856,32.1048 21.0346,31.9698 21.4136,30.2828 C21.8616,28.3028 19.9766,27.7628 18.9636,27.4718 C17.7516,27.1268 15.4096,26.0578 15.2256,24.4938 C14.9916,22.5078 15.9636,21.3528 18.2836,20.8608 C18.6266,20.7888 18.8716,20.4858 18.8716,20.1348 L18.8716,18.6008 L19.6626,18.6008 L19.6626,19.8548 C19.6626,20.2418 19.9606,20.5638 20.3456,20.5948 C21.0416,20.6498 22.0926,20.8058 22.7566,21.0228 L22.5136,22.1048 C21.6866,21.8848 20.3596,21.5948 19.3036,21.6698 C18.3456,21.7358 17.6236,22.2768 17.4186,23.0798 C17.2046,23.9218 17.6056,24.8358 18.4186,25.3528 C19.3126,25.9258 20.4636,26.3828 21.3046,26.7188 C21.6766,26.8668 22.0286,27.0058 22.1936,27.0938 C22.4406,27.2238 23.6686,27.9798 23.4796,29.9738 C23.3096,31.8098 21.7476,32.9218 20.3666,33.0368 C19.9786,33.0678 19.6836,33.3918 19.6856,33.7808 L19.6926,35.3918 L18.9066,35.3918 L18.9066,33.9648 C18.9066,33.5678 18.5976,33.2438 18.2026,33.2218 C17.6306,33.1928 16.1086,33.0148 15.0086,32.5488 L15.4166,31.2828 Z M13.7176,33.5508 C14.8446,34.2498 16.4906,34.5328 17.4216,34.6418 L17.4216,36.1348 C17.4216,36.5448 17.7546,36.8788 18.1636,36.8788 L20.4396,36.8788 C20.6376,36.8788 20.8266,36.7988 20.9666,36.6578 C21.1056,36.5188 21.1846,36.3298 21.1826,36.1308 L21.1746,34.4058 C22.9566,33.9738 24.7406,32.4528 24.9606,30.1128 C25.2356,27.1788 23.2836,25.9898 22.8896,25.7808 C22.6526,25.6558 22.2996,25.5148 21.8536,25.3378 C21.0686,25.0248 19.9946,24.5968 19.2186,24.0988 C18.9206,23.9118 18.8126,23.6288 18.8586,23.4468 C18.9166,23.2188 19.2266,23.1638 19.4066,23.1518 C20.7406,23.0578 22.8096,23.7378 22.8296,23.7458 C23.0286,23.8118 23.2476,23.7908 23.4296,23.6868 C23.6126,23.5838 23.7436,23.4078 23.7896,23.2028 L24.3386,20.7598 C24.4066,20.4528 24.2776,20.1378 24.0136,19.9698 C23.3046,19.5148 21.9826,19.2888 21.1476,19.1828 L21.1476,17.8588 C21.1476,17.4488 20.8136,17.1148 20.4056,17.1148 L18.1286,17.1148 C17.7196,17.1148 17.3866,17.4488 17.3866,17.8588 L17.3866,19.5528 C14.7346,20.3058 13.4466,22.1048 13.7506,24.6678 C14.0796,27.4858 17.8106,28.6888 18.5556,28.9018 C20.1036,29.3438 20.0446,29.6008 19.9666,29.9548 C19.8796,30.3378 18.5876,30.5898 17.3326,30.3298 C16.2706,30.1128 15.3276,29.6088 15.3186,29.6048 C15.1256,29.4998 14.8946,29.4878 14.6896,29.5698 C14.4846,29.6518 14.3276,29.8218 14.2596,30.0308 L13.4006,32.6908 C13.2956,33.0168 13.4266,33.3708 13.7176,33.5508 L13.7176,33.5508 Z" id="Fill-6" fill="#FFFFFF"></path>
                    </g>
                </g>
            </g>
        </g>
    </g>
</svg>