<?xml version="1.0" encoding="UTF-8"?>
<svg width="71px" height="80px" viewBox="0 0 71 80" version="1.1" xmlns="http://www.w3.org/2000/svg" xmlns:xlink="http://www.w3.org/1999/xlink">
    <title>icon-usp2</title>
    <defs>
        <filter id="filter-1">
            <feColorMatrix in="SourceGraphic" type="matrix" values="0 0 0 0 0.000000 0 0 0 0 0.729412 0 0 0 0 0.580392 0 0 0 1.000000 0"></feColorMatrix>
        </filter>
        <polygon id="path-2" points="0 0 70.8809144 0 70.8809144 79.109 0 79.109"></polygon>
    </defs>
    <g id="Page-1" stroke="none" stroke-width="1" fill="none" fill-rule="evenodd">
        <g filter="url(#filter-1)" id="icon-usp2">
            <g transform="translate(0.000000, 0.000000)">
                <mask id="mask-3" fill="white">
                    <use xlink:href="#path-2"></use>
                </mask>
                <g id="Clip-2"></g>
                <path d="M1.301,77.809 L52.937,77.809 L52.937,4.558 L1.301,4.558 L1.301,77.809 Z M53.587,79.109 L0.65,79.109 C0.291,79.109 0,78.818 0,78.459 L0,3.908 C0,3.549 0.291,3.258 0.65,3.258 L53.587,3.258 C53.946,3.258 54.237,3.549 54.237,3.908 L54.237,78.459 C54.237,78.818 53.946,79.109 53.587,79.109 L53.587,79.109 Z" id="Fill-1" fill="#000000" mask="url(#mask-3)"></path>
                <path d="M58.9024,65.0089 L64.1734,75.8629 L69.4404,65.0089 L69.4404,23.7239 L58.9024,23.7239 L58.9024,65.0089 Z M64.1734,78.0019 C63.9234,78.0019 63.6974,77.8599 63.5884,77.6349 L57.6674,65.4419 C57.6244,65.3539 57.6014,65.2569 57.6014,65.1579 L57.6014,23.0739 C57.6014,22.7159 57.8924,22.4249 58.2524,22.4249 L70.0904,22.4249 C70.4504,22.4249 70.7414,22.7159 70.7414,23.0739 L70.7414,65.1579 C70.7414,65.2569 70.7184,65.3539 70.6754,65.4419 L64.7574,77.6349 C64.6484,77.8599 64.4224,78.0019 64.1734,78.0019 L64.1734,78.0019 Z" id="Fill-3" fill="#000000" mask="url(#mask-3)"></path>
                <path d="M63.4541,74.3844 L64.1721,75.8634 L64.8891,74.3844 C64.4251,74.3414 63.9161,74.3414 63.4541,74.3844 M64.1731,78.0014 C63.9241,78.0014 63.6971,77.8594 63.5881,77.6354 L61.9011,74.1644 C61.8151,73.9864 61.8141,73.7774 61.9001,73.5984 C61.9861,73.4204 62.1481,73.2904 62.3421,73.2464 C63.4681,72.9884 64.8701,72.9884 66.0001,73.2464 C66.1931,73.2904 66.3551,73.4204 66.4411,73.5984 C66.5271,73.7774 66.5261,73.9854 66.4401,74.1634 L64.7581,77.6354 C64.6491,77.8594 64.4221,78.0014 64.1731,78.0014" id="Fill-4" fill="#000000" mask="url(#mask-3)"></path>
                <path d="M70.2295,65.8258 C70.1175,65.8258 70.0025,65.7968 69.8995,65.7348 L67.9935,64.6058 L66.7835,65.6508 C66.5555,65.8468 66.2225,65.8608 65.9785,65.6858 L64.0735,64.3138 L62.7605,65.6268 C62.6385,65.7488 62.4725,65.8168 62.3005,65.8168 L62.2995,65.8168 C62.1265,65.8168 61.9615,65.7478 61.8395,65.6248 L60.5375,64.3148 L58.6315,65.6858 C58.3375,65.8968 57.9335,65.8288 57.7245,65.5378 C57.5145,65.2468 57.5815,64.8408 57.8725,64.6308 L60.2275,62.9358 C60.4865,62.7488 60.8425,62.7768 61.0685,63.0048 L62.3015,64.2458 L63.5445,63.0038 C63.7705,62.7768 64.1265,62.7498 64.3845,62.9358 L66.3225,64.3308 L67.4985,63.3158 C67.7095,63.1338 68.0155,63.1068 68.2535,63.2488 L70.5615,64.6168 C70.8715,64.7998 70.9725,65.1988 70.7905,65.5078 C70.6675,65.7118 70.4525,65.8258 70.2295,65.8258" id="Fill-5" fill="#000000" mask="url(#mask-3)"></path>
                <path d="M60.9043,64.2897 C60.5453,64.2897 60.2543,63.9987 60.2543,63.6397 L60.2543,23.0747 C60.2543,22.7157 60.5453,22.4247 60.9043,22.4247 C61.2633,22.4247 61.5543,22.7157 61.5543,23.0747 L61.5543,63.6397 C61.5543,63.9987 61.2633,64.2897 60.9043,64.2897" id="Fill-6" fill="#000000" mask="url(#mask-3)"></path>
                <path d="M63.9571,64.485 C63.6001,64.485 63.3091,64.196 63.3071,63.838 L63.1210974,23.077 C63.1201,22.718 63.4091,22.426 63.7691,22.424 L63.7711,22.424 C64.1291,22.424 64.4201,22.714 64.4221,23.071 L64.6071026,63.832 C64.6081,64.191 64.3191,64.484 63.9601,64.485 L63.9571,64.485 Z" id="Fill-7" fill="#000000" mask="url(#mask-3)"></path>
                <path d="M67.0489,64.9616 C66.6899,64.9616 66.3989,64.6706 66.3989,64.3116 L66.3989,23.0746 C66.3989,22.7156 66.6899,22.4246 67.0489,22.4246 C67.4079,22.4246 67.6989,22.7156 67.6989,23.0746 L67.6989,64.3116 C67.6989,64.6706 67.4079,64.9616 67.0489,64.9616" id="Fill-8" fill="#000000" mask="url(#mask-3)"></path>
                <path d="M58.9024,22.4244 L69.4404,22.4244 L69.4404,20.0044 C69.4404,18.6684 68.3544,17.5814 67.0184,17.5814 L61.3244,17.5814 C59.9884,17.5814 58.9024,18.6684 58.9024,20.0044 L58.9024,22.4244 Z M70.0904,23.7244 L58.2524,23.7244 C57.8924,23.7244 57.6014,23.4334 57.6014,23.0744 L57.6014,20.0044 C57.6014,17.9514 59.2714,16.2814 61.3244,16.2814 L67.0184,16.2814 C69.0714,16.2814 70.7414,17.9514 70.7414,20.0044 L70.7414,23.0744 C70.7414,23.4334 70.4504,23.7244 70.0904,23.7244 L70.0904,23.7244 Z" id="Fill-9" fill="#000000" mask="url(#mask-3)"></path>
                <path d="M10.2,22.983 L44.04,22.983 L44.04,15.802 L10.2,15.802 L10.2,22.983 Z M44.69,24.283 L9.55,24.283 C9.19,24.283 8.899,23.992 8.899,23.633 L8.899,15.152 C8.899,14.794 9.19,14.503 9.55,14.503 L44.69,14.503 C45.05,14.503 45.341,14.794 45.341,15.152 L45.341,23.633 C45.341,23.992 45.05,24.283 44.69,24.283 L44.69,24.283 Z" id="Fill-10" fill="#000000" mask="url(#mask-3)"></path>
                <path d="M44.0381,29.8668 L10.2021,29.8668 C9.8431,29.8668 9.5521,29.5758 9.5521,29.2168 C9.5521,28.8578 9.8431,28.5668 10.2021,28.5668 L44.0381,28.5668 C44.3971,28.5668 44.6881,28.8578 44.6881,29.2168 C44.6881,29.5758 44.3971,29.8668 44.0381,29.8668" id="Fill-11" fill="#000000" mask="url(#mask-3)"></path>
                <path d="M44.0381,35.1832 L10.2021,35.1832 C9.8431,35.1832 9.5521,34.8922 9.5521,34.5332 C9.5521,34.1742 9.8431,33.8832 10.2021,33.8832 L44.0381,33.8832 C44.3971,33.8832 44.6881,34.1742 44.6881,34.5332 C44.6881,34.8922 44.3971,35.1832 44.0381,35.1832" id="Fill-12" fill="#000000" mask="url(#mask-3)"></path>
                <path d="M44.0381,40.4977 L20.7471,40.4977 C20.3881,40.4977 20.0971,40.2067 20.0971,39.8477 C20.0971,39.4887 20.3881,39.1977 20.7471,39.1977 L44.0381,39.1977 C44.3971,39.1977 44.6881,39.4887 44.6881,39.8477 C44.6881,40.2067 44.3971,40.4977 44.0381,40.4977" id="Fill-13" fill="#000000" mask="url(#mask-3)"></path>
                <path d="M35.5674,45.8043 L10.2024,45.8043 C9.8424,45.8043 9.5514,45.5133 9.5514,45.1543 C9.5514,44.7953 9.8424,44.5043 10.2024,44.5043 L35.5674,44.5043 C35.9264,44.5043 36.2174,44.7953 36.2174,45.1543 C36.2174,45.5133 35.9264,45.8043 35.5674,45.8043" id="Fill-14" fill="#000000" mask="url(#mask-3)"></path>
                <path d="M44.0381,51.1188 L10.2021,51.1188 C9.8431,51.1188 9.5521,50.8278 9.5521,50.4688 C9.5521,50.1098 9.8431,49.8188 10.2021,49.8188 L44.0381,49.8188 C44.3971,49.8188 44.6881,50.1098 44.6881,50.4688 C44.6881,50.8278 44.3971,51.1188 44.0381,51.1188" id="Fill-15" fill="#000000" mask="url(#mask-3)"></path>
                <path d="M44.0381,56.4342 L17.3041,56.4342 C16.9441,56.4342 16.6531,56.1432 16.6531,55.7842 C16.6531,55.4252 16.9441,55.1342 17.3041,55.1342 L44.0381,55.1342 C44.3971,55.1342 44.6881,55.4252 44.6881,55.7842 C44.6881,56.1432 44.3971,56.4342 44.0381,56.4342" id="Fill-16" fill="#000000" mask="url(#mask-3)"></path>
                <path d="M44.0381,61.7389 L10.2021,61.7389 C9.8431,61.7389 9.5521,61.4479 9.5521,61.0889 C9.5521,60.7299 9.8431,60.4389 10.2021,60.4389 L44.0381,60.4389 C44.3971,60.4389 44.6881,60.7299 44.6881,61.0889 C44.6881,61.4479 44.3971,61.7389 44.0381,61.7389" id="Fill-17" fill="#000000" mask="url(#mask-3)"></path>
                <path d="M6.1426,7.816 C5.7836,7.816 5.4926,7.525 5.4926,7.166 L5.4926,0.649 C5.4926,0.291 5.7836,-1.42108547e-14 6.1426,-1.42108547e-14 C6.5016,-1.42108547e-14 6.7926,0.291 6.7926,0.649 L6.7926,7.166 C6.7926,7.525 6.5016,7.816 6.1426,7.816 M13.1346,7.816 C12.7756,7.816 12.4846,7.525 12.4846,7.166 L12.4846,0.649 C12.4846,0.291 12.7756,-1.42108547e-14 13.1346,-1.42108547e-14 C13.4946,-1.42108547e-14 13.7856,0.291 13.7856,0.649 L13.7856,7.166 C13.7856,7.525 13.4946,7.816 13.1346,7.816 M20.1246,7.816 C19.7656,7.816 19.4746,7.525 19.4746,7.166 L19.4746,0.649 C19.4746,0.291 19.7656,-1.42108547e-14 20.1246,-1.42108547e-14 C20.4846,-1.42108547e-14 20.7756,0.291 20.7756,0.649 L20.7756,7.166 C20.7756,7.525 20.4846,7.816 20.1246,7.816 M27.1156,7.816 C26.7556,7.816 26.4646,7.525 26.4646,7.166 L26.4646,0.649 C26.4646,0.291 26.7556,-1.42108547e-14 27.1156,-1.42108547e-14 C27.4746,-1.42108547e-14 27.7656,0.291 27.7656,0.649 L27.7656,7.166 C27.7656,7.525 27.4746,7.816 27.1156,7.816 M34.1056,7.816 C33.7466,7.816 33.4546,7.525 33.4546,7.166 L33.4546,0.649 C33.4546,0.291 33.7466,-1.42108547e-14 34.1056,-1.42108547e-14 C34.4646,-1.42108547e-14 34.7556,0.291 34.7556,0.649 L34.7556,7.166 C34.7556,7.525 34.4646,7.816 34.1056,7.816 M41.0946,7.816 C40.7356,7.816 40.4446,7.525 40.4446,7.166 L40.4446,0.649 C40.4446,0.291 40.7356,-1.42108547e-14 41.0946,-1.42108547e-14 C41.4546,-1.42108547e-14 41.7456,0.291 41.7456,0.649 L41.7456,7.166 C41.7456,7.525 41.4546,7.816 41.0946,7.816 M48.0876,7.816 C47.7286,7.816 47.4376,7.525 47.4376,7.166 L47.4376,0.649 C47.4376,0.291 47.7286,-1.42108547e-14 48.0876,-1.42108547e-14 C48.4476,-1.42108547e-14 48.7386,0.291 48.7386,0.649 L48.7386,7.166 C48.7386,7.525 48.4476,7.816 48.0876,7.816" id="Fill-18" fill="#000000" mask="url(#mask-3)"></path>
            </g>
        </g>
    </g>
</svg>