<?xml version="1.0" encoding="UTF-8"?>
<svg width="75px" height="60px" viewBox="0 0 75 60" version="1.1" xmlns="http://www.w3.org/2000/svg" xmlns:xlink="http://www.w3.org/1999/xlink">
    <title>icon-komunikace</title>
    <defs>
        <filter id="filter-1">
            <feColorMatrix in="SourceGraphic" type="matrix" values="0 0 0 0 0.000000 0 0 0 0 0.827451 0 0 0 0 0.658824 0 0 0 1.000000 0"></feColorMatrix>
        </filter>
        <polygon id="path-2" points="0 0 75 0 75 59.885982 0 59.885982"></polygon>
    </defs>
    <g id="Page-1" stroke="none" stroke-width="1" fill="none" fill-rule="evenodd">
        <g filter="url(#filter-1)" id="icon-komunikace">
            <g>
                <g id="Group-3">
                    <mask id="mask-3" fill="white">
                        <use xlink:href="#path-2"></use>
                    </mask>
                    <g id="Clip-2"></g>
                    <path d="M63.3258132,9.49028788 C58.1187212,5.79470394 50.8956953,3.442486 42.8337294,3.442486 C34.7699936,3.442486 27.4637816,5.79470394 22.2566897,9.49028788 C17.2177397,13.0177298 14.0265818,17.8885378 14.0265818,23.2637717 C14.0265818,28.6390056 17.2177397,33.5098136 22.2566897,37.0372555 C27.4637816,40.7328395 34.7699936,43.0018714 42.8337294,43.0018714 C44.2620514,43.0018714 45.6886034,43.0018714 47.1169253,42.8337294 C48.4602914,42.6655874 49.8886133,42.4974454 51.2319793,42.1611614 C51.6514493,42.0779754 52.0709193,42.1611614 52.4903894,42.3293034 L64.5028071,49.3010013 L61.7293492,39.5576155 C61.5612072,38.8850475 61.8143052,38.1292935 62.4851032,37.7098235 C65.3417471,35.7788455 67.6939651,33.5098136 69.2886591,30.9894537 C70.716981,28.6390056 71.5559211,26.0354597 71.5559211,23.2637717 C71.5559211,17.8885378 68.4497191,13.0177298 63.3258132,9.49028788 M9.40710185,16.4602158 C5.7115179,19.8195158 3.52744195,23.9363397 3.52744195,28.3876776 C3.52744195,31.1593656 4.36638199,33.7611416 5.87788998,36.1133596 C7.39116788,38.6337195 9.74338583,40.9009815 12.5982598,42.7487734 C13.2690579,43.2531994 13.6053418,44.0089534 13.3540138,44.7647074 L10.6672818,54.3399512 L22.5929737,47.4514394 C22.9274877,47.2850673 23.4319137,47.2001114 23.8513837,47.2850673 C25.1965196,47.5363954 26.5398856,47.7877234 27.9664377,47.9558654 C29.3115736,48.0408213 30.7381256,48.1240074 32.2514035,48.1240074 L34.1823816,48.1240074 C37.2053975,48.6284333 40.2301834,48.8797614 43.2531994,48.8797614 C43.5894834,48.8797614 43.9257674,49.1310894 43.9257674,49.4673734 C44.0089534,49.8886133 43.7576254,50.2231274 43.4213414,50.3080833 C39.9770855,51.2319793 36.1983155,51.7364053 32.2514035,51.7364053 C30.7381256,51.7364053 29.1434316,51.6514493 27.6319236,51.4850773 C26.2885576,51.3151653 25.0283776,51.1487933 23.7681977,50.8956953 L8.64957793,59.6302292 C8.31506387,59.8833272 7.72568195,59.9665132 7.2230259,59.7983712 C6.29912991,59.5470432 5.79470394,58.5381912 6.04780188,57.6142953 L9.57347392,45.0160354 C6.80178596,43.0850574 4.45133794,40.6496535 2.77168796,38.0461075 C1.00885194,35.1062775 0,31.8319335 0,28.3876776 C0,21.8372197 3.69558394,15.9575598 9.65842987,11.7575499 C12.2619758,11.3363099 11.3380799,15.2018058 9.40710185,16.4602158 M42.8337294,0 C51.5664934,0 59.5470432,2.51859001 65.3417471,6.63364397 C71.304593,10.8336539 75.000177,16.7133138 75.000177,23.2637717 C75.000177,26.7080276 73.9913251,29.8991856 72.1435331,32.8390155 C70.5488391,35.4425615 68.1966211,37.8779655 65.4267031,39.8938995 L68.9523751,52.4921593 C69.2054731,53.4160553 68.7010471,54.3399512 67.7771511,54.5912793 C67.2727251,54.7594213 66.7682992,54.6744653 66.4337851,54.4231373 L51.3151653,45.6886034 C50.0549854,45.9399314 48.7116194,46.1080734 47.4532093,46.2762154 C45.8567454,46.4443574 44.3452374,46.5293133 42.8337294,46.5293133 C34.0142396,46.5293133 26.0354597,44.0089534 20.2407557,39.8938995 C14.2779098,35.6938895 10.5823259,29.8142297 10.5823259,23.2637717 C10.5823259,16.7133138 14.2779098,10.8336539 20.2407557,6.63364397 C26.0354597,2.51859001 34.0142396,0 42.8337294,0" id="Fill-1" fill="#000000" mask="url(#mask-3)"></path>
                </g>
                <path d="M43.5048814,19.4841168 C45.6057713,19.4841168 47.3686074,21.1637668 47.3686074,23.3478427 C47.3686074,25.4469627 45.6057713,27.1266127 43.5048814,27.1266127 C41.4039915,27.1266127 39.7261114,25.4469627 39.7261114,23.3478427 C39.7261114,21.1637668 41.4039915,19.4841168 43.5048814,19.4841168 M57.3633212,19.4841168 C59.4624412,19.4841168 61.2270471,21.1637668 61.2270471,23.3478427 C61.2270471,25.4469627 59.4624412,27.1266127 57.3633212,27.1266127 C55.2624313,27.1266127 53.5827813,25.4469627 53.5827813,23.3478427 C53.5827813,21.1637668 55.2624313,19.4841168 57.3633212,19.4841168 M29.6464416,19.4841168 C31.8305176,19.4841168 33.5101676,21.1637668 33.5101676,23.3478427 C33.5101676,25.4469627 31.8305176,27.1266127 29.6464416,27.1266127 C27.5473216,27.1266127 25.8676717,25.4469627 25.8676717,23.3478427 C25.8676717,21.1637668 27.5473216,19.4841168 29.6464416,19.4841168" id="Fill-4" fill="#000000"></path>
            </g>
        </g>
    </g>
</svg>