<?xml version="1.0" encoding="UTF-8"?>
<svg width="43px" height="49px" viewBox="0 0 43 49" version="1.1" xmlns="http://www.w3.org/2000/svg" xmlns:xlink="http://www.w3.org/1999/xlink">
    <title>icon vysledky</title>
    <defs>
        <filter id="filter-1">
            <feColorMatrix in="SourceGraphic" type="matrix" values="0 0 0 0 0.000000 0 0 0 0 0.486275 0 0 0 0 0.807843 0 0 0 1.000000 0"></feColorMatrix>
        </filter>
        <polygon id="path-2" points="0 0 42.2309 0 42.2309 48.3746 0 48.3746"></polygon>
    </defs>
    <g id="Page-1" stroke="none" stroke-width="1" fill="none" fill-rule="evenodd">
        <g id="Homepage---light" transform="translate(-902.000000, -2356.000000)">
            <g id="Intro" transform="translate(88.500000, 787.000000)">
                <g id="row" transform="translate(187.000000, 1315.000000)">
                    <g id="icon-vysledky" transform="translate(550.500000, 254.000000)" filter="url(#filter-1)">
                        <g transform="translate(76.000000, 0.000000)">
                            <g id="Group-3">
                                <mask id="mask-3" fill="white">
                                    <use xlink:href="#path-2"></use>
                                </mask>
                                <g id="Clip-2"></g>
                                <path d="M40.077,3.0996 L2.153,3.0996 C1.638,3.0996 1.216,2.6776 1.216,2.1596 C1.216,1.6406 1.638,1.2186 2.153,1.2186 L40.077,1.2186 C40.593,1.2186 41.014,1.6406 41.014,2.1596 C41.014,2.6776 40.593,3.0996 40.077,3.0996 L40.077,3.0996 Z M3.788,25.2986 L3.788,5.2576 C3.788,4.9196 3.87,4.6036 4.009,4.3186 L39.048,4.3186 C39.185,4.6036 39.268,4.9196 39.268,5.2576 L39.268,25.2986 C39.268,25.6366 39.185,25.9536 39.048,26.2406 L4.009,26.2406 C3.87,25.9536 3.788,25.6366 3.788,25.2986 L3.788,25.2986 Z M41.014,28.3986 C41.014,28.9176 40.593,29.3386 40.077,29.3386 L2.153,29.3386 C1.638,29.3386 1.216,28.9176 1.216,28.3986 C1.216,27.8806 1.638,27.4586 2.153,27.4586 L40.077,27.4586 C40.593,27.4586 41.014,27.8806 41.014,28.3986 L41.014,28.3986 Z M30.748,45.0046 C30.873,45.1246 30.873,45.3146 30.862,45.4166 C30.838,45.6486 30.715,45.8936 30.524,46.0916 C30.334,46.2896 30.093,46.4216 29.865,46.4566 C29.764,46.4706 29.575,46.4776 29.45,46.3576 L23.257,40.3856 C23.081,40.2156 22.823,40.1676 22.597,40.2636 C22.373,40.3596 22.227,40.5796 22.227,40.8246 L22.227,46.1216 C22.227,46.6926 21.807,47.1566 21.292,47.1566 C20.775,47.1566 20.355,46.6926 20.355,46.1216 L20.355,40.7576 C20.355,40.5086 20.204,40.2866 19.974,40.1916 C19.9,40.1626 19.823,40.1486 19.747,40.1486 C19.585,40.1486 19.427,40.2126 19.309,40.3346 L13.767,46.1086 C13.666,46.2136 13.491,46.2086 13.396,46.1976 C13.168,46.1676 12.922,46.0386 12.721,45.8456 C12.519,45.6526 12.384,45.4116 12.345,45.1826 C12.328,45.0876 12.317,44.9126 12.419,44.8066 L19.725,37.1916 C19.759,37.1586 19.812,37.1306 19.884,37.1156 C20.159,37.0526 20.355,36.8056 20.355,36.5216 L20.355,30.9806 C20.355,30.8296 20.386,30.6876 20.439,30.5576 L22.143,30.5576 C22.196,30.6876 22.227,30.8296 22.227,30.9806 L22.227,36.6736 C22.227,36.9396 22.398,37.1736 22.651,37.2546 C22.713,37.2756 22.761,37.3006 22.795,37.3336 L30.748,45.0046 Z M42.231,2.1596 C42.231,0.9686 41.264,-0.0004 40.077,-0.0004 L2.153,-0.0004 C0.966,-0.0004 0,0.9686 0,2.1596 C0,3.3246 0.929,4.2716 2.081,4.3106 C2.007,4.6156 1.964,4.9316 1.964,5.2576 L1.964,25.2986 C1.964,25.6266 2.007,25.9426 2.081,26.2466 C0.929,26.2876 0,27.2336 0,28.3986 C0,29.5896 0.966,30.5576 2.153,30.5576 L19.181,30.5576 C19.155,30.6956 19.14,30.8356 19.14,30.9806 L19.14,36.1156 C19.032,36.1796 18.936,36.2576 18.849,36.3476 L11.542,43.9606 C11.198,44.3206 11.054,44.8376 11.145,45.3846 C11.227,45.8716 11.487,46.3476 11.878,46.7246 C12.268,47.1006 12.753,47.3426 13.241,47.4066 C13.789,47.4766 14.3,47.3116 14.643,46.9536 L19.14,42.2696 L19.14,46.1216 C19.14,47.3646 20.104,48.3746 21.292,48.3746 C22.478,48.3746 23.442,47.3646 23.442,46.1216 L23.442,42.2556 L28.606,47.2366 C28.97,47.5856 29.493,47.7426 30.04,47.6626 C30.538,47.5896 31.022,47.3316 31.401,46.9376 C31.78,46.5416 32.018,46.0476 32.071,45.5456 C32.13,44.9956 31.955,44.4766 31.591,44.1266 L23.638,36.4546 C23.577,36.3986 23.513,36.3456 23.442,36.2986 L23.442,30.9806 C23.442,30.8356 23.429,30.6956 23.403,30.5576 L40.077,30.5576 C41.264,30.5576 42.231,29.5896 42.231,28.3986 C42.231,27.5126 41.694,26.7496 40.931,26.4176 C41.034,26.0626 41.093,25.6876 41.093,25.2986 L41.093,5.2576 C41.093,4.8706 41.034,4.4956 40.931,4.1396 C41.694,3.8076 42.231,3.0456 42.231,2.1596 L42.231,2.1596 Z" id="Fill-1" fill="#FFFFFF" mask="url(#mask-3)"></path>
                            </g>
                            <path d="M34.3397,7.914 C33.9387,7.611 33.3657,7.691 33.0627,8.094 L27.5417,15.44 L20.1837,11.752 C19.7727,11.545 19.2727,11.679 19.0177,12.062 L13.9297,19.713 L8.4407,19.713 C7.9367,19.713 7.5277,20.123 7.5277,20.627 C7.5277,21.133 7.9367,21.541 8.4407,21.541 L14.4167,21.541 C14.7227,21.541 15.0067,21.389 15.1767,21.135 L20.0887,13.748 L27.4047,17.416 C27.7987,17.613 28.2767,17.501 28.5417,17.148 L34.5197,9.194 C34.8227,8.791 34.7407,8.218 34.3397,7.914" id="Fill-4" fill="#FFFFFF"></path>
                        </g>
                    </g>
                </g>
            </g>
        </g>
    </g>
</svg>