<?xml version="1.0" encoding="UTF-8"?>
<svg width="80px" height="77px" viewBox="0 0 80 77" version="1.1" xmlns="http://www.w3.org/2000/svg" xmlns:xlink="http://www.w3.org/1999/xlink">
    <title>relationships</title>
    <defs>
        <filter id="filter-1">
            <feColorMatrix in="SourceGraphic" type="matrix" values="0 0 0 0 0.000000 0 0 0 0 0.811765 0 0 0 0 0.650980 0 0 0 1.000000 0"></feColorMatrix>
        </filter>
        <polygon id="path-2" points="0 0 79.11 0 79.11 76.9089 0 76.9089"></polygon>
    </defs>
    <g id="Page-1" stroke="none" stroke-width="1" fill="none" fill-rule="evenodd">
        <g id="relationships" transform="translate(-739.000000, -1026.000000)" filter="url(#filter-1)">
            <g transform="translate(739.000000, 1026.000000)">
                <mask id="mask-3" fill="white">
                    <use xlink:href="#path-2"></use>
                </mask>
                <g id="Clip-2"></g>
                <path d="M6.991,50.9929 L72.127,50.9929 L72.127,13.3879 L6.991,13.3879 L6.991,50.9929 Z M72.777,52.2939 L6.341,52.2939 C5.981,52.2939 5.69,52.0029 5.69,51.6429 L5.69,12.7369 C5.69,12.3779 5.981,12.0869 6.341,12.0869 L72.777,12.0869 C73.137,12.0869 73.428,12.3779 73.428,12.7369 L73.428,51.6429 C73.428,52.0029 73.137,52.2939 72.777,52.2939 L72.777,52.2939 Z" id="Fill-1" fill="#000000" mask="url(#mask-3)"></path>
                <path d="M1.301,12.0869 L77.81,12.0869 L77.81,7.7879 L1.301,7.7879 L1.301,12.0869 Z M78.46,13.3879 L0.65,13.3879 C0.291,13.3879 0,13.0969 0,12.7369 L0,7.1379 C0,6.7779 0.291,6.4869 0.65,6.4869 L78.46,6.4869 C78.819,6.4869 79.11,6.7779 79.11,7.1379 L79.11,12.7369 C79.11,13.0969 78.819,13.3879 78.46,13.3879 L78.46,13.3879 Z" id="Fill-3" fill="#000000" mask="url(#mask-3)"></path>
                <path d="M53.145,45.0259 L56.509,45.0259 L56.509,22.6349 L53.145,22.6349 L53.145,45.0259 Z M57.16,46.3269 L52.495,46.3269 C52.136,46.3269 51.845,46.0359 51.845,45.6769 L51.845,21.9849 C51.845,21.6259 52.136,21.3349 52.495,21.3349 L57.16,21.3349 C57.519,21.3349 57.811,21.6259 57.811,21.9849 L57.811,45.6769 C57.811,46.0359 57.519,46.3269 57.16,46.3269 L57.16,46.3269 Z" id="Fill-4" fill="#000000" mask="url(#mask-3)"></path>
                <path d="M45.511,45.0259 L48.874,45.0259 L48.874,25.5679 L45.511,25.5679 L45.511,45.0259 Z M49.524,46.3269 L44.86,46.3269 C44.501,46.3269 44.21,46.0359 44.21,45.6769 L44.21,24.9179 C44.21,24.5579 44.501,24.2669 44.86,24.2669 L49.524,24.2669 C49.884,24.2669 50.175,24.5579 50.175,24.9179 L50.175,45.6769 C50.175,46.0359 49.884,46.3269 49.524,46.3269 L49.524,46.3269 Z" id="Fill-5" fill="#000000" mask="url(#mask-3)"></path>
                <path d="M37.879,45.0259 L41.242,45.0259 L41.242,28.4269 L37.879,28.4269 L37.879,45.0259 Z M41.893,46.3269 L37.228,46.3269 C36.869,46.3269 36.578,46.0359 36.578,45.6769 L36.578,27.7769 C36.578,27.4179 36.869,27.1269 37.228,27.1269 L41.893,27.1269 C42.252,27.1269 42.543,27.4179 42.543,27.7769 L42.543,45.6769 C42.543,46.0359 42.252,46.3269 41.893,46.3269 L41.893,46.3269 Z" id="Fill-6" fill="#000000" mask="url(#mask-3)"></path>
                <path d="M30.243,45.0259 L33.607,45.0259 L33.607,32.4049 L30.243,32.4049 L30.243,45.0259 Z M34.258,46.3269 L29.593,46.3269 C29.233,46.3269 28.942,46.0359 28.942,45.6769 L28.942,31.7549 C28.942,31.3949 29.233,31.1039 29.593,31.1039 L34.258,31.1039 C34.617,31.1039 34.908,31.3949 34.908,31.7549 L34.908,45.6769 C34.908,46.0359 34.617,46.3269 34.258,46.3269 L34.258,46.3269 Z" id="Fill-7" fill="#000000" mask="url(#mask-3)"></path>
                <path d="M22.608,45.0259 L25.971,45.0259 L25.971,36.5469 L22.608,36.5469 L22.608,45.0259 Z M26.622,46.3269 L21.958,46.3269 C21.599,46.3269 21.308,46.0359 21.308,45.6769 L21.308,35.8969 C21.308,35.5379 21.599,35.2469 21.958,35.2469 L26.622,35.2469 C26.981,35.2469 27.272,35.5379 27.272,35.8969 L27.272,45.6769 C27.272,46.0359 26.981,46.3269 26.622,46.3269 L26.622,46.3269 Z" id="Fill-8" fill="#000000" mask="url(#mask-3)"></path>
                <path d="M60.331,49.2146 L18.787,49.2146 C18.428,49.2146 18.137,48.9236 18.137,48.5646 C18.137,48.2046 18.428,47.9136 18.787,47.9136 L60.331,47.9136 C60.69,47.9136 60.981,48.2046 60.981,48.5646 C60.981,48.9236 60.69,49.2146 60.331,49.2146" id="Fill-9" fill="#000000" mask="url(#mask-3)"></path>
                <path d="M21.9687,32.4138 C21.7017,32.4138 21.4517,32.2488 21.3577,31.9828 C21.2357,31.6458 21.4107,31.2728 21.7487,31.1518 C21.9227,31.0888 39.3017,24.7628 46.9237,15.8888 C47.1587,15.6158 47.5687,15.5858 47.8407,15.8188 C48.1137,16.0538 48.1437,16.4638 47.9097,16.7358 C40.0637,25.8708 22.9147,32.1138 22.1887,32.3748 C22.1157,32.4008 22.0417,32.4138 21.9687,32.4138" id="Fill-10" fill="#000000" mask="url(#mask-3)"></path>
                <path d="M47.3261,20.9392 C46.9671,20.9392 46.6761,20.6482 46.6761,20.2892 L46.6761,17.0752 L43.6551,17.0902 L43.6521,17.0902 C43.2951,17.0902 43.0041,16.8012 43.0020974,16.4432 C43.0011,16.0852 43.2901,15.7922 43.6491,15.7902 L47.3231,15.7712 C47.5241,15.7822 47.6621,15.8392 47.7841,15.9602 C47.9071,16.0832 47.9761,16.2492 47.9761,16.4212 L47.9761,20.2892 C47.9761,20.6482 47.6851,20.9392 47.3261,20.9392" id="Fill-11" fill="#000000" mask="url(#mask-3)"></path>
                <path d="M37.6855,6.487 L41.4345,6.487 L41.4345,3.179 C41.4345,2.143 40.5905,1.3 39.5535,1.3 C38.5235,1.3 37.6855,2.143 37.6855,3.179 L37.6855,6.487 Z M42.0845,7.788 L37.0355,7.788 C36.6755,7.788 36.3845,7.497 36.3845,7.137 L36.3845,3.179 C36.3845,1.426 37.8065,0 39.5535,0 C41.3075,0 42.7355,1.426 42.7355,3.179 L42.7355,7.137 C42.7355,7.497 42.4445,7.788 42.0845,7.788 L42.0845,7.788 Z" id="Fill-12" fill="#000000" mask="url(#mask-3)"></path>
                <path d="M13.3623,60.6902 C14.8713,60.9792 16.3453,60.3782 17.2403,59.1802 C17.3453,59.0392 17.5043,58.9462 17.6783,58.9242 C17.8533,58.8992 18.0313,58.9532 18.1683,59.0632 C18.8893,59.6432 19.8253,59.9412 20.7103,59.9382 C20.0703,58.6292 18.7263,57.7272 17.1753,57.7272 C15.3413,57.7272 13.7963,58.9892 13.3623,60.6902 M13.2563,61.9912 C13.4243,64.0002 15.1183,65.5832 17.1753,65.5832 C19.3433,65.5832 21.1073,63.8232 21.1073,61.6602 C21.1073,61.5102 21.0993,61.3642 21.0833,61.2182 C19.9303,61.3222 18.8263,61.0372 17.8723,60.4442 C16.7033,61.6762 14.9963,62.2782 13.2563,61.9912 M17.1753,66.8832 C14.2893,66.8832 11.9413,64.5402 11.9413,61.6602 C11.9413,58.7742 14.2893,56.4262 17.1753,56.4262 C20.0603,56.4262 22.4083,58.7742 22.4083,61.6602 C22.4083,64.5402 20.0603,66.8832 17.1753,66.8832 M34.7623,60.6892 C36.2653,60.9822 37.7663,60.3622 38.6503,59.1802 C38.7563,59.0392 38.9143,58.9462 39.0903,58.9242 C39.2573,58.8992 39.4413,58.9532 39.5783,59.0632 C40.3053,59.6492 41.1483,59.9382 42.1103,59.9382 C41.4703,58.6292 40.1263,57.7272 38.5743,57.7272 C36.7403,57.7272 35.1953,58.9882 34.7623,60.6892 M34.6553,61.9912 C34.8243,64.0002 36.5173,65.5832 38.5743,65.5832 C40.7433,65.5832 42.5073,63.8232 42.5073,61.6602 C42.5073,61.5112 42.4993,61.3642 42.4823,61.2192 C41.3483,61.3192 40.2313,61.0362 39.2813,60.4432 C38.1093,61.6652 36.3773,62.2792 34.6553,61.9912 M38.5743,66.8832 C35.6883,66.8832 33.3413,64.5402 33.3413,61.6602 C33.3413,58.7742 35.6883,56.4262 38.5743,56.4262 C40.9683,56.4262 42.9933,58.0442 43.6123,60.2432 C43.6273,60.2802 43.6383,60.3182 43.6463,60.3582 C43.6493,60.3722 43.6523,60.3852 43.6543,60.4002 C43.7543,60.8032 43.8073,61.2252 43.8073,61.6602 C43.8073,64.5402 41.4603,66.8832 38.5743,66.8832 M57.8843,60.6902 C59.3723,60.9762 60.8663,60.3812 61.7623,59.1802 C61.8683,59.0392 62.0263,58.9462 62.2013,58.9242 C62.3753,58.8992 62.5533,58.9532 62.6903,59.0632 C63.4123,59.6432 64.3513,59.9412 65.2323,59.9382 C64.5923,58.6292 63.2493,57.7272 61.6973,57.7272 C59.8633,57.7272 58.3183,58.9892 57.8843,60.6902 M57.7783,61.9922 C57.9473,64.0012 59.6403,65.5832 61.6973,65.5832 C63.8663,65.5832 65.6303,63.8232 65.6303,61.6602 C65.6303,61.5102 65.6223,61.3642 65.6053,61.2182 C64.4533,61.3222 63.3483,61.0372 62.3943,60.4442 C61.2233,61.6782 59.4973,62.2772 57.7783,61.9922 M61.6973,66.8832 C58.8113,66.8832 56.4643,64.5402 56.4643,61.6602 C56.4643,58.7742 58.8113,56.4262 61.6973,56.4262 C64.5833,56.4262 66.9303,58.7742 66.9303,61.6602 C66.9303,64.5402 64.5833,66.8832 61.6973,66.8832 M25.7063,76.9092 C25.3463,76.9092 25.0553,76.6182 25.0553,76.2582 L25.0553,73.2622 C25.0553,70.9272 23.1573,69.0282 20.8233,69.0282 L13.7723,69.0282 C11.4383,69.0282 9.5403,70.9272 9.5403,73.2622 L9.5403,76.2582 C9.5403,76.6182 9.2493,76.9092 8.8893,76.9092 C8.5303,76.9092 8.2393,76.6182 8.2393,76.2582 L8.2393,73.2622 C8.2393,70.2112 10.7213,67.7272 13.7723,67.7272 L20.8233,67.7272 C23.8743,67.7272 26.3563,70.2112 26.3563,73.2622 L26.3563,76.2582 C26.3563,76.6182 26.0653,76.9092 25.7063,76.9092 M47.1053,76.9092 C46.7463,76.9092 46.4553,76.6182 46.4553,76.2582 L46.4553,73.2622 C46.4553,70.9272 44.5563,69.0282 42.2223,69.0282 L35.1743,69.0282 C32.8393,69.0282 30.9393,70.9272 30.9393,73.2622 L30.9393,76.2582 C30.9393,76.6182 30.6483,76.9092 30.2893,76.9092 C29.9293,76.9092 29.6383,76.6182 29.6383,76.2582 L29.6383,73.2622 C29.6383,70.2112 32.1223,67.7272 35.1743,67.7272 L42.2223,67.7272 C45.2733,67.7272 47.7563,70.2112 47.7563,73.2622 L47.7563,76.2582 C47.7563,76.6182 47.4653,76.9092 47.1053,76.9092 M70.2283,76.9092 C69.8693,76.9092 69.5783,76.6182 69.5783,76.2582 L69.5783,73.2622 C69.5783,70.9272 67.6793,69.0282 65.3453,69.0282 L58.2973,69.0282 C55.9623,69.0282 54.0623,70.9272 54.0623,73.2622 L54.0623,76.2582 C54.0623,76.6182 53.7713,76.9092 53.4123,76.9092 C53.0523,76.9092 52.7613,76.6182 52.7613,76.2582 L52.7613,73.2622 C52.7613,70.2112 55.2453,67.7272 58.2973,67.7272 L65.3453,67.7272 C68.3963,67.7272 70.8793,70.2112 70.8793,73.2622 L70.8793,76.2582 C70.8793,76.6182 70.5883,76.9092 70.2283,76.9092" id="Fill-13" fill="#000000" mask="url(#mask-3)"></path>
            </g>
        </g>
    </g>
</svg>