<?xml version="1.0" encoding="UTF-8"?>
<svg width="135px" height="69px" viewBox="0 0 135 69" version="1.1" xmlns="http://www.w3.org/2000/svg" xmlns:xlink="http://www.w3.org/1999/xlink">
    <title>logo-white</title>
    <g id="Page-1" stroke="none" stroke-width="1" fill="none" fill-rule="evenodd">
        <g id="logo-white" fill="#FFFFFF" fill-rule="nonzero">
            <g id="Group" transform="translate(42.922293, 0.000000)">
                <path d="M47.8734633,42.7758621 L33.8681583,42.7758621 C33.366832,42.7758621 32.8933572,42.5530504 32.5790336,42.16313 L0.374789596,2.71750663 C-0.0310459481,2.22015915 -0.114600325,1.53183024 0.159935484,0.950928382 C0.434471292,0.370026525 1.01935193,0 1.66391426,0 L15.6692193,0 C16.1705456,0 16.6440204,0.222811671 16.958344,0.612732095 L49.1625879,40.0583554 C49.5684235,40.5557029 49.6519779,41.2440318 49.377442,41.8249337 C49.1029062,42.4058355 48.5180256,42.7758621 47.8734633,42.7758621 L47.8734633,42.7758621 Z M34.6599355,39.4496021 L44.3681582,39.4496021 L14.8814209,3.33023873 L5.17319809,3.33023873 L34.6599355,39.4496021 L34.6599355,39.4496021 Z" id="Shape"></path>
                <path d="M17.7700151,24.0238727 L5.17319809,39.4496021 L2.03394079,42.7758621 L1.66789304,42.7758621 C1.02730949,42.7758621 0.442428851,42.4058355 0.167893044,41.8249337 C-0.110621545,41.2480106 -0.0230883884,40.5596817 0.378768376,40.0623342 L15.621474,21.3938992 L17.7739938,24.0278515 L17.7700151,24.0238727 Z" id="Path"></path>
                <path d="M29.5790336,8.51856764 C29.5790336,9.50132626 28.7832777,10.2970822 27.800519,10.2970822 C26.8177604,10.2970822 26.0220045,9.50132626 26.0220045,8.51856764 C26.0220045,7.53580902 26.8177604,6.74005305 27.800519,6.74005305 C28.7832777,6.74005305 29.5790336,7.53580902 29.5790336,8.51856764 Z M49.377442,0.950928382 C49.1029062,0.374005305 48.5220044,0.00397877984 47.877442,0.00397877984 L33.8721371,0.00397877984 C33.3747896,0.00397877984 32.897336,0.226790451 32.5830124,0.616710875 L30.0166994,3.75994695 C29.4357976,4.47214854 29.5432246,5.51856764 30.2554262,6.10344828 C30.9676278,6.68435013 32.0140469,6.57692308 32.5989275,5.86472149 L34.6678931,3.33023873 L44.3761158,3.33023873 L31.7792989,18.7599469 L29.6347366,21.3899204 L24.7806251,27.3381963 L22.6281053,29.9681698 L14.8853997,39.4535809 L5.18115565,39.4535809 L2.04189835,42.7798408 L15.6771769,42.7798408 C16.1745244,42.7798408 16.6519779,42.5570292 16.9663015,42.1671088 L24.7806251,32.5981432 L26.9251875,29.964191 L31.7792989,24.0198939 L33.9318188,21.3899204 L49.1745243,2.71750663 C49.5803598,2.22015915 49.6639142,1.53183024 49.3853996,0.950928382 L49.377442,0.950928382 Z" id="Shape"></path>
            </g>
            <g id="Group" transform="translate(0.000000, 53.570292)">
                <path d="M0,0.24270557 L6.50132626,0.24270557 C7.78249337,0.24270557 8.81697613,0.417771883 9.60477454,0.763925729 C10.3925729,1.11007958 11.0450928,1.61140584 11.5623342,2.25994695 C12.0755968,2.90848806 12.4496021,3.66843501 12.6843501,4.53183024 C12.9151194,5.39522546 13.030504,6.31034483 13.030504,7.27320955 C13.030504,8.78514589 12.8594164,9.95888594 12.5132626,10.7944297 C12.1671088,11.6299735 11.6896552,12.3262599 11.0769231,12.8912467 C10.464191,13.4562334 9.80769231,13.8302387 9.10742706,14.0172414 C8.14854111,14.2758621 7.27718833,14.403183 6.50132626,14.403183 L0,14.403183 L0,0.24270557 L0,0.24270557 Z M4.37665782,3.44960212 L4.37665782,11.1883289 L5.45092838,11.1883289 C6.36604775,11.1883289 7.01458886,11.0848806 7.4005305,10.8819629 C7.78647215,10.6790451 8.08885942,10.3249337 8.30769231,9.81962865 C8.5265252,9.31432361 8.63793103,8.49469496 8.63793103,7.36074271 C8.63793103,5.86074271 8.39124668,4.83421751 7.90185676,4.28116711 C7.41246684,3.72811671 6.60079576,3.44960212 5.4668435,3.44960212 L4.37665782,3.44960212 L4.37665782,3.44960212 Z" id="Shape"></path>
                <polygon id="Path" points="16.3090186 0.24270557 28.0344828 0.24270557 28.0344828 3.26657825 20.693634 3.26657825 20.693634 5.51856764 27.505305 5.51856764 27.505305 8.4071618 20.693634 8.4071618 20.693634 11.2002653 28.2453581 11.2002653 28.2453581 14.4071618 16.3050398 14.4071618 16.3050398 0.24668435"></polygon>
                <polygon id="Path" points="30.6246684 0.24270557 35.4429708 0.24270557 37.9496021 4.5994695 40.3885942 0.24270557 45.1591512 0.24270557 40.7506631 7.10212202 45.5729443 14.403183 40.6551724 14.403183 37.8580902 9.85543767 35.061008 14.403183 30.1750663 14.403183 35.061008 7.02254642 30.6206897 0.24270557"></polygon>
                <path d="M47.9482759,0.24270557 L55.2214854,0.24270557 C56.8050398,0.24270557 57.9907162,0.620689655 58.7824934,1.37267905 C59.5742706,2.12466844 59.964191,3.19893899 59.964191,4.58753316 C59.964191,5.97612732 59.5344828,7.13395225 58.6750663,7.93766578 C57.8156499,8.74137931 56.5026525,9.14323607 54.7400531,9.14323607 L52.3448276,9.14323607 L52.3448276,14.3992042 L47.9482759,14.3992042 L47.9482759,0.23872679 L47.9482759,0.24270557 Z M52.3448276,6.27851459 L53.4190981,6.27851459 C54.2625995,6.27851459 54.8554377,6.13129973 55.1976127,5.84084881 C55.5397878,5.5464191 55.7108753,5.17241379 55.7108753,4.71485411 C55.7108753,4.25729443 55.5636605,3.89522546 55.265252,3.58488064 C54.9668435,3.27453581 54.4137931,3.1193634 53.5941645,3.1193634 L52.3488064,3.1193634 L52.3488064,6.27851459 L52.3448276,6.27851459 Z" id="Shape"></path>
                <path d="M62.693634,7.33289125 C62.693634,5.02122016 63.3381963,3.22281167 64.627321,1.933687 C65.9164456,0.644562334 67.7068966,0 70.0066313,0 C72.306366,0 74.1803714,0.632625995 75.4535809,1.89787798 C76.7307692,3.16312997 77.367374,4.933687 77.367374,7.21352785 C77.367374,8.86870027 77.0888594,10.2254642 76.5318302,11.2838196 C75.9748011,12.3421751 75.1710875,13.1657825 74.1167109,13.7546419 C73.0623342,14.3435013 71.7533156,14.637931 70.1816976,14.637931 C68.6100796,14.637931 67.2612732,14.3832891 66.2148541,13.8740053 C65.168435,13.3647215 64.3209549,12.561008 63.668435,11.4588859 C63.0159151,10.3567639 62.693634,8.9801061 62.693634,7.32493369 L62.693634,7.33289125 Z M67.0702918,7.35278515 C67.0702918,8.78116711 67.33687,9.80769231 67.8660477,10.4323607 C68.3992042,11.0570292 69.1193634,11.367374 70.0344828,11.367374 C70.9496021,11.367374 71.7015915,11.061008 72.2188329,10.4482759 C72.7360743,9.83554377 72.9907162,8.73740053 72.9907162,7.15384615 C72.9907162,5.82095491 72.7201592,4.84615385 72.1830239,4.23342175 C71.6458886,3.62068966 70.9177719,3.31034483 69.994695,3.31034483 C69.071618,3.31034483 68.403183,3.62466844 67.8700265,4.24535809 C67.33687,4.87002653 67.066313,5.90450928 67.066313,7.34482759 L67.0702918,7.35278515 Z" id="Shape"></path>
                <path d="M80.7692308,14.403183 L80.7692308,0.24270557 L88.0623342,0.24270557 C89.4151194,0.24270557 90.4496021,0.358090186 91.1618037,0.588859416 C91.8779841,0.819628647 92.4549072,1.24933687 92.8925729,1.87798408 C93.3302387,2.5066313 93.5490716,3.27055703 93.5490716,4.17374005 C93.5490716,4.96153846 93.3819629,5.63793103 93.0477454,6.20689655 C92.7135279,6.77586207 92.2519894,7.23740053 91.6671088,7.59151194 C91.2931034,7.81830239 90.7798408,8.00530504 90.1312997,8.15251989 C90.6525199,8.32758621 91.030504,8.50265252 91.2692308,8.67374005 C91.4323607,8.78912467 91.66313,9.0397878 91.969496,9.41777188 C92.2758621,9.79973475 92.4787798,10.0901857 92.5822281,10.2970822 L94.7029178,14.3992042 L89.7572944,14.3992042 L87.4177719,10.0702918 C87.1233422,9.50928382 86.8567639,9.14721485 86.6259947,8.9801061 C86.3116711,8.76127321 85.9535809,8.64986737 85.5557029,8.64986737 L85.1697613,8.64986737 L85.1697613,14.3952255 L80.7732095,14.3952255 L80.7692308,14.403183 Z M85.1657825,5.9801061 L87.0119363,5.9801061 C87.2108753,5.9801061 87.596817,5.91644562 88.1697613,5.78514589 C88.4602122,5.72546419 88.6949602,5.57824934 88.8779841,5.33952255 C89.061008,5.10079576 89.1525199,4.82625995 89.1525199,4.5198939 C89.1525199,4.06233422 89.0092838,3.71220159 88.7188329,3.46551724 C88.428382,3.22281167 87.8832891,3.0994695 87.0875332,3.0994695 L85.1657825,3.0994695 L85.1657825,5.97612732 L85.1657825,5.9801061 Z" id="Shape"></path>
                <polygon id="Path" points="95.9204244 0.24270557 109.221485 0.24270557 109.221485 3.74005305 104.757294 3.74005305 104.757294 14.403183 100.380637 14.403183 100.380637 3.74005305 95.9164456 3.74005305 95.9164456 0.24270557"></polygon>
                <polygon id="Path" points="112.360743 0.24270557 116.745358 0.24270557 116.745358 14.403183 112.360743 14.403183"></polygon>
                <path d="M120.32626,7.33289125 C120.32626,5.02122016 120.970822,3.22281167 122.259947,1.933687 C123.549072,0.644562334 125.339523,0 127.639257,0 C129.938992,0 131.812997,0.632625995 133.086207,1.89787798 C134.363395,3.16312997 135,4.933687 135,7.21352785 C135,8.86870027 134.721485,10.2254642 134.164456,11.2838196 C133.607427,12.3421751 132.803714,13.1657825 131.749337,13.7546419 C130.69496,14.3435013 129.385942,14.637931 127.814324,14.637931 C126.242706,14.637931 124.893899,14.3832891 123.84748,13.8740053 C122.801061,13.3647215 121.953581,12.561008 121.301061,11.4588859 C120.648541,10.3567639 120.32626,8.9801061 120.32626,7.32493369 L120.32626,7.33289125 Z M124.702918,7.35278515 C124.702918,8.78116711 124.969496,9.80769231 125.498674,10.4323607 C126.03183,11.0570292 126.751989,11.367374 127.667109,11.367374 C128.582228,11.367374 129.334218,11.061008 129.851459,10.4482759 C130.3687,9.83554377 130.623342,8.73740053 130.623342,7.15384615 C130.623342,5.82095491 130.352785,4.84615385 129.81565,4.23342175 C129.278515,3.62068966 128.550398,3.31034483 127.627321,3.31034483 C126.704244,3.31034483 126.035809,3.62466844 125.502653,4.24535809 C124.969496,4.87002653 124.698939,5.90450928 124.698939,7.34482759 L124.702918,7.35278515 Z" id="Shape"></path>
            </g>
        </g>
    </g>
</svg>