<?xml version="1.0" encoding="UTF-8"?>
<svg width="340px" height="173px" viewBox="0 0 340 173" version="1.1" xmlns="http://www.w3.org/2000/svg" xmlns:xlink="http://www.w3.org/1999/xlink">
    <title>logo-green</title>
    <defs>
        <linearGradient x1="50%" y1="96.9398196%" x2="50%" y2="14.2870431%" id="linearGradient-1">
            <stop stop-color="#007CCF" offset="0%"></stop>
            <stop stop-color="#00D3A8" offset="100%"></stop>
        </linearGradient>
        <linearGradient x1="77.2279414%" y1="0.837365091%" x2="22.4580355%" y2="101.935244%" id="linearGradient-2">
            <stop stop-color="#003575" offset="0%"></stop>
            <stop stop-color="#007CCF" offset="33%"></stop>
            <stop stop-color="#00D3A8" offset="100%"></stop>
        </linearGradient>
        <linearGradient x1="80.7874564%" y1="9.49228037%" x2="23.0486295%" y2="89.2483341%" id="linearGradient-3">
            <stop stop-color="#2179BE" offset="0%"></stop>
            <stop stop-color="#00D3A8" offset="100%"></stop>
        </linearGradient>
    </defs>
    <g id="Page-1" stroke="none" stroke-width="1" fill="none" fill-rule="evenodd">
        <g id="logo-green" transform="translate(0.460000, 0.780000)" fill-rule="nonzero">
            <path d="M228.2,107.51 L193,107.51 C191.74,107.51 190.55,106.95 189.76,105.97 L108.82,6.83 C107.8,5.58 107.59,3.85 108.28,2.39 C108.97,0.93 110.44,0 112.06,0 L147.26,0 C148.52,0 149.71,0.56 150.5,1.54 L231.44,100.68 C232.46,101.93 232.67,103.66 231.98,105.12 C231.29,106.58 229.82,107.51 228.2,107.51 L228.2,107.51 Z M194.99,99.15 L219.39,99.15 L145.28,8.37 L120.88,8.37 L194.99,99.15 L194.99,99.15 Z" id="Shape" fill="url(#linearGradient-1)"></path>
            <path d="M152.54,60.38 L120.88,99.15 L112.99,107.51 L112.07,107.51 C110.46,107.51 108.99,106.58 108.3,105.12 C107.6,103.67 107.82,101.94 108.83,100.69 L147.14,53.77 L152.55,60.39 L152.54,60.38 Z" id="Path" fill="url(#linearGradient-2)"></path>
            <path d="M182.22,21.41 C182.22,23.88 180.22,25.88 177.75,25.88 C175.28,25.88 173.28,23.88 173.28,21.41 C173.28,18.94 175.28,16.94 177.75,16.94 C180.22,16.94 182.22,18.94 182.22,21.41 Z M231.98,2.39 C231.29,0.94 229.83,0.01 228.21,0.01 L193.01,0.01 C191.76,0.01 190.56,0.57 189.77,1.55 L183.32,9.45 C181.86,11.24 182.13,13.87 183.92,15.34 C185.71,16.8 188.34,16.53 189.81,14.74 L195.01,8.37 L219.41,8.37 L187.75,47.15 L182.36,53.76 L170.16,68.71 L164.75,75.32 L145.29,99.16 L120.9,99.16 L113.01,107.52 L147.28,107.52 C148.53,107.52 149.73,106.96 150.52,105.98 L170.16,81.93 L175.55,75.31 L187.75,60.37 L193.16,53.76 L231.47,6.83 C232.49,5.58 232.7,3.85 232,2.39 L231.98,2.39 Z" id="Shape" fill="url(#linearGradient-3)"></path>
            <path d="M-2.84217094e-14,135.25 L16.34,135.25 C19.56,135.25 22.16,135.69 24.14,136.56 C26.12,137.43 27.76,138.69 29.06,140.32 C30.35,141.95 31.29,143.86 31.88,146.03 C32.46,148.2 32.75,150.5 32.75,152.92 C32.75,156.72 32.32,159.67 31.45,161.77 C30.58,163.87 29.38,165.62 27.84,167.04 C26.3,168.46 24.65,169.4 22.89,169.87 C20.48,170.52 18.29,170.84 16.34,170.84 L-2.84217094e-14,170.84 L-2.84217094e-14,135.25 L-2.84217094e-14,135.25 Z M11,143.31 L11,162.76 L13.7,162.76 C16,162.76 17.63,162.5 18.6,161.99 C19.57,161.48 20.33,160.59 20.88,159.32 C21.43,158.05 21.71,155.99 21.71,153.14 C21.71,149.37 21.09,146.79 19.86,145.4 C18.63,144.01 16.59,143.31 13.74,143.31 L11,143.31 L11,143.31 Z" id="Shape" fill="#4DB79D"></path>
            <polygon id="Path" fill="#4DB79D" points="40.99 135.25 70.46 135.25 70.46 142.85 52.01 142.85 52.01 148.51 69.13 148.51 69.13 155.77 52.01 155.77 52.01 162.79 70.99 162.79 70.99 170.85 40.98 170.85 40.98 135.26"></polygon>
            <polygon id="Path" fill="#4DB79D" points="76.97 135.25 89.08 135.25 95.38 146.2 101.51 135.25 113.5 135.25 102.42 152.49 114.54 170.84 102.18 170.84 95.15 159.41 88.12 170.84 75.84 170.84 88.12 152.29 76.96 135.25"></polygon>
            <path d="M120.51,135.25 L138.79,135.25 C142.77,135.25 145.75,136.2 147.74,138.09 C149.73,139.98 150.71,142.68 150.71,146.17 C150.71,149.66 149.63,152.57 147.47,154.59 C145.31,156.61 142.01,157.62 137.58,157.62 L131.56,157.62 L131.56,170.83 L120.51,170.83 L120.51,135.24 L120.51,135.25 Z M131.56,150.42 L134.26,150.42 C136.38,150.42 137.87,150.05 138.73,149.32 C139.59,148.58 140.02,147.64 140.02,146.49 C140.02,145.34 139.65,144.43 138.9,143.65 C138.15,142.87 136.76,142.48 134.7,142.48 L131.57,142.48 L131.57,150.42 L131.56,150.42 Z" id="Shape" fill="#4DB79D"></path>
            <path d="M157.57,153.07 C157.57,147.26 159.19,142.74 162.43,139.5 C165.67,136.26 170.17,134.64 175.95,134.64 C181.73,134.64 186.44,136.23 189.64,139.41 C192.85,142.59 194.45,147.04 194.45,152.77 C194.45,156.93 193.75,160.34 192.35,163 C190.95,165.66 188.93,167.73 186.28,169.21 C183.63,170.69 180.34,171.43 176.39,171.43 C172.44,171.43 169.05,170.79 166.42,169.51 C163.79,168.23 161.66,166.21 160.02,163.44 C158.38,160.67 157.57,157.21 157.57,153.05 L157.57,153.07 Z M168.57,153.12 C168.57,156.71 169.24,159.29 170.57,160.86 C171.91,162.43 173.72,163.21 176.02,163.21 C178.32,163.21 180.21,162.44 181.51,160.9 C182.81,159.36 183.45,156.6 183.45,152.62 C183.45,149.27 182.77,146.82 181.42,145.28 C180.07,143.74 178.24,142.96 175.92,142.96 C173.6,142.96 171.92,143.75 170.58,145.31 C169.24,146.88 168.56,149.48 168.56,153.1 L168.57,153.12 Z" id="Shape" fill="#4DB79D"></path>
            <path d="M203,170.84 L203,135.25 L221.33,135.25 C224.73,135.25 227.33,135.54 229.12,136.12 C230.92,136.7 232.37,137.78 233.47,139.36 C234.57,140.94 235.12,142.86 235.12,145.13 C235.12,147.11 234.7,148.81 233.86,150.24 C233.02,151.67 231.86,152.83 230.39,153.72 C229.45,154.29 228.16,154.76 226.53,155.13 C227.84,155.57 228.79,156.01 229.39,156.44 C229.8,156.73 230.38,157.36 231.15,158.31 C231.92,159.27 232.43,160 232.69,160.52 L238.02,170.83 L225.59,170.83 L219.71,159.95 C218.97,158.54 218.3,157.63 217.72,157.21 C216.93,156.66 216.03,156.38 215.03,156.38 L214.06,156.38 L214.06,170.82 L203.01,170.82 L203,170.84 Z M214.05,149.67 L218.69,149.67 C219.19,149.67 220.16,149.51 221.6,149.18 C222.33,149.03 222.92,148.66 223.38,148.06 C223.84,147.46 224.07,146.77 224.07,146 C224.07,144.85 223.71,143.97 222.98,143.35 C222.25,142.74 220.88,142.43 218.88,142.43 L214.05,142.43 L214.05,149.66 L214.05,149.67 Z" id="Shape" fill="#4DB79D"></path>
            <polygon id="Path" fill="#4DB79D" points="241.08 135.25 274.51 135.25 274.51 144.04 263.29 144.04 263.29 170.84 252.29 170.84 252.29 144.04 241.07 144.04 241.07 135.25"></polygon>
            <polygon id="Path" fill="#4DB79D" points="282.4 135.25 293.42 135.25 293.42 170.84 282.4 170.84"></polygon>
            <path d="M302.42,153.07 C302.42,147.26 304.04,142.74 307.28,139.5 C310.52,136.26 315.02,134.64 320.8,134.64 C326.58,134.64 331.29,136.23 334.49,139.41 C337.7,142.59 339.3,147.04 339.3,152.77 C339.3,156.93 338.6,160.34 337.2,163 C335.8,165.66 333.78,167.73 331.13,169.21 C328.48,170.69 325.19,171.43 321.24,171.43 C317.29,171.43 313.9,170.79 311.27,169.51 C308.64,168.23 306.51,166.21 304.87,163.44 C303.23,160.67 302.42,157.21 302.42,153.05 L302.42,153.07 Z M313.42,153.12 C313.42,156.71 314.09,159.29 315.42,160.86 C316.76,162.43 318.57,163.21 320.87,163.21 C323.17,163.21 325.06,162.44 326.36,160.9 C327.66,159.36 328.3,156.6 328.3,152.62 C328.3,149.27 327.62,146.82 326.27,145.28 C324.92,143.74 323.09,142.96 320.77,142.96 C318.45,142.96 316.77,143.75 315.43,145.31 C314.09,146.88 313.41,149.48 313.41,153.1 L313.42,153.12 Z" id="Shape" fill="#4DB79D"></path>
        </g>
    </g>
</svg>