<?xml version="1.0" encoding="UTF-8"?>
<svg width="159px" height="80px" viewBox="0 0 159 80" version="1.1" xmlns="http://www.w3.org/2000/svg" xmlns:xlink="http://www.w3.org/1999/xlink">
    <title>Dexportio logo</title>
    <defs>
        <linearGradient x1="50%" y1="96.9398196%" x2="50%" y2="14.2870431%" id="linearGradient-1">
            <stop stop-color="#007CCF" offset="0%"></stop>
            <stop stop-color="#00D3A8" offset="100%"></stop>
        </linearGradient>
        <linearGradient x1="77.2738545%" y1="0.837365091%" x2="22.4115929%" y2="101.935244%" id="linearGradient-2">
            <stop stop-color="#003575" offset="0%"></stop>
            <stop stop-color="#007CCF" offset="33%"></stop>
            <stop stop-color="#00D3A8" offset="100%"></stop>
        </linearGradient>
        <linearGradient x1="80.7874564%" y1="9.56047148%" x2="23.0486295%" y2="89.1822631%" id="linearGradient-3">
            <stop stop-color="#007CCF" offset="0%"></stop>
            <stop stop-color="#00D3A8" offset="100%"></stop>
        </linearGradient>
    </defs>
    <g id="Page-1" stroke="none" stroke-width="1" fill="none" fill-rule="evenodd">
        <g id="Artboard" transform="translate(-106.000000, -117.000000)" fill-rule="nonzero">
            <g id="Dexportio-logo" transform="translate(106.925052, 117.000000)">
                <g id="Group" transform="translate(49.965302, -0.000000)">
                    <path d="M56.0004533,49.9953497 L39.6176104,49.9953497 C39.0311791,49.9953497 38.4773273,49.734933 38.1096442,49.2792039 L0.438413806,3.17615327 C-0.0363163023,2.59486607 -0.134054854,1.79036458 0.187086102,1.11142113 C0.508227057,0.432477679 1.19239692,0 1.94638003,0 L18.329223,0 C18.9156543,0 19.4695061,0.260416667 19.8371892,0.716145833 L57.5084196,46.8191964 C57.9831497,47.4004836 58.0808882,48.2049851 57.7597473,48.8839286 C57.4386063,49.562872 56.7544364,49.9953497 56.0004533,49.9953497 L56.0004533,49.9953497 Z M40.5437995,46.1077009 L51.9000884,46.1077009 L17.4076881,3.89229911 L6.0513992,3.89229911 L40.5437995,46.1077009 L40.5437995,46.1077009 Z" id="Shape" fill="url(#linearGradient-1)"></path>
                    <path d="M20.7866494,28.078497 L6.0513992,46.1077009 L2.37922219,49.9953497 L1.95103425,49.9953497 C1.20170535,49.9953497 0.517535491,49.562872 0.196394535,48.8839286 C-0.129400637,48.2096354 -0.0270078688,47.4051339 0.443068023,46.8238467 L18.2733724,25.0046503 L20.7913036,28.0831473 L20.7866494,28.078497 Z" id="Path" fill="url(#linearGradient-2)"></path>
                    <path d="M34.6003647,9.9562872 C34.6003647,11.1049107 33.6695214,12.0349702 32.5199298,12.0349702 C31.3703383,12.0349702 30.439495,11.1049107 30.439495,9.9562872 C30.439495,8.80766369 31.3703383,7.87760417 32.5199298,7.87760417 C33.6695214,7.87760417 34.6003647,8.80766369 34.6003647,9.9562872 Z M57.7597473,1.11142113 C57.4386063,0.437127976 56.7590907,0.00465029762 56.0051075,0.00465029762 L39.6222646,0.00465029762 C39.0404875,0.00465029762 38.4819815,0.265066964 38.1142984,0.720796131 L35.1123286,4.39453125 C34.4328129,5.22693452 34.5584768,6.4499628 35.3915816,7.13355655 C36.2246864,7.8125 37.4487454,7.68694196 38.1329152,6.85453869 L40.5531079,3.89229911 L51.9093968,3.89229911 L37.1741466,21.9261533 L34.6655238,25 L28.9873793,31.9521949 L26.4694481,35.0260417 L17.4123423,46.1123512 L6.06070764,46.1123512 L2.38853062,50 L18.3385314,50 C18.9203085,50 19.4788145,49.7395833 19.8464976,49.2838542 L28.9873793,38.0998884 L31.4960022,35.0213914 L37.1741466,28.0738467 L39.6920778,25 L57.5223822,3.17615327 C57.9971123,2.59486607 58.0948509,1.79036458 57.7690557,1.11142113 L57.7597473,1.11142113 Z" id="Shape" fill="url(#linearGradient-3)"></path>
                </g>
                <g id="Group" transform="translate(0.000000, 63.000000)" fill="#FFFFFF">
                    <path d="M0,0.281870073 L7.60367929,0.281870073 C9.10207876,0.281870073 10.3119665,0.485186192 11.2333426,0.887197608 C12.1547187,1.28920902 12.9178786,1.87143245 13.5228225,2.62462626 C14.123113,3.37782006 14.560534,4.26039685 14.8350854,5.26311498 C15.1049835,6.26583311 15.2399325,7.32862191 15.2399325,8.44686056 C15.2399325,10.2027725 15.0398357,11.5659147 14.6349886,12.536287 C14.2301415,13.5066594 13.6717318,14.3153031 12.955106,14.9714596 C12.2384801,15.6276162 11.4706667,16.0619734 10.6516658,16.2791519 C9.53019289,16.5795053 8.51109512,16.7273716 7.60367929,16.7273716 L0,16.7273716 L0,0.281870073 L0,0.281870073 Z M5.11875595,4.0062517 L5.11875595,12.9937483 L6.37517786,12.9937483 C7.4454632,12.9937483 8.20396976,12.873607 8.65535097,12.6379451 C9.10673217,12.4022832 9.46039167,11.9910302 9.71632947,11.4041859 C9.97226727,10.8173417 10.1025629,9.86545257 10.1025629,8.54851862 C10.1025629,6.80646915 9.81405118,5.61429736 9.24168119,4.97200326 C8.66931121,4.32970916 7.72001465,4.0062517 6.39379152,4.0062517 L5.11875595,4.0062517 L5.11875595,4.0062517 Z" id="Shape"></path>
                    <polygon id="Path" points="19.074346 0.281870073 32.7879586 0.281870073 32.7879586 3.79369394 24.2024088 3.79369394 24.2024088 6.40907855 32.1690544 6.40907855 32.1690544 9.76379451 24.2024088 9.76379451 24.2024088 13.0076108 33.0345895 13.0076108 33.0345895 16.7319924 19.0696926 16.7319924 19.0696926 0.286490894"></polygon>
                    <polygon id="Path" points="35.8173314 0.281870073 41.4526163 0.281870073 44.3842675 5.34166893 47.2368106 0.281870073 52.8162546 0.281870073 47.6602713 8.24816526 53.3002097 16.7273716 47.5485893 16.7273716 44.2772389 11.4457733 41.0058886 16.7273716 35.2914956 16.7273716 41.0058886 8.15574884 35.812678 0.281870073"></polygon>
                    <path d="M56.0782981,0.281870073 L64.5847398,0.281870073 C66.4367988,0.281870073 67.8235163,0.720848057 68.7495458,1.5941832 C69.6755753,2.46751835 70.1316099,3.71513998 70.1316099,5.32780647 C70.1316099,6.94047295 69.6290411,8.28513183 68.6239036,9.21853765 C67.6187661,10.1519435 66.0831393,10.6186464 64.0216767,10.6186464 L61.2203211,10.6186464 L61.2203211,16.7227507 L56.0782981,16.7227507 L56.0782981,0.277249253 L56.0782981,0.281870073 Z M61.2203211,7.29165534 L62.4767431,7.29165534 C63.4632669,7.29165534 64.1566257,7.12068497 64.5568193,6.78336504 C64.957013,6.4414243 65.1571098,6.00706714 65.1571098,5.47567274 C65.1571098,4.94427834 64.9849335,4.52378364 64.6359274,4.16335961 C64.2869213,3.80293558 63.6400967,3.62272357 62.6814933,3.62272357 L61.2249746,3.62272357 L61.2249746,7.29165534 L61.2203211,7.29165534 Z" id="Shape"></path>
                    <path d="M73.3238522,8.51617287 C73.3238522,5.83147594 74.0777054,3.74286491 75.5854117,2.24571895 C77.093118,0.748572982 79.1871545,0 81.8768281,0 C84.5665017,0 86.7582599,0.734710519 88.2473525,2.20413156 C89.7410986,3.6735526 90.4856449,5.72981789 90.4856449,8.37754825 C90.4856449,10.2998097 90.1599059,11.8755096 89.5084279,13.104648 C88.8569498,14.3337864 87.9169601,15.2902963 86.6838053,15.9741778 C85.4506504,16.6580593 83.9196771,17 82.0815783,17 C80.2434796,17 78.6659721,16.7042675 77.4421241,16.1128024 C76.2182761,15.5213373 75.2270988,14.5879315 74.4639388,13.3079641 C73.7007788,12.0279967 73.3238522,10.4291927 73.3238522,8.50693123 L73.3238522,8.51617287 Z M78.4426082,8.53927698 C78.4426082,10.1981517 78.754387,11.3903235 79.3732911,12.1157923 C79.9968486,12.8412612 80.8391167,13.2016852 81.909402,13.2016852 C82.9796873,13.2016852 83.8591827,12.845882 84.4641266,12.1342756 C85.0690704,11.4226692 85.366889,10.1473226 85.366889,8.30823593 C85.366889,6.76026094 85.0504568,5.62815983 84.4222458,4.91655341 C83.7940349,4.204947 82.94246,3.84452297 81.8628679,3.84452297 C80.7832757,3.84452297 80.0015021,4.20956782 79.3779445,4.93041587 C78.754387,5.65588475 78.4379548,6.85729818 78.4379548,8.53003534 L78.4426082,8.53927698 Z" id="Shape"></path>
                    <path d="M94.4643143,16.7273716 L94.4643143,0.281870073 L102.994023,0.281870073 C104.576184,0.281870073 105.786072,0.415873879 106.619033,0.68388149 C107.456648,0.9518891 108.131393,1.45093775 108.643268,2.18102745 C109.155144,2.91111715 109.411082,3.79831476 109.411082,4.8472411 C109.411082,5.76216363 109.215638,6.54770318 108.824751,7.20848057 C108.433865,7.86925795 107.894069,8.40527317 107.210017,8.81652623 C106.772596,9.07991302 106.172305,9.2970916 105.413799,9.46806197 C106.023396,9.67137809 106.46547,9.87469421 106.744675,10.0733895 C106.935465,10.2073933 107.205363,10.498505 107.563676,10.937483 C107.921989,11.3810818 108.159313,11.7184017 108.280302,11.9586844 L110.760572,16.7227507 L104.976378,16.7227507 L102.24017,11.6952976 C101.895817,11.0437619 101.584038,10.6232672 101.31414,10.4291927 C100.946521,10.1750476 100.527713,10.0456646 100.062372,10.0456646 L99.6109907,10.0456646 L99.6109907,16.7181299 L94.4689677,16.7181299 L94.4643143,16.7273716 Z M99.6063373,6.94509378 L101.765522,6.94509378 C101.998192,6.94509378 102.449574,6.87116064 103.119665,6.71867355 C103.459365,6.64936124 103.733916,6.47839087 103.947973,6.20114161 C104.16203,5.92389236 104.269059,5.60505572 104.269059,5.24925251 C104.269059,4.71785811 104.101536,4.31122588 103.761836,4.02473498 C103.422137,3.74286491 102.784619,3.59961946 101.853937,3.59961946 L99.6063373,3.59961946 L99.6063373,6.94047295 L99.6063373,6.94509378 Z" id="Shape"></path>
                    <polygon id="Path" points="112.184517 0.281870073 127.740881 0.281870073 127.740881 4.34357162 122.51975 4.34357162 122.51975 16.7273716 117.400994 16.7273716 117.400994 4.34357162 112.179863 4.34357162 112.179863 0.281870073"></polygon>
                    <polygon id="Path" points="131.412425 0.281870073 136.540488 0.281870073 136.540488 16.7273716 131.412425 16.7273716"></polygon>
                    <path d="M140.728561,8.51617287 C140.728561,5.83147594 141.482414,3.74286491 142.990121,2.24571895 C144.497827,0.748572982 146.591864,0 149.281537,0 C151.971211,0 154.162969,0.734710519 155.652062,2.20413156 C157.145808,3.6735526 157.890354,5.72981789 157.890354,8.37754825 C157.890354,10.2998097 157.564615,11.8755096 156.913137,13.104648 C156.261659,14.3337864 155.321669,15.2902963 154.088514,15.9741778 C152.855359,16.6580593 151.324386,17 149.486287,17 C147.648189,17 146.070681,16.7042675 144.846833,16.1128024 C143.622985,15.5213373 142.631808,14.5879315 141.868648,13.3079641 C141.105488,12.0279967 140.728561,10.4291927 140.728561,8.50693123 L140.728561,8.51617287 Z M145.847317,8.53927698 C145.847317,10.1981517 146.159096,11.3903235 146.778,12.1157923 C147.401558,12.8412612 148.243826,13.2016852 149.314111,13.2016852 C150.384396,13.2016852 151.263892,12.845882 151.868836,12.1342756 C152.473779,11.4226692 152.771598,10.1473226 152.771598,8.30823593 C152.771598,6.76026094 152.455166,5.62815983 151.826955,4.91655341 C151.198744,4.204947 150.347169,3.84452297 149.267577,3.84452297 C148.187985,3.84452297 147.406211,4.20956782 146.782654,4.93041587 C146.159096,5.65588475 145.842664,6.85729818 145.842664,8.53003534 L145.847317,8.53927698 Z" id="Shape"></path>
                </g>
            </g>
        </g>
    </g>
</svg>