<?xml version="1.0" encoding="UTF-8"?>
<svg width="131px" height="66px" viewBox="0 0 131 66" version="1.1" xmlns="http://www.w3.org/2000/svg" xmlns:xlink="http://www.w3.org/1999/xlink">
    <title>Dexportio logo</title>
    <defs>
        <linearGradient x1="50%" y1="96.9398196%" x2="50%" y2="14.2870431%" id="linearGradient-1">
            <stop stop-color="#007CCF" offset="0%"></stop>
            <stop stop-color="#00D3A8" offset="100%"></stop>
        </linearGradient>
        <linearGradient x1="77.2738545%" y1="0.837365091%" x2="22.4115929%" y2="101.935244%" id="linearGradient-2">
            <stop stop-color="#003575" offset="0%"></stop>
            <stop stop-color="#007CCF" offset="33%"></stop>
            <stop stop-color="#00D3A8" offset="100%"></stop>
        </linearGradient>
        <linearGradient x1="80.7874564%" y1="9.56047148%" x2="23.0486295%" y2="89.1822631%" id="linearGradient-3">
            <stop stop-color="#007CCF" offset="0%"></stop>
            <stop stop-color="#00D3A8" offset="100%"></stop>
        </linearGradient>
    </defs>
    <g id="Page-1" stroke="none" stroke-width="1" fill="none" fill-rule="evenodd">
        <g id="Homepage---light" transform="translate(-82.000000, -58.000000)" fill-rule="nonzero">
            <g id="Dexportio-logo" transform="translate(82.925052, 58.000000)">
                <g id="Group" transform="translate(41.139241, -0.000000)">
                    <path d="M46.1083198,41.1639806 L32.6194047,41.1639806 C32.1365628,41.1639806 31.6805455,40.9495649 31.3778114,40.5743375 L0.36097072,2.61510545 C-0.0299012522,2.13649904 -0.110374894,1.47410776 0.154038499,0.915095466 C0.418451893,0.356083173 0.981767382,0 1.60256404,0 L15.0914792,0 C15.574321,0 16.0303383,0.214415674 16.3330725,0.589643104 L47.3499131,38.5488751 C47.7407851,39.0274815 47.8212587,39.6898728 47.5568454,40.2488851 C47.292432,40.8078974 46.7291165,41.1639806 46.1083198,41.1639806 L46.1083198,41.1639806 Z M33.3819882,37.9630609 L42.7322589,37.9630609 L14.3327277,3.20474856 L4.98245698,3.20474856 L33.3819882,37.9630609 L33.3819882,37.9630609 Z" id="Shape" fill="url(#linearGradient-1)"></path>
                    <path d="M17.1148164,23.1186043 L4.98245698,37.9630609 L1.95894731,41.1639806 L1.60639612,41.1639806 C0.989431539,41.1639806 0.426116049,40.8078974 0.161702656,40.2488851 C-0.106542815,39.6937017 -0.0222370959,39.0313104 0.364802798,38.552704 L15.0454942,20.5877336 L17.1186485,23.1224331 L17.1148164,23.1186043 Z" id="Path" fill="url(#linearGradient-2)"></path>
                    <path d="M28.4884244,8.19757068 C28.4884244,9.14329696 27.7220088,9.90906722 26.7754855,9.90906722 C25.8289622,9.90906722 25.0625465,9.14329696 25.0625465,8.19757068 C25.0625465,7.25184441 25.8289622,6.48607414 26.7754855,6.48607414 C27.7220088,6.48607414 28.4884244,7.25184441 28.4884244,8.19757068 Z M47.5568454,0.915095466 C47.292432,0.359912024 46.7329485,0.00382885132 46.1121519,0.00382885132 L32.6232368,0.00382885132 C32.144227,0.00382885132 31.6843776,0.218244525 31.3816434,0.593471955 L28.909953,3.6182645 C28.3504696,4.30362889 28.4539357,5.31061678 29.1398777,5.87345793 C29.8258197,6.43247022 30.8336563,6.32909124 31.3969717,5.64372685 L33.3896524,3.20474856 L42.7399231,3.20474856 L30.6075636,18.053034 L28.5420735,20.5839047 L23.8669382,26.3080374 L21.7937839,28.8389082 L14.3365598,37.9668897 L4.99012114,37.9668897 L1.96661147,41.1678094 L15.0991433,41.1678094 C15.5781531,41.1678094 16.0380025,40.9533937 16.3407367,40.5781663 L23.8669382,31.3697789 L25.9324283,28.8350793 L30.6075636,23.1147754 L32.6807179,20.5839047 L47.3614094,2.61510545 C47.7522813,2.13649904 47.832755,1.47410776 47.5645095,0.915095466 L47.5568454,0.915095466 Z" id="Shape" fill="url(#linearGradient-3)"></path>
                </g>
                <g id="Group" transform="translate(0.000000, 51.871440)" fill="#031A3F">
                    <path d="M0,0.232079469 L6.2605364,0.232079469 C7.49425287,0.232079469 8.49042146,0.399481054 9.24904215,0.730479641 C10.0076628,1.06147823 10.6360153,1.54085549 11.1340996,2.16100227 C11.6283525,2.78114905 11.9885057,3.50782411 12.2145594,4.33341829 C12.4367816,5.15901246 12.5478927,6.0340662 12.5478927,6.95477492 C12.5478927,8.40051587 12.3831418,9.5228674 12.0498084,10.3218295 C11.7164751,11.1207916 11.256705,11.7865934 10.6666667,12.3268439 C10.0766284,12.8670945 9.44444444,13.2247252 8.77011494,13.4035405 C7.8467433,13.6508383 7.00766284,13.7725849 6.2605364,13.7725849 L0,13.7725849 L0,0.232079469 L0,0.232079469 Z M4.21455939,3.29857213 L4.21455939,10.6984831 L5.24904215,10.6984831 C6.1302682,10.6984831 6.75478927,10.599564 7.12643678,10.4055303 C7.49808429,10.2114966 7.78927203,9.8728889 8,9.38970705 C8.21072797,8.90652521 8.31800766,8.12278142 8.31800766,7.03847571 C8.31800766,5.6041485 8.08045977,4.62256648 7.6091954,4.09372965 C7.13793103,3.56489283 6.35632184,3.29857213 5.26436782,3.29857213 L4.21455939,3.29857213 L4.21455939,3.29857213 Z" id="Shape"></path>
                    <polygon id="Path" points="15.7049808 0.232079469 26.9961686 0.232079469 26.9961686 3.12356138 19.9272031 3.12356138 19.9272031 5.27695449 26.48659 5.27695449 26.48659 8.03908063 19.9272031 8.03908063 19.9272031 10.7098968 27.1992337 10.7098968 27.1992337 13.7763895 15.7011494 13.7763895 15.7011494 0.235884051"></polygon>
                    <polygon id="Path" points="29.4904215 0.232079469 34.1302682 0.232079469 36.5440613 4.39809617 38.8927203 0.232079469 43.48659 0.232079469 39.2413793 6.79117791 43.8850575 13.7725849 39.1494253 13.7725849 36.4559387 9.42394828 33.7624521 13.7725849 29.0574713 13.7725849 33.7624521 6.71508628 29.48659 0.232079469"></polygon>
                    <path d="M46.1724138,0.232079469 L53.1762452,0.232079469 C54.7011494,0.232079469 55.8429119,0.593514708 56.605364,1.3125806 C57.3678161,2.0316465 57.743295,3.0588835 57.743295,4.38668243 C57.743295,5.71448136 57.3295019,6.82161456 56.5019157,7.59014002 C55.6743295,8.35866548 54.4099617,8.7429282 52.7126437,8.7429282 L50.4061303,8.7429282 L50.4061303,13.7687803 L46.1724138,13.7687803 L46.1724138,0.228274888 L46.1724138,0.232079469 Z M50.4061303,6.00362955 L51.440613,6.00362955 C52.2528736,6.00362955 52.8237548,5.86286004 53.1532567,5.58512559 C53.4827586,5.30358656 53.6475096,4.9459559 53.6475096,4.50842903 C53.6475096,4.07090217 53.5057471,3.72468525 53.2183908,3.4279279 C52.9310345,3.13117054 52.3984674,2.98279187 51.6091954,2.98279187 L50.4099617,2.98279187 L50.4099617,6.00362955 L50.4061303,6.00362955 Z" id="Shape"></path>
                    <path d="M60.3716475,7.01184364 C60.3716475,4.80138181 60.9923372,3.08171099 62.2337165,1.84902659 C63.4750958,0.616342197 65.1992337,0 67.4137931,0 C69.6283525,0 71.4329502,0.604928453 72.6590038,1.81478536 C73.8888889,3.02464226 74.5019157,4.71768101 74.5019157,6.89770619 C74.5019157,8.48041208 74.2337165,9.77777436 73.697318,10.789793 C73.1609195,11.8018117 72.3869732,12.5893601 71.3716475,13.1524381 C70.3563218,13.7155162 69.0957854,13.9970552 67.5823755,13.9970552 C66.0689655,13.9970552 64.7701149,13.753562 63.7624521,13.2665756 C62.7547893,12.7795891 61.9386973,12.0110637 61.3103448,10.9571946 C60.6819923,9.90332555 60.3716475,8.58694036 60.3716475,7.00423447 L60.3716475,7.01184364 Z M64.5862069,7.03086654 C64.5862069,8.39671129 64.8429119,9.37829331 65.3524904,9.9756126 C65.8659004,10.5729319 66.559387,10.8696892 67.440613,10.8696892 C68.3218391,10.8696892 69.045977,10.5767365 69.5440613,9.99083092 C70.0421456,9.40492538 70.2873563,8.35486089 70.2873563,6.84063747 C70.2873563,5.56610268 70.0268199,4.63398022 69.5095785,4.04807468 C68.9923372,3.46216913 68.2911877,3.16541178 67.4022989,3.16541178 C66.51341,3.16541178 65.8697318,3.46597371 65.3563218,4.05948842 C64.8429119,4.65680771 64.5823755,5.64599889 64.5823755,7.02325738 L64.5862069,7.03086654 Z" id="Shape"></path>
                    <path d="M77.7777778,13.7725849 L77.7777778,0.232079469 L84.8007663,0.232079469 C86.1034483,0.232079469 87.0996169,0.342412332 87.7854406,0.563078057 C88.4750958,0.783743781 89.0306513,1.19463858 89.4521073,1.79576245 C89.8735632,2.39688632 90.0842912,3.12736596 90.0842912,3.99100596 C90.0842912,4.74431308 89.9233716,5.39109193 89.6015326,5.93514708 C89.2796935,6.47920223 88.835249,6.92053368 88.2720307,7.25914143 C87.9118774,7.47600258 87.4176245,7.6548179 86.7931034,7.79558742 C87.2950192,7.962989 87.6590038,8.13039059 87.8888889,8.29398759 C88.045977,8.40432045 88.2681992,8.64400908 88.5632184,9.00544432 C88.8582375,9.37068414 89.0536398,9.64841859 89.1532567,9.84625683 L91.1954023,13.7687803 L86.4329502,13.7687803 L84.1800766,9.62939568 C83.8965517,9.0929497 83.6398467,8.74673278 83.4176245,8.58694036 C83.1149425,8.37768838 82.7701149,8.2711601 82.3869732,8.2711601 L82.0153257,8.2711601 L82.0153257,13.7649757 L77.7816092,13.7649757 L77.7777778,13.7725849 Z M82.0114943,5.71828594 L83.789272,5.71828594 C83.9808429,5.71828594 84.3524904,5.65741264 84.9042146,5.53186145 C85.183908,5.47479273 85.4099617,5.33402321 85.5862069,5.10574832 C85.7624521,4.87747344 85.8505747,4.61495732 85.8505747,4.32200454 C85.8505747,3.88447767 85.7126437,3.54967451 85.4329502,3.31379045 C85.1532567,3.08171099 84.6283525,2.96376896 83.862069,2.96376896 L82.0114943,2.96376896 L82.0114943,5.71448136 L82.0114943,5.71828594 Z" id="Shape"></path>
                    <polygon id="Path" points="92.3678161 0.232079469 105.176245 0.232079469 105.176245 3.57630658 100.877395 3.57630658 100.877395 13.7725849 96.6628352 13.7725849 96.6628352 3.57630658 92.3639847 3.57630658 92.3639847 0.232079469"></polygon>
                    <polygon id="Path" points="108.199234 0.232079469 112.421456 0.232079469 112.421456 13.7725849 108.199234 13.7725849"></polygon>
                    <path d="M115.869732,7.01184364 C115.869732,4.80138181 116.490421,3.08171099 117.731801,1.84902659 C118.97318,0.616342197 120.697318,0 122.911877,0 C125.126437,0 126.931034,0.604928453 128.157088,1.81478536 C129.386973,3.02464226 130,4.71768101 130,6.89770619 C130,8.48041208 129.731801,9.77777436 129.195402,10.789793 C128.659004,11.8018117 127.885057,12.5893601 126.869732,13.1524381 C125.854406,13.7155162 124.59387,13.9970552 123.08046,13.9970552 C121.56705,13.9970552 120.268199,13.753562 119.260536,13.2665756 C118.252874,12.7795891 117.436782,12.0110637 116.808429,10.9571946 C116.180077,9.90332555 115.869732,8.58694036 115.869732,7.00423447 L115.869732,7.01184364 Z M120.084291,7.03086654 C120.084291,8.39671129 120.340996,9.37829331 120.850575,9.9756126 C121.363985,10.5729319 122.057471,10.8696892 122.938697,10.8696892 C123.819923,10.8696892 124.544061,10.5767365 125.042146,9.99083092 C125.54023,9.40492538 125.785441,8.35486089 125.785441,6.84063747 C125.785441,5.56610268 125.524904,4.63398022 125.007663,4.04807468 C124.490421,3.46216913 123.789272,3.16541178 122.900383,3.16541178 C122.011494,3.16541178 121.367816,3.46597371 120.854406,4.05948842 C120.340996,4.65680771 120.08046,5.64599889 120.08046,7.02325738 L120.084291,7.03086654 Z" id="Shape"></path>
                </g>
            </g>
        </g>
    </g>
</svg>