<?xml version="1.0" encoding="UTF-8"?>
<svg width="400px" height="334px" viewBox="0 0 400 334" version="1.1" xmlns="http://www.w3.org/2000/svg" xmlns:xlink="http://www.w3.org/1999/xlink">
    <title>hero-image</title>
    <defs>
        <filter id="filter-1">
            <feColorMatrix in="SourceGraphic" type="matrix" values="0 0 0 0 0.000000 0 0 0 0 0.486275 0 0 0 0 0.811765 0 0 0 1.000000 0"></feColorMatrix>
        </filter>
        <polygon id="path-2" points="0 0 400 0 400 333.963985 0 333.963985"></polygon>
    </defs>
    <g id="Page-1" stroke="none" stroke-width="1" fill="none" fill-rule="evenodd">
        <g id="hero-image" transform="translate(-843.000000, -175.000000)" filter="url(#filter-1)">
            <g transform="translate(843.000000, 175.000000)">
                <mask id="mask-3" fill="white">
                    <use xlink:href="#path-2"></use>
                </mask>
                <g id="Clip-2"></g>
                <path d="M319.530173,310.508008 L366.593814,310.508008 L366.593814,44.826974 L319.530173,44.826974 L319.530173,310.508008 Z M369.880382,317.086198 L316.243605,317.086198 C314.428409,317.086198 312.951982,315.614827 312.951982,313.799631 L312.951982,41.5404068 C312.951982,39.7252105 314.428409,38.2538396 316.243605,38.2538396 L369.880382,38.2538396 C371.700634,38.2538396 373.172005,39.7252105 373.172005,41.5404068 L373.172005,313.799631 C373.172005,315.614827 371.700634,317.086198 369.880382,317.086198 L369.880382,317.086198 Z" id="Fill-1" fill="#000000" mask="url(#mask-3)"></path>
                <path d="M247.999302,310.508008 L295.073057,310.508008 L295.073057,78.5825469 L247.999302,78.5825469 L247.999302,310.508008 Z M298.359624,317.086198 L244.707679,317.086198 C242.892482,317.086198 241.421112,315.614827 241.421112,313.799631 L241.421112,75.2959797 C241.421112,73.4757272 242.892482,72.0043563 244.707679,72.0043563 L298.359624,72.0043563 C300.17482,72.0043563 301.646191,73.4757272 301.646191,75.2959797 L301.646191,313.799631 C301.646191,315.614827 300.17482,317.086198 298.359624,317.086198 L298.359624,317.086198 Z" id="Fill-3" fill="#000000" mask="url(#mask-3)"></path>
                <path d="M176.463376,310.508008 L223.53713,310.508008 L223.53713,111.382487 L176.463376,111.382487 L176.463376,310.508008 Z M226.823697,317.086198 L173.176808,317.086198 C171.361612,317.086198 169.890241,315.614827 169.890241,313.799631 L169.890241,108.09592 C169.890241,106.280724 171.361612,104.809353 173.176808,104.809353 L226.823697,104.809353 C228.64395,104.809353 230.115321,106.280724 230.115321,108.09592 L230.115321,313.799631 C230.115321,315.614827 228.64395,317.086198 226.823697,317.086198 L226.823697,317.086198 Z" id="Fill-4" fill="#000000" mask="url(#mask-3)"></path>
                <path d="M104.932505,310.508008 L152.00626,310.508008 L152.00626,157.101165 L104.932505,157.101165 L104.932505,310.508008 Z M155.292827,317.086198 L101.640882,317.086198 C99.8256855,317.086198 98.3543147,315.614827 98.3543147,313.799631 L98.3543147,153.814598 C98.3543147,151.999401 99.8256855,150.52803 101.640882,150.52803 L155.292827,150.52803 C157.108023,150.52803 158.579394,151.999401 158.579394,153.814598 L158.579394,313.799631 C158.579394,315.614827 157.108023,317.086198 155.292827,317.086198 L155.292827,317.086198 Z" id="Fill-5" fill="#000000" mask="url(#mask-3)"></path>
                <path d="M33.3915224,310.508008 L80.470333,310.508008 L80.470333,204.771557 L33.3915224,204.771557 L33.3915224,310.508008 Z M83.7569002,317.086198 L30.1049553,317.086198 C28.2897589,317.086198 26.8183881,315.614827 26.8183881,313.799631 L26.8183881,201.48499 C26.8183881,199.664738 28.2897589,198.193367 30.1049553,198.193367 L83.7569002,198.193367 C85.5771528,198.193367 87.0485236,199.664738 87.0485236,201.48499 L87.0485236,313.799631 C87.0485236,315.614827 85.5771528,317.086198 83.7569002,317.086198 L83.7569002,317.086198 Z" id="Fill-6" fill="#000000" mask="url(#mask-3)"></path>
                <path d="M396.713433,333.963985 L3.28606154,333.963985 C1.47086521,333.963985 -0.000505625718,332.492614 -0.000505625718,330.677417 C-0.000505625718,328.857165 1.47086521,327.385794 3.28606154,327.385794 L396.713433,327.385794 C398.528629,327.385794 400,328.857165 400,330.677417 C400,332.492614 398.528629,333.963985 396.713433,333.963985" id="Fill-7" fill="#000000" mask="url(#mask-3)"></path>
                <path d="M19.1581585,161.597189 C17.8081378,161.597189 16.5440735,160.762906 16.0687853,159.417942 C15.4519219,157.708927 16.336767,155.827999 18.0457819,155.216192 C19.8053594,154.579104 195.004671,90.8550943 272.001355,1.15203569 C273.189576,-0.238435039 275.262641,-0.385066497 276.632887,0.793041427 C278.008189,1.97620561 278.169989,4.05432731 276.986825,5.42962926 C198.862595,96.4574273 22.0452813,160.762906 20.270535,161.399995 C19.9014283,161.531457 19.5272652,161.597189 19.1581585,161.597189" id="Fill-8" fill="#000000" mask="url(#mask-3)"></path>
                <path d="M273.58093,46.4389088 L273.575874,46.4389088 C271.765733,46.4338525 270.294363,44.9624817 270.294363,43.1472853 L270.329756,7.6422474 L236.78149,7.79393512 L236.766321,7.79393512 C234.956181,7.79393512 233.48481,6.33267679 233.474685,4.52253672 C233.469642,2.7073404 234.9309,1.2309133 236.751153,1.22080078 L273.606211,1.04888804 C274.303975,0.983156697 275.320282,1.39776979 275.942202,2.01463316 C276.559065,2.63149654 276.907947,3.47083523 276.907947,4.34556772 L276.867497,43.1573978 C276.862441,44.9675379 275.39107,46.4389088 273.58093,46.4389088" id="Fill-9" fill="#000000" mask="url(#mask-3)"></path>
            </g>
        </g>
    </g>
</svg>